Gentium-Regular.ufo
<glyph name="NumSgn" format="2">
  <advance width="961"/>
  <unicode hex="0023"/>
  <outline>
    <contour>
      <point x="976" y="907"/>
      <point x="982" y="936" type="curve"/>
      <point x="957" y="961" type="line"/>
      <point x="224" y="961" type="line"/>
      <point x="214" y="934"/>
      <point x="199" y="899"/>
      <point x="193" y="870" type="curve"/>
      <point x="218" y="846" type="line"/>
      <point x="951" y="846" type="line"/>
      <point x="961" y="868"/>
    </contour>
    <contour>
      <point x="580" y="170" type="curve"/>
      <point x="894" y="1270" type="line"/>
      <point x="867" y="1292" type="line"/>
      <point x="836" y="1280"/>
      <point x="806" y="1272"/>
      <point x="777" y="1251" type="curve"/>
      <point x="462" y="147" type="line"/>
      <point x="488" y="127" type="line"/>
      <point x="523" y="139"/>
      <point x="556" y="152"/>
    </contour>
    <contour>
      <point x="279" y="170" type="curve"/>
      <point x="595" y="1270" type="line"/>
      <point x="566" y="1292" type="line"/>
      <point x="537" y="1280"/>
      <point x="507" y="1272"/>
      <point x="478" y="1251" type="curve"/>
      <point x="163" y="147" type="line"/>
      <point x="189" y="127" type="line"/>
      <point x="224" y="139"/>
      <point x="255" y="152"/>
    </contour>
    <contour>
      <point x="867" y="537"/>
      <point x="873" y="563" type="curve"/>
      <point x="851" y="590" type="line"/>
      <point x="117" y="590" type="line"/>
      <point x="105" y="563"/>
      <point x="93" y="526"/>
      <point x="87" y="500" type="curve"/>
      <point x="109" y="475" type="line"/>
      <point x="845" y="475" type="line"/>
      <point x="855" y="498"/>
    </contour>
  </outline>
</glyph>
<glyph name="Comma" format="2">
  <advance width="469"/>
  <unicode hex="002C"/>
  <outline>
    <contour>
      <point x="390" y="-35"/>
      <point x="390" y="70" type="curve"/>
      <point x="390" y="145"/>
      <point x="373" y="199"/>
      <point x="309" y="229" type="curve"/>
      <point x="262" y="231"/>
      <point x="111" y="170"/>
      <point x="88" y="139" type="curve"/>
      <point x="104" y="92" type="line"/>
      <point x="190" y="98"/>
      <point x="226" y="59"/>
      <point x="226" y="0" type="curve" smooth="yes"/>
      <point x="226" y="-115"/>
      <point x="195" y="-184"/>
      <point x="121" y="-270" type="curve"/>
      <point x="166" y="-305" type="line"/>
      <point x="305" y="-201"/>
    </contour>
  </outline>
</glyph>
<glyph name="Solidus" format="2">
  <advance width="961"/>
  <unicode hex="002F"/>
  <outline>
    <contour>
      <point x="211" y="-284" type="curve"/>
      <point x="909" y="1578" type="line"/>
      <point x="872" y="1600" type="line"/>
      <point x="834" y="1590"/>
      <point x="786" y="1574"/>
      <point x="750" y="1551" type="curve"/>
      <point x="49" y="-310" type="line"/>
      <point x="86" y="-335" type="line"/>
      <point x="119" y="-325"/>
      <point x="184" y="-302"/>
    </contour>
  </outline>
</glyph>
<glyph name="LtnCapM" format="2">
  <advance width="1651"/>
  <unicode hex="004D"/>
  <anchor x="1350" y="0" name="H"/>
  <anchor x="815" y="-100" name="L"/>
  <anchor x="815" y="1370" name="U"/>
  <outline>
    <contour>
      <point x="1115" y="0" type="line"/>
      <point x="1570" y="0" type="line"/>
      <point x="1570" y="43" type="line"/>
      <point x="1474" y="61"/>
      <point x="1425" y="88"/>
      <point x="1425" y="104" type="curve" smooth="yes"/>
      <point x="1415" y="1214" type="line"/>
      <point x="1260" y="1157" type="line"/>
      <point x="1270" y="104" type="line" smooth="yes"/>
      <point x="1270" y="86"/>
      <point x="1205" y="61"/>
      <point x="1115" y="43" type="curve"/>
    </contour>
    <contour>
      <point x="1460" y="1217"/>
      <point x="1550" y="1217" type="curve"/>
      <point x="1550" y="1260" type="line"/>
      <point x="1264" y="1260" type="line" smooth="yes"/>
      <point x="1239" y="1260"/>
      <point x="1234" y="1256"/>
      <point x="1200" y="1176" type="curve" smooth="yes"/>
      <point x="813" y="262" type="line" smooth="yes"/>
      <point x="795" y="219"/>
      <point x="788" y="168"/>
      <point x="819" y="0" type="curve"/>
      <point x="823" y="0" type="line"/>
      <point x="1273" y="1068" type="line" smooth="yes"/>
      <point x="1302" y="1137"/>
    </contour>
    <contour>
      <point x="841" y="223"/>
      <point x="823" y="264" type="curve" smooth="yes"/>
      <point x="420" y="1176" type="line" smooth="yes"/>
      <point x="388" y="1248"/>
      <point x="382" y="1260"/>
      <point x="356" y="1260" type="curve" smooth="yes"/>
      <point x="70" y="1260" type="line"/>
      <point x="70" y="1217" type="line"/>
      <point x="143" y="1217"/>
      <point x="265" y="1182"/>
      <point x="317" y="1061" type="curve" smooth="yes"/>
      <point x="774" y="0" type="line"/>
      <point x="819" y="0" type="line"/>
      <point x="852" y="168"/>
    </contour>
    <contour>
      <point x="60" y="0" type="line"/>
      <point x="465" y="0" type="line"/>
      <point x="465" y="43" type="line"/>
      <point x="369" y="61"/>
      <point x="320" y="88"/>
      <point x="320" y="104" type="curve" smooth="yes"/>
      <point x="331" y="1221" type="line"/>
      <point x="215" y="1196" type="line"/>
      <point x="205" y="104" type="line" smooth="yes"/>
      <point x="205" y="86"/>
      <point x="151" y="61"/>
      <point x="60" y="43" type="curve"/>
    </contour>
  </outline>
</glyph>
<glyph name="ReverseSolidus" format="2">
  <advance width="961"/>
  <unicode hex="005C"/>
  <outline>
    <contour>
      <point x="870" y="-335" type="curve"/>
      <point x="905" y="-310" type="line"/>
      <point x="205" y="1551" type="line"/>
      <point x="168" y="1574"/>
      <point x="131" y="1590"/>
      <point x="92" y="1600" type="curve"/>
      <point x="55" y="1578" type="line"/>
      <point x="756" y="-284" type="line"/>
      <point x="780" y="-302"/>
      <point x="838" y="-325"/>
    </contour>
  </outline>
</glyph>
<glyph name="LtnSmP" format="2">
  <advance width="1085"/>
  <unicode hex="0070"/>
  <anchor x="268" y="-481" name="H"/>
  <anchor x="679" y="-100" name="L"/>
  <anchor x="1124" y="900" name="R"/>
  <anchor x="529" y="1050" name="U"/>
  <outline>
    <contour>
      <point x="623" y="-30" type="curve" smooth="yes"/>
      <point x="818" y="-30"/>
      <point x="1005" y="260"/>
      <point x="1005" y="492" type="curve" smooth="yes"/>
      <point x="1005" y="784"/>
      <point x="872" y="960"/>
      <point x="690" y="960" type="curve" smooth="yes"/>
      <point x="614" y="960"/>
      <point x="472" y="887"/>
      <point x="339" y="727" type="curve"/>
      <point x="330" y="925" type="line"/>
      <point x="295" y="960" type="line"/>
      <point x="217" y="923"/>
      <point x="147" y="900"/>
      <point x="55" y="880" type="curve"/>
      <point x="55" y="840" type="line"/>
      <point x="182" y="834"/>
      <point x="195" y="811"/>
      <point x="195" y="711" type="curve" smooth="yes"/>
      <point x="195" y="-375" type="line" smooth="yes"/>
      <point x="195" y="-398"/>
      <point x="143" y="-416"/>
      <point x="55" y="-437" type="curve"/>
      <point x="55" y="-480" type="line"/>
      <point x="514" y="-480" type="line"/>
      <point x="514" y="-437" type="line"/>
      <point x="389" y="-418"/>
      <point x="345" y="-396"/>
      <point x="345" y="-375" type="curve" smooth="yes"/>
      <point x="345" y="98" type="line"/>
      <point x="439" y="16"/>
      <point x="545" y="-30"/>
    </contour>
    <contour>
      <point x="623" y="835" type="curve" smooth="yes"/>
      <point x="752" y="835"/>
      <point x="870" y="659"/>
      <point x="870" y="426" type="curve" smooth="yes"/>
      <point x="870" y="213"/>
      <point x="764" y="100"/>
      <point x="621" y="100" type="curve" smooth="yes"/>
      <point x="549" y="100"/>
      <point x="464" y="123"/>
      <point x="345" y="213" type="curve"/>
      <point x="345" y="610" type="line"/>
      <point x="462" y="782"/>
      <point x="575" y="835"/>
    </contour>
  </outline>
</glyph>
<glyph name="LtnSmW" format="2">
  <advance width="1446"/>
  <unicode hex="0077"/>
  <anchor x="730" y="-100" name="L"/>
  <anchor x="750" y="1050" name="U"/>
  <outline>
    <contour>
      <point x="1343" y="868"/>
      <point x="1425" y="887" type="curve"/>
      <point x="1425" y="930" type="line"/>
      <point x="1100" y="930" type="line"/>
      <point x="1100" y="887" type="line"/>
      <point x="1192" y="872"/>
      <point x="1225" y="856"/>
      <point x="1217" y="825" type="curve" smooth="yes"/>
      <point x="1044" y="190" type="line"/>
      <point x="784" y="930" type="line"/>
      <point x="768" y="930"/>
      <point x="721" y="930"/>
      <point x="721" y="930" type="curve"/>
      <point x="713" y="696" type="line"/>
      <point x="967" y="-30" type="line"/>
      <point x="1001" y="-22"/>
      <point x="1087" y="0"/>
      <point x="1104" y="59" type="curve" smooth="yes"/>
      <point x="1325" y="825" type="line" smooth="yes"/>
      <point x="1333" y="856"/>
    </contour>
    <contour>
      <point x="524" y="59" type="curve" smooth="yes"/>
      <point x="791" y="825" type="line"/>
      <point x="770" y="930" type="line"/>
      <point x="770" y="930"/>
      <point x="733" y="930"/>
      <point x="715" y="930" type="curve"/>
      <point x="469" y="190" type="line"/>
      <point x="281" y="825" type="line" smooth="yes"/>
      <point x="272" y="850"/>
      <point x="276" y="874"/>
      <point x="406" y="887" type="curve"/>
      <point x="406" y="930" type="line"/>
      <point x="20" y="930" type="line"/>
      <point x="20" y="887" type="line"/>
      <point x="86" y="872"/>
      <point x="123" y="850"/>
      <point x="129" y="825" type="curve"/>
      <point x="391" y="-30" type="line"/>
      <point x="426" y="-22"/>
      <point x="504" y="-2"/>
    </contour>
  </outline>
</glyph>
<glyph name="Tilde" format="2">
  <advance width="999"/>
  <unicode hex="007E"/>
  <outline>
    <contour>
      <point x="895" y="643"/>
      <point x="950" y="774" type="curve"/>
      <point x="897" y="799" type="line"/>
      <point x="842" y="690"/>
      <point x="784" y="639"/>
      <point x="721" y="639" type="curve" smooth="yes"/>
      <point x="614" y="639"/>
      <point x="475" y="799"/>
      <point x="352" y="799" type="curve" smooth="yes"/>
      <point x="225" y="799"/>
      <point x="106" y="633"/>
      <point x="49" y="502" type="curve"/>
      <point x="102" y="475" type="line"/>
      <point x="158" y="586"/>
      <point x="211" y="637"/>
      <point x="276" y="637" type="curve" smooth="yes"/>
      <point x="391" y="637"/>
      <point x="535" y="477"/>
      <point x="647" y="477" type="curve" smooth="yes"/>
      <point x="774" y="477"/>
    </contour>
  </outline>
</glyph>
<glyph name="Diaer" format="2">
  <advance width="801"/>
  <unicode hex="00A8"/>
  <anchor x="400" y="1410" name="U"/>
  <outline>
    <contour>
      <point x="300" y="1186"/>
      <point x="300" y="1261" type="curve"/>
      <point x="300" y="1323"/>
      <point x="272" y="1356"/>
      <point x="215" y="1356" type="curve" smooth="yes"/>
      <point x="152" y="1356"/>
      <point x="100" y="1296"/>
      <point x="100" y="1220" type="curve" smooth="yes"/>
      <point x="100" y="1159"/>
      <point x="125" y="1124"/>
      <point x="184" y="1124" type="curve" smooth="yes"/>
      <point x="250" y="1124"/>
    </contour>
    <contour>
      <point x="700" y="1186"/>
      <point x="700" y="1261" type="curve"/>
      <point x="700" y="1323"/>
      <point x="672" y="1356"/>
      <point x="615" y="1356" type="curve" smooth="yes"/>
      <point x="552" y="1356"/>
      <point x="500" y="1296"/>
      <point x="500" y="1220" type="curve" smooth="yes"/>
      <point x="500" y="1159"/>
      <point x="525" y="1124"/>
      <point x="584" y="1124" type="curve" smooth="yes"/>
      <point x="650" y="1124"/>
    </contour>
  </outline>
</glyph>
<glyph name="RegisteredSgn" format="2">
  <advance width="730"/>
  <unicode hex="00AE"/>
  <outline>
    <contour>
      <point x="696" y="893"/>
      <point x="696" y="1084" type="curve"/>
      <point x="696" y="1275"/>
      <point x="556" y="1430"/>
      <point x="364" y="1430" type="curve" smooth="yes"/>
      <point x="173" y="1430"/>
      <point x="35" y="1275"/>
      <point x="35" y="1084" type="curve" smooth="yes"/>
      <point x="35" y="893"/>
      <point x="173" y="738"/>
      <point x="364" y="738" type="curve" smooth="yes"/>
      <point x="556" y="738"/>
    </contour>
    <contour>
      <point x="637" y="1242"/>
      <point x="637" y="1084" type="curve"/>
      <point x="637" y="925"/>
      <point x="523" y="797"/>
      <point x="364" y="797" type="curve" smooth="yes"/>
      <point x="207" y="797"/>
      <point x="93" y="925"/>
      <point x="93" y="1084" type="curve" smooth="yes"/>
      <point x="93" y="1242"/>
      <point x="207" y="1371"/>
      <point x="364" y="1371" type="curve" smooth="yes"/>
      <point x="523" y="1371"/>
    </contour>
    <contour>
      <point x="499" y="1116"/>
      <point x="499" y="1196" type="curve"/>
      <point x="499" y="1250"/>
      <point x="447" y="1291"/>
      <point x="347" y="1291" type="curve" smooth="yes"/>
      <point x="292" y="1291"/>
      <point x="251" y="1282"/>
      <point x="212" y="1273" type="curve"/>
      <point x="214" y="1244" type="line"/>
      <point x="257" y="1250"/>
      <point x="299" y="1256"/>
      <point x="336" y="1256" type="curve" smooth="yes"/>
      <point x="412" y="1256"/>
      <point x="438" y="1226"/>
      <point x="438" y="1187" type="curve" smooth="yes"/>
      <point x="438" y="1136"/>
      <point x="407" y="1107"/>
      <point x="340" y="1107" type="curve" smooth="yes"/>
      <point x="328" y="1107"/>
      <point x="319" y="1108"/>
      <point x="305" y="1111" type="curve"/>
      <point x="307" y="1075" type="line"/>
      <point x="320" y="1072"/>
      <point x="333" y="1070"/>
      <point x="344" y="1070" type="curve" smooth="yes"/>
      <point x="429" y="1070"/>
    </contour>
    <contour>
      <point x="529" y="890"/>
      <point x="556" y="898" type="curve"/>
      <point x="554" y="919" type="line"/>
      <point x="525" y="917"/>
      <point x="511" y="920"/>
      <point x="502" y="934" type="curve" smooth="yes"/>
      <point x="384" y="1098" type="line"/>
      <point x="341" y="1079" type="line"/>
      <point x="451" y="899" type="line" smooth="yes"/>
      <point x="456" y="891"/>
      <point x="470" y="881"/>
      <point x="482" y="881" type="curve" smooth="yes"/>
      <point x="497" y="881"/>
    </contour>
    <contour>
      <point x="214" y="887" type="line"/>
      <point x="356" y="887" type="line"/>
      <point x="356" y="905" type="line"/>
      <point x="326" y="911"/>
      <point x="313" y="919"/>
      <point x="313" y="924" type="curve" smooth="yes"/>
      <point x="313" y="1269" type="line"/>
      <point x="258" y="1269" type="line"/>
      <point x="258" y="924" type="line" smooth="yes"/>
      <point x="258" y="918"/>
      <point x="242" y="911"/>
      <point x="214" y="905" type="curve"/>
    </contour>
  </outline>
</glyph>
<glyph name="Macron" format="2">
  <advance width="1010"/>
  <unicode hex="00AF"/>
  <outline>
    <contour>
      <point x="837" y="1252"/>
      <point x="843" y="1281" type="curve"/>
      <point x="821" y="1305" type="line"/>
      <point x="208" y="1305" type="line"/>
      <point x="195" y="1279"/>
      <point x="173" y="1229"/>
      <point x="167" y="1200" type="curve"/>
      <point x="189" y="1175" type="line"/>
      <point x="804" y="1175" type="line"/>
      <point x="814" y="1200"/>
    </contour>
  </outline>
</glyph>
<glyph name="DegreeSgn" format="2">
  <advance width="733"/>
  <unicode hex="00B0"/>
  <outline>
    <contour>
      <point x="593" y="881"/>
      <point x="593" y="1045" type="curve"/>
      <point x="593" y="1147"/>
      <point x="508" y="1235"/>
      <point x="404" y="1235" type="curve" smooth="yes"/>
      <point x="279" y="1235"/>
      <point x="140" y="1114"/>
      <point x="140" y="948" type="curve" smooth="yes"/>
      <point x="140" y="845"/>
      <point x="219" y="759"/>
      <point x="329" y="759" type="curve" smooth="yes"/>
      <point x="452" y="759"/>
    </contour>
    <contour>
      <point x="484" y="1073"/>
      <point x="484" y="995" type="curve"/>
      <point x="484" y="903"/>
      <point x="419" y="851"/>
      <point x="355" y="851" type="curve" smooth="yes"/>
      <point x="289" y="851"/>
      <point x="250" y="923"/>
      <point x="250" y="998" type="curve" smooth="yes"/>
      <point x="250" y="1086"/>
      <point x="312" y="1142"/>
      <point x="378" y="1142" type="curve" smooth="yes"/>
      <point x="443" y="1142"/>
    </contour>
  </outline>
</glyph>
<glyph name="PlusMinusSgn" format="2">
  <advance width="840"/>
  <unicode hex="00B1"/>
  <outline>
    <contour>
      <point x="772" y="666"/>
      <point x="778" y="693" type="curve"/>
      <point x="754" y="717" type="line"/>
      <point x="92" y="717" type="line"/>
      <point x="80" y="691"/>
      <point x="68" y="658"/>
      <point x="61" y="631" type="curve"/>
      <point x="86" y="607" type="line"/>
      <point x="748" y="607" type="line"/>
      <point x="758" y="629"/>
    </contour>
    <contour>
      <point x="451" y="328"/>
      <point x="477" y="341" type="curve"/>
      <point x="477" y="992" type="line"/>
      <point x="453" y="1015" type="line"/>
      <point x="424" y="1008"/>
      <point x="387" y="994"/>
      <point x="362" y="986" type="curve"/>
      <point x="362" y="332" type="line"/>
      <point x="387" y="310" type="line"/>
      <point x="416" y="316"/>
    </contour>
    <contour>
      <point x="772" y="194"/>
      <point x="778" y="221" type="curve"/>
      <point x="754" y="245" type="line"/>
      <point x="92" y="245" type="line"/>
      <point x="80" y="219"/>
      <point x="68" y="186"/>
      <point x="61" y="159" type="curve"/>
      <point x="86" y="135" type="line"/>
      <point x="748" y="135" type="line"/>
      <point x="758" y="157"/>
    </contour>
  </outline>
</glyph>
<glyph name="VulgFracOneQuarter" format="2">
  <advance width="1200"/>
  <unicode hex="00BC"/>
  <outline>
    <contour>
      <point x="326" y="3" type="curve"/>
      <point x="1084" y="1207" type="line"/>
      <point x="1059" y="1235" type="line"/>
      <point x="1030" y="1229"/>
      <point x="996" y="1214"/>
      <point x="970" y="1203" type="curve"/>
      <point x="208" y="0" type="line"/>
      <point x="233" y="-30" type="line"/>
      <point x="269" y="-21"/>
      <point x="295" y="-12"/>
    </contour>
    <contour>
      <point x="1104" y="190"/>
      <point x="1120" y="210" type="curve"/>
      <point x="1105" y="226" type="line"/>
      <point x="1044" y="226" type="line"/>
      <point x="1044" y="581" type="line"/>
      <point x="1024" y="598" type="line"/>
      <point x="1001" y="588"/>
      <point x="964" y="575"/>
      <point x="933" y="563" type="curve"/>
      <point x="653" y="180" type="line"/>
      <point x="672" y="164" type="line"/>
      <point x="950" y="164" type="line"/>
      <point x="950" y="63" type="line" smooth="yes"/>
      <point x="950" y="52"/>
      <point x="937" y="42"/>
      <point x="840" y="29" type="curve"/>
      <point x="840" y="0" type="line"/>
      <point x="1114" y="0" type="line"/>
      <point x="1114" y="29" type="line"/>
      <point x="1052" y="41"/>
      <point x="1044" y="48"/>
      <point x="1044" y="58" type="curve" smooth="yes"/>
      <point x="1044" y="164" type="line"/>
      <point x="1075" y="164" type="line"/>
      <point x="1092" y="175"/>
    </contour>
    <contour>
      <point x="950" y="491" type="line"/>
      <point x="950" y="226" type="line"/>
      <point x="749" y="226" type="line"/>
    </contour>
    <contour>
      <point x="97" y="637" type="line"/>
      <point x="472" y="637" type="line"/>
      <point x="472" y="671" type="line"/>
      <point x="360" y="683"/>
      <point x="340" y="701"/>
      <point x="340" y="714" type="curve" smooth="yes"/>
      <point x="340" y="1218" type="line"/>
      <point x="320" y="1235" type="line"/>
      <point x="271" y="1211"/>
      <point x="142" y="1168"/>
      <point x="80" y="1153" type="curve"/>
      <point x="92" y="1120" type="line"/>
      <point x="190" y="1139"/>
      <point x="221" y="1135"/>
      <point x="230" y="1127" type="curve" smooth="yes"/>
      <point x="240" y="1119"/>
      <point x="240" y="1106"/>
      <point x="240" y="1080" type="curve" smooth="yes"/>
      <point x="240" y="714" type="line" smooth="yes"/>
      <point x="240" y="700"/>
      <point x="214" y="683"/>
      <point x="97" y="671" type="curve"/>
    </contour>
  </outline>
</glyph>
<glyph name="InvQstnMrk" format="2">
  <advance width="887"/>
  <unicode hex="00BF"/>
  <outline>
    <contour>
      <point x="586" y="758"/>
      <point x="586" y="848" type="curve" smooth="yes"/>
      <point x="586" y="920"/>
      <point x="555" y="960"/>
      <point x="485" y="960" type="curve" smooth="yes"/>
      <point x="408" y="960"/>
      <point x="348" y="889"/>
      <point x="348" y="799" type="curve" smooth="yes"/>
      <point x="348" y="725"/>
      <point x="379" y="684"/>
      <point x="446" y="684" type="curve" smooth="yes"/>
      <point x="522" y="684"/>
    </contour>
    <contour>
      <point x="446" y="551"/>
      <point x="424" y="530" type="curve"/>
      <point x="418" y="434" type="line"/>
      <point x="397" y="154"/>
      <point x="80" y="55"/>
      <point x="80" y="-246" type="curve" smooth="yes"/>
      <point x="80" y="-430"/>
      <point x="188" y="-559"/>
      <point x="385" y="-559" type="curve" smooth="yes"/>
      <point x="608" y="-559"/>
      <point x="807" y="-422"/>
      <point x="807" y="-233" type="curve" smooth="yes"/>
      <point x="807" y="-223"/>
      <point x="807" y="-211"/>
      <point x="805" y="-201" type="curve"/>
      <point x="778" y="-170" type="line"/>
      <point x="719" y="-174"/>
      <point x="674" y="-184"/>
      <point x="629" y="-209" type="curve"/>
      <point x="637" y="-227"/>
      <point x="643" y="-246"/>
      <point x="643" y="-266" type="curve" smooth="yes"/>
      <point x="643" y="-371"/>
      <point x="559" y="-465"/>
      <point x="463" y="-465" type="curve" smooth="yes"/>
      <point x="324" y="-465"/>
      <point x="246" y="-365"/>
      <point x="246" y="-201" type="curve" smooth="yes"/>
      <point x="246" y="-10"/>
      <point x="545" y="205"/>
      <point x="530" y="434" type="curve"/>
      <point x="524" y="551" type="line"/>
      <point x="498" y="571" type="line"/>
      <point x="463" y="561"/>
    </contour>
  </outline>
</glyph>
<glyph name="LtnCapAe" format="2">
  <advance width="1595"/>
  <unicode hex="00C6"/>
  <anchor x="854" y="-100" name="L"/>
  <anchor x="924" y="1370" name="U"/>
  <outline>
    <contour>
      <point x="1524" y="129"/>
      <point x="1536" y="244" type="curve"/>
      <point x="1491" y="262" type="line"/>
      <point x="1434" y="106"/>
      <point x="1393" y="90"/>
      <point x="1270" y="90" type="curve" smooth="yes"/>
      <point x="1141" y="90" type="line" smooth="yes"/>
      <point x="965" y="90"/>
      <point x="934" y="115"/>
      <point x="934" y="154" type="curve" smooth="yes"/>
      <point x="934" y="651" type="line"/>
      <point x="1075" y="651" type="line" smooth="yes"/>
      <point x="1188" y="651"/>
      <point x="1235" y="635"/>
      <point x="1274" y="596" type="curve"/>
      <point x="1303" y="617"/>
      <point x="1343" y="670"/>
      <point x="1366" y="707" type="curve"/>
      <point x="1339" y="735" type="line"/>
      <point x="934" y="735" type="line"/>
      <point x="934" y="1170" type="line"/>
      <point x="1300" y="1170" type="line" smooth="yes"/>
      <point x="1352" y="1170"/>
      <point x="1376" y="1133"/>
      <point x="1382" y="1010" type="curve"/>
      <point x="1427" y="1010" type="line"/>
      <point x="1446" y="1061"/>
      <point x="1464" y="1167"/>
      <point x="1468" y="1235" type="curve"/>
      <point x="1438" y="1260" type="line"/>
      <point x="1079" y="1260" type="line"/>
      <point x="911" y="1260" type="line"/>
      <point x="381" y="1260" type="line"/>
      <point x="381" y="1217" type="line"/>
      <point x="512" y="1192"/>
      <point x="590" y="1178"/>
      <point x="571" y="1133" type="curve" smooth="yes"/>
      <point x="158" y="111" type="line" smooth="yes"/>
      <point x="141" y="72"/>
      <point x="90" y="59"/>
      <point x="0" y="43" type="curve"/>
      <point x="0" y="0" type="line"/>
      <point x="416" y="0" type="line"/>
      <point x="416" y="43" type="line"/>
      <point x="307" y="55"/>
      <point x="268" y="72"/>
      <point x="285" y="111" type="curve" smooth="yes"/>
      <point x="505" y="651" type="line"/>
      <point x="774" y="651" type="line"/>
      <point x="774" y="104" type="line" smooth="yes"/>
      <point x="774" y="86"/>
      <point x="721" y="61"/>
      <point x="631" y="43" type="curve"/>
      <point x="631" y="0" type="line"/>
      <point x="1493" y="0" type="line"/>
      <point x="1503" y="39"/>
    </contour>
    <contour>
      <point x="774" y="1148" type="curve" smooth="yes"/>
      <point x="774" y="735" type="line"/>
      <point x="539" y="735" type="line"/>
      <point x="696" y="1131" type="line" smooth="yes"/>
      <point x="715" y="1177"/>
      <point x="774" y="1177"/>
    </contour>
  </outline>
</glyph>
<glyph name="LtnSmSharpS" format="2">
  <advance width="1157"/>
  <unicode hex="00DF"/>
  <anchor x="561" y="-100" name="L"/>
  <anchor x="561" y="1690" name="U"/>
  <outline>
    <contour>
      <point x="1067" y="127"/>
      <point x="1067" y="283" type="curve"/>
      <point x="1067" y="614"/>
      <point x="623" y="596"/>
      <point x="623" y="770" type="curve" smooth="yes"/>
      <point x="623" y="930"/>
      <point x="967" y="862"/>
      <point x="967" y="1190" type="curve" smooth="yes"/>
      <point x="967" y="1337"/>
      <point x="883" y="1550"/>
      <point x="653" y="1550" type="curve" smooth="yes"/>
      <point x="557" y="1550"/>
      <point x="465" y="1516"/>
      <point x="393" y="1458" type="curve" smooth="yes"/>
      <point x="289" y="1372"/>
      <point x="195" y="1282"/>
      <point x="195" y="961" type="curve" smooth="yes"/>
      <point x="195" y="102" type="line" smooth="yes"/>
      <point x="195" y="86"/>
      <point x="145" y="59"/>
      <point x="55" y="43" type="curve"/>
      <point x="55" y="0" type="line"/>
      <point x="345" y="0" type="line"/>
      <point x="345" y="1016" type="line" smooth="yes"/>
      <point x="345" y="1346"/>
      <point x="436" y="1425"/>
      <point x="565" y="1425" type="curve" smooth="yes"/>
      <point x="745" y="1425"/>
      <point x="815" y="1257"/>
      <point x="815" y="1122" type="curve" smooth="yes"/>
      <point x="815" y="930"/>
      <point x="483" y="999"/>
      <point x="483" y="729" type="curve" smooth="yes"/>
      <point x="483" y="457"/>
      <point x="937" y="494"/>
      <point x="937" y="217" type="curve" smooth="yes"/>
      <point x="937" y="129"/>
      <point x="862" y="70"/>
      <point x="768" y="70" type="curve" smooth="yes"/>
      <point x="666" y="70"/>
      <point x="541" y="127"/>
      <point x="522" y="270" type="curve"/>
      <point x="483" y="283" type="line"/>
      <point x="463" y="256"/>
      <point x="457" y="66"/>
      <point x="469" y="47" type="curve" smooth="yes"/>
      <point x="489" y="14"/>
      <point x="655" y="-30"/>
      <point x="729" y="-30" type="curve" smooth="yes"/>
      <point x="969" y="-30"/>
    </contour>
  </outline>
</glyph>
<glyph name="LtnSmOStrk" format="2">
  <advance width="1030"/>
  <unicode hex="00F8"/>
  <anchor x="535" y="0" name="H"/>
  <anchor x="525" y="-100" name="L"/>
  <anchor x="575" y="0" name="O"/>
  <anchor x="1060" y="900" name="R"/>
  <anchor x="525" y="1050" name="U"/>
  <outline>
    <contour>
      <point x="950" y="485" type="curve" smooth="yes"/>
      <point x="950" y="617"/>
      <point x="912" y="732"/>
      <point x="844" y="815" type="curve"/>
      <point x="946" y="950" type="line"/>
      <point x="915" y="983" type="line"/>
      <point x="877" y="973"/>
      <point x="829" y="936"/>
      <point x="793" y="913" type="curve"/>
      <point x="772" y="885" type="line"/>
      <point x="707" y="933"/>
      <point x="627" y="960"/>
      <point x="535" y="960" type="curve" smooth="yes"/>
      <point x="285" y="960"/>
      <point x="80" y="709"/>
      <point x="80" y="444" type="curve" smooth="yes"/>
      <point x="80" y="312"/>
      <point x="119" y="196"/>
      <point x="188" y="112" type="curve"/>
      <point x="88" y="-20" type="line"/>
      <point x="117" y="-53" type="line"/>
      <point x="150" y="-43"/>
      <point x="217" y="-2"/>
      <point x="242" y="18" type="curve"/>
      <point x="261" y="43" type="line"/>
      <point x="325" y="-4"/>
      <point x="405" y="-30"/>
      <point x="496" y="-30" type="curve" smooth="yes"/>
      <point x="739" y="-30"/>
      <point x="950" y="219"/>
    </contour>
    <contour>
      <point x="294" y="253" type="line"/>
      <point x="257" y="317"/>
      <point x="233" y="393"/>
      <point x="233" y="473" type="curve" smooth="yes"/>
      <point x="233" y="686"/>
      <point x="303" y="850"/>
      <point x="506" y="850" type="curve" smooth="yes"/>
      <point x="565" y="850"/>
      <point x="627" y="816"/>
      <point x="678" y="761" type="curve"/>
    </contour>
    <contour>
      <point x="524" y="80" type="curve" smooth="yes"/>
      <point x="471" y="80"/>
      <point x="409" y="114"/>
      <point x="357" y="170" type="curve"/>
      <point x="739" y="676" type="line"/>
      <point x="775" y="612"/>
      <point x="797" y="536"/>
      <point x="797" y="455" type="curve" smooth="yes"/>
      <point x="797" y="227"/>
      <point x="713" y="80"/>
    </contour>
  </outline>
</glyph>
<glyph name="LtnCapHStrk" format="2">
  <advance width="1339"/>
  <unicode hex="0126"/>
  <anchor x="660" y="-100" name="L"/>
  <anchor x="660" y="1370" name="U"/>
  <outline>
    <contour>
      <point x="820" y="0" type="line"/>
      <point x="1270" y="0" type="line"/>
      <point x="1270" y="43" type="line"/>
      <point x="1174" y="61"/>
      <point x="1125" y="88"/>
      <point x="1125" y="104" type="curve" smooth="yes"/>
      <point x="1125" y="1155" type="line" smooth="yes"/>
      <point x="1125" y="1174"/>
      <point x="1180" y="1198"/>
      <point x="1270" y="1217" type="curve"/>
      <point x="1270" y="1260" type="line"/>
      <point x="820" y="1260" type="line"/>
      <point x="820" y="1217" type="line"/>
      <point x="916" y="1198"/>
      <point x="965" y="1171"/>
      <point x="965" y="1155" type="curve" smooth="yes"/>
      <point x="965" y="104" type="line" smooth="yes"/>
      <point x="965" y="86"/>
      <point x="910" y="61"/>
      <point x="820" y="43" type="curve"/>
    </contour>
    <contour>
      <point x="327" y="615" type="line"/>
      <point x="985" y="615" type="line"/>
      <point x="985" y="705" type="line"/>
      <point x="327" y="705" type="line"/>
    </contour>
    <contour>
      <point x="50" y="0" type="line"/>
      <point x="500" y="0" type="line"/>
      <point x="500" y="43" type="line"/>
      <point x="403" y="61"/>
      <point x="355" y="88"/>
      <point x="355" y="104" type="curve" smooth="yes"/>
      <point x="355" y="1155" type="line" smooth="yes"/>
      <point x="355" y="1174"/>
      <point x="410" y="1198"/>
      <point x="500" y="1217" type="curve"/>
      <point x="500" y="1260" type="line"/>
      <point x="50" y="1260" type="line"/>
      <point x="50" y="1217" type="line"/>
      <point x="146" y="1198"/>
      <point x="195" y="1171"/>
      <point x="195" y="1155" type="curve" smooth="yes"/>
      <point x="195" y="104" type="line" smooth="yes"/>
      <point x="195" y="86"/>
      <point x="140" y="61"/>
      <point x="50" y="43" type="curve"/>
    </contour>
    <contour>
      <point x="1245" y="890" type="line"/>
      <point x="1270" y="957" type="line"/>
      <point x="1245" y="980" type="line"/>
      <point x="72" y="980" type="line"/>
      <point x="64" y="959"/>
      <point x="56" y="935"/>
      <point x="50" y="915" type="curve"/>
      <point x="72" y="890" type="line"/>
    </contour>
  </outline>
</glyph>
<glyph name="LtnCapLCaron" format="2">
  <advance width="975"/>
  <unicode hex="013D"/>
  <anchor x="496" y="0" name="H"/>
  <anchor x="497" y="-100" name="L"/>
  <anchor x="412" y="1370" name="U"/>
  <outline>
    <component base="LtnCapL"/>
    <contour>
      <point x="691" y="943" type="curve"/>
      <point x="755" y="1106"/>
      <point x="809" y="1258"/>
      <point x="835" y="1389" type="curve"/>
      <point x="799" y="1425" type="line"/>
      <point x="771" y="1419"/>
      <point x="690" y="1388"/>
      <point x="660" y="1371" type="curve"/>
      <point x="670" y="1271"/>
      <point x="653" y="1123"/>
      <point x="615" y="922" type="curve"/>
      <point x="646" y="924"/>
      <point x="671" y="935"/>
    </contour>
  </outline>
</glyph>
<glyph name="LtnSmLCaron" format="2">
  <advance width="685"/>
  <unicode hex="013E"/>
  <anchor x="285" y="0" name="H"/>
  <anchor x="285" y="-100" name="L"/>
  <anchor x="285" y="1690" name="U"/>
  <outline>
    <component base="LtnSmL"/>
    <contour>
      <point x="531" y="1068" type="curve"/>
      <point x="595" y="1231"/>
      <point x="649" y="1383"/>
      <point x="675" y="1514" type="curve"/>
      <point x="639" y="1550" type="line"/>
      <point x="611" y="1544"/>
      <point x="530" y="1513"/>
      <point x="500" y="1496" type="curve"/>
      <point x="510" y="1396"/>
      <point x="493" y="1248"/>
      <point x="455" y="1047" type="curve"/>
      <point x="486" y="1049"/>
      <point x="511" y="1060"/>
    </contour>
  </outline>
</glyph>
<glyph name="LtnCapEng" format="2">
  <advance width="1235"/>
  <unicode hex="014A"/>
  <anchor x="657" y="-600" name="L"/>
  <anchor x="656" y="1370" name="U"/>
  <outline>
    <contour>
      <point x="1125" y="1"/>
      <point x="1125" y="277" type="curve"/>
      <point x="1125" y="981" type="line" smooth="yes"/>
      <point x="1125" y="1231"/>
      <point x="979" y="1290"/>
      <point x="864" y="1290" type="curve" smooth="yes"/>
      <point x="721" y="1290"/>
      <point x="560" y="1210"/>
      <point x="355" y="928" type="curve"/>
      <point x="355" y="1255" type="line"/>
      <point x="320" y="1290" type="line"/>
      <point x="249" y="1253"/>
      <point x="145" y="1227"/>
      <point x="55" y="1210" type="curve"/>
      <point x="55" y="1167" type="line"/>
      <point x="190" y="1153"/>
      <point x="195" y="1135"/>
      <point x="195" y="1030" type="curve" smooth="yes"/>
      <point x="195" y="104" type="line" smooth="yes"/>
      <point x="195" y="86"/>
      <point x="139" y="61"/>
      <point x="49" y="43" type="curve"/>
      <point x="49" y="0" type="line"/>
      <point x="500" y="0" type="line"/>
      <point x="500" y="43" type="line"/>
      <point x="403" y="61"/>
      <point x="355" y="88"/>
      <point x="355" y="104" type="curve" smooth="yes"/>
      <point x="355" y="748" type="line"/>
      <point x="560" y="1073"/>
      <point x="690" y="1150"/>
      <point x="797" y="1150" type="curve" smooth="yes"/>
      <point x="897" y="1150"/>
      <point x="965" y="1090"/>
      <point x="965" y="872" type="curve" smooth="yes"/>
      <point x="965" y="224" type="line" smooth="yes"/>
      <point x="965" y="-106"/>
      <point x="830" y="-264"/>
      <point x="704" y="-264" type="curve" smooth="yes"/>
      <point x="636" y="-264"/>
      <point x="539" y="-233"/>
      <point x="467" y="-161" type="curve"/>
      <point x="428" y="-177"/>
      <point x="330" y="-249"/>
      <point x="330" y="-272" type="curve" smooth="yes"/>
      <point x="330" y="-314"/>
      <point x="462" y="-380"/>
      <point x="578" y="-380" type="curve" smooth="yes"/>
      <point x="674" y="-380"/>
      <point x="793" y="-344"/>
      <point x="866" y="-288" type="curve" smooth="yes"/>
      <point x="1001" y="-184"/>
    </contour>
  </outline>
</glyph>
<glyph name="LtnSmTCaron" format="2">
  <advance width="705"/>
  <unicode hex="0165"/>
  <anchor x="348" y="0" name="H"/>
  <anchor x="348" y="-100" name="L"/>
  <anchor x="348" y="1320" name="U"/>
  <outline>
    <component base="LtnSmT"/>
    <contour>
      <point x="501" y="1068" type="curve"/>
      <point x="565" y="1231"/>
      <point x="619" y="1383"/>
      <point x="645" y="1514" type="curve"/>
      <point x="609" y="1550" type="line"/>
      <point x="581" y="1544"/>
      <point x="500" y="1513"/>
      <point x="470" y="1496" type="curve"/>
      <point x="480" y="1396"/>
      <point x="463" y="1248"/>
      <point x="425" y="1047" type="curve"/>
      <point x="456" y="1049"/>
      <point x="481" y="1060"/>
    </contour>
  </outline>
</glyph>
<glyph name="LtnCapTStrk" format="2">
  <advance width="1128"/>
  <unicode hex="0166"/>
  <anchor x="545" y="-100" name="L"/>
  <anchor x="545" y="1370" name="U"/>
  <outline>
    <contour>
      <point x="1080" y="1167"/>
      <point x="1082" y="1235" type="curve"/>
      <point x="1052" y="1260" type="line"/>
      <point x="546" y="1260" type="line"/>
      <point x="517" y="1170" type="line"/>
      <point x="914" y="1170" type="line" smooth="yes"/>
      <point x="974" y="1170"/>
      <point x="982" y="1113"/>
      <point x="1007" y="1000" type="curve"/>
      <point x="1052" y="1000" type="line"/>
      <point x="1068" y="1084"/>
    </contour>
    <contour>
      <point x="171" y="1170" type="curve" smooth="yes"/>
      <point x="697" y="1170" type="line"/>
      <point x="669" y="1260" type="line"/>
      <point x="42" y="1260" type="line"/>
      <point x="28" y="1190"/>
      <point x="15" y="1092"/>
      <point x="9" y="1014" type="curve"/>
      <point x="52" y="995" type="line"/>
      <point x="112" y="1151"/>
      <point x="130" y="1170"/>
    </contour>
    <contour>
      <point x="306" y="0" type="line"/>
      <point x="794" y="0" type="line"/>
      <point x="794" y="43" type="line"/>
      <point x="671" y="68"/>
      <point x="630" y="98"/>
      <point x="630" y="115" type="curve" smooth="yes"/>
      <point x="630" y="1177" type="line" smooth="yes"/>
      <point x="630" y="1195"/>
      <point x="683" y="1198"/>
      <point x="773" y="1217" type="curve"/>
      <point x="773" y="1260" type="line"/>
      <point x="325" y="1260" type="line"/>
      <point x="325" y="1217" type="line"/>
      <point x="421" y="1198"/>
      <point x="470" y="1193"/>
      <point x="470" y="1177" type="curve" smooth="yes"/>
      <point x="470" y="115" type="line" smooth="yes"/>
      <point x="470" y="96"/>
      <point x="429" y="68"/>
      <point x="306" y="43" type="curve"/>
    </contour>
    <contour>
      <point x="905" y="615" type="line"/>
      <point x="930" y="683" type="line"/>
      <point x="905" y="705" type="line"/>
      <point x="192" y="705" type="line"/>
      <point x="184" y="684"/>
      <point x="176" y="660"/>
      <point x="170" y="640" type="curve"/>
      <point x="192" y="615" type="line"/>
    </contour>
  </outline>
</glyph>
<glyph name="LtnSmTStrk" format="2">
  <advance width="705"/>
  <unicode hex="0167"/>
  <anchor x="348" y="-100" name="L"/>
  <anchor x="348" y="1320" name="U"/>
  <outline>
    <contour>
      <point x="545" y="20"/>
      <point x="676" y="117" type="curve"/>
      <point x="647" y="168" type="line"/>
      <point x="543" y="115"/>
      <point x="475" y="100"/>
      <point x="428" y="100" type="curve" smooth="yes"/>
      <point x="348" y="100"/>
      <point x="320" y="147"/>
      <point x="320" y="307" type="curve" smooth="yes"/>
      <point x="320" y="834" type="line"/>
      <point x="372" y="834" type="line" smooth="yes"/>
      <point x="480" y="834"/>
      <point x="543" y="815"/>
      <point x="575" y="799" type="curve"/>
      <point x="602" y="811"/>
      <point x="651" y="864"/>
      <point x="676" y="901" type="curve"/>
      <point x="647" y="930" type="line"/>
      <point x="320" y="930" type="line"/>
      <point x="320" y="1255" type="line"/>
      <point x="289" y="1280" type="line"/>
      <point x="170" y="1176" type="line"/>
      <point x="170" y="930" type="line"/>
      <point x="98" y="930" type="line"/>
      <point x="20" y="862" type="line"/>
      <point x="41" y="834" type="line"/>
      <point x="170" y="834" type="line"/>
      <point x="170" y="221" type="line" smooth="yes"/>
      <point x="170" y="35"/>
      <point x="252" y="-30"/>
      <point x="344" y="-30" type="curve" smooth="yes"/>
      <point x="414" y="-30"/>
    </contour>
    <contour>
      <point x="510" y="415" type="line"/>
      <point x="532" y="480" type="line"/>
      <point x="510" y="505" type="line"/>
      <point x="53" y="505" type="line"/>
      <point x="42" y="484"/>
      <point x="36" y="458"/>
      <point x="30" y="437" type="curve"/>
      <point x="53" y="415" type="line"/>
    </contour>
  </outline>
</glyph>
<glyph name="LtnSmBTopbar" format="2">
  <advance width="1040"/>
  <unicode hex="0183"/>
  <anchor x="524" y="-100" name="L"/>
  <anchor x="524" y="1690" name="U"/>
  <outline>
    <contour>
      <point x="834" y="1427"/>
      <point x="838" y="1495" type="curve"/>
      <point x="807" y="1520" type="line"/>
      <point x="260" y="1520" type="line"/>
      <point x="208" y="1496"/>
      <point x="165" y="1471"/>
      <point x="100" y="1450" type="curve"/>
      <point x="112" y="1429"/>
      <point x="140" y="1302"/>
      <point x="140" y="1147" type="curve" smooth="yes"/>
      <point x="140" y="96" type="line"/>
      <point x="284" y="16"/>
      <point x="418" y="-30"/>
      <point x="469" y="-30" type="curve" smooth="yes"/>
      <point x="764" y="-30"/>
      <point x="950" y="260"/>
      <point x="950" y="492" type="curve" smooth="yes"/>
      <point x="950" y="784"/>
      <point x="819" y="960"/>
      <point x="637" y="960" type="curve" smooth="yes"/>
      <point x="561" y="960"/>
      <point x="423" y="887"/>
      <point x="290" y="727" type="curve"/>
      <point x="290" y="1193" type="line" smooth="yes"/>
      <point x="290" y="1275"/>
      <point x="289" y="1356"/>
      <point x="280" y="1430" type="curve"/>
      <point x="670" y="1430" type="line" smooth="yes"/>
      <point x="721" y="1430"/>
      <point x="731" y="1360"/>
      <point x="739" y="1190" type="curve"/>
      <point x="787" y="1190" type="line"/>
      <point x="807" y="1266"/>
    </contour>
    <contour>
      <point x="815" y="674"/>
      <point x="815" y="408" type="curve"/>
      <point x="815" y="254"/>
      <point x="729" y="100"/>
      <point x="567" y="100" type="curve" smooth="yes"/>
      <point x="520" y="100"/>
      <point x="396" y="123"/>
      <point x="290" y="203" type="curve"/>
      <point x="290" y="610" type="line"/>
      <point x="402" y="776"/>
      <point x="520" y="825"/>
      <point x="567" y="825" type="curve" smooth="yes"/>
      <point x="696" y="825"/>
    </contour>
  </outline>
</glyph>
<glyph name="LtnCapOpnO" format="2">
  <advance width="1098"/>
  <unicode hex="0186"/>
  <anchor x="508" y="-100" name="L"/>
  <anchor x="539" y="1370" name="U"/>
  <outline>
    <contour>
      <point x="190" y="-30"/>
      <point x="451" y="-30" type="curve" smooth="yes"/>
      <point x="778" y="-30"/>
      <point x="1018" y="258"/>
      <point x="1018" y="678" type="curve"/>
      <point x="1018" y="1065"/>
      <point x="764" y="1290"/>
      <point x="514" y="1290" type="curve" smooth="yes"/>
      <point x="379" y="1290"/>
      <point x="250" y="1260"/>
      <point x="70" y="1081" type="curve"/>
      <point x="76" y="1073"/>
      <point x="92" y="1042"/>
      <point x="106" y="1036" type="curve"/>
      <point x="266" y="1149"/>
      <point x="373" y="1175"/>
      <point x="444" y="1175" type="curve" smooth="yes"/>
      <point x="635" y="1175"/>
      <point x="863" y="995"/>
      <point x="863" y="641" type="curve" smooth="yes"/>
      <point x="863" y="225"/>
      <point x="684" y="85"/>
      <point x="496" y="85" type="curve" smooth="yes"/>
      <point x="338" y="85"/>
      <point x="235" y="203"/>
      <point x="235" y="299" type="curve" smooth="yes"/>
      <point x="235" y="373"/>
      <point x="250" y="412"/>
      <point x="326" y="457" type="curve"/>
      <point x="303" y="506" type="line"/>
      <point x="256" y="489"/>
      <point x="180" y="463"/>
      <point x="121" y="432" type="curve"/>
      <point x="76" y="381"/>
      <point x="61" y="330"/>
      <point x="61" y="274" type="curve" smooth="yes"/>
      <point x="61" y="137"/>
    </contour>
  </outline>
</glyph>
<glyph name="LtnSmCHook" format="2">
  <advance width="952"/>
  <unicode hex="0188"/>
  <anchor x="490" y="0" name="H"/>
  <anchor x="488" y="-100" name="L"/>
  <anchor x="948" y="900" name="R"/>
  <anchor x="488" y="1050" name="U"/>
  <outline>
    <contour>
      <point x="465" y="-30" type="curve" smooth="yes"/>
      <point x="590" y="-30"/>
      <point x="666" y="-14"/>
      <point x="840" y="190" type="curve"/>
      <point x="801" y="231" type="line"/>
      <point x="653" y="104"/>
      <point x="612" y="100"/>
      <point x="537" y="100" type="curve" smooth="yes"/>
      <point x="377" y="100"/>
      <point x="230" y="248"/>
      <point x="230" y="475" type="curve" smooth="yes"/>
      <point x="230" y="725"/>
      <point x="360" y="850"/>
      <point x="500" y="850" type="curve" smooth="yes"/>
      <point x="637" y="850"/>
      <point x="709" y="774"/>
      <point x="731" y="727" type="curve"/>
      <point x="768" y="717" type="line"/>
      <point x="793" y="754"/>
      <point x="831" y="848"/>
      <point x="825" y="881" type="curve"/>
      <point x="780" y="928"/>
      <point x="678" y="960"/>
      <point x="590" y="960" type="curve" smooth="yes"/>
      <point x="303" y="960"/>
      <point x="80" y="731"/>
      <point x="80" y="444" type="curve" smooth="yes"/>
      <point x="80" y="147"/>
      <point x="270" y="-30"/>
    </contour>
    <contour>
      <point x="775" y="860" type="curve"/>
      <point x="775" y="1012" type="line" smooth="yes"/>
      <point x="775" y="1174"/>
      <point x="787" y="1231"/>
      <point x="851" y="1231" type="curve" smooth="yes"/>
      <point x="888" y="1231"/>
      <point x="916" y="1221"/>
      <point x="985" y="1151" type="curve"/>
      <point x="1024" y="1169"/>
      <point x="1112" y="1231"/>
      <point x="1112" y="1253" type="curve"/>
      <point x="1112" y="1278"/>
      <point x="1013" y="1356"/>
      <point x="934" y="1356" type="curve" smooth="yes"/>
      <point x="882" y="1356"/>
      <point x="805" y="1338"/>
      <point x="728" y="1259" type="curve" smooth="yes"/>
      <point x="665" y="1194"/>
      <point x="655" y="1094"/>
      <point x="655" y="967" type="curve" smooth="yes"/>
      <point x="655" y="888" type="line"/>
      <point x="684" y="879"/>
      <point x="748" y="865"/>
    </contour>
  </outline>
</glyph>
<glyph name="LtnCapRevE" format="2">
  <advance width="1016"/>
  <unicode hex="018E"/>
  <anchor x="509" y="-100" name="L"/>
  <anchor x="509" y="1370" name="U"/>
  <outline>
    <contour>
      <point x="65" y="25" type="curve"/>
      <point x="98" y="0" type="line"/>
      <point x="954" y="0" type="line"/>
      <point x="954" y="43" type="line"/>
      <point x="858" y="62"/>
      <point x="809" y="89"/>
      <point x="809" y="105" type="curve" smooth="yes"/>
      <point x="809" y="1156" type="line" smooth="yes"/>
      <point x="809" y="1174"/>
      <point x="864" y="1199"/>
      <point x="954" y="1217" type="curve"/>
      <point x="954" y="1260" type="line"/>
      <point x="181" y="1260" type="line"/>
      <point x="170" y="1221"/>
      <point x="150" y="1131"/>
      <point x="140" y="1016" type="curve"/>
      <point x="183" y="998" type="line"/>
      <point x="240" y="1154"/>
      <point x="283" y="1170"/>
      <point x="406" y="1170" type="curve" smooth="yes"/>
      <point x="649" y="1170" type="line"/>
      <point x="649" y="739" type="line"/>
      <point x="508" y="739" type="line" smooth="yes"/>
      <point x="396" y="739"/>
      <point x="351" y="735"/>
      <point x="310" y="774" type="curve"/>
      <point x="281" y="753"/>
      <point x="240" y="700"/>
      <point x="218" y="663" type="curve"/>
      <point x="244" y="635" type="line"/>
      <point x="287" y="646"/>
      <point x="377" y="655"/>
      <point x="439" y="655" type="curve" smooth="yes"/>
      <point x="649" y="655" type="line"/>
      <point x="649" y="163" type="line" smooth="yes"/>
      <point x="649" y="110"/>
      <point x="620" y="90"/>
      <point x="448" y="90" type="curve" smooth="yes"/>
      <point x="233" y="90" type="line" smooth="yes"/>
      <point x="184" y="90"/>
      <point x="167" y="194"/>
      <point x="161" y="317" type="curve"/>
      <point x="116" y="317" type="line"/>
      <point x="100" y="266"/>
      <point x="69" y="93"/>
    </contour>
  </outline>
</glyph>
<glyph name="LtnCapFHook" format="2">
  <advance width="979"/>
  <unicode hex="0191"/>
  <anchor x="586" y="-100" name="L"/>
  <anchor x="326" y="1370" name="U"/>
  <outline>
    <contour>
      <point x="355" y="-116"/>
      <point x="355" y="178" type="curve"/>
      <point x="355" y="651" type="line"/>
      <point x="467" y="651" type="line" smooth="yes"/>
      <point x="578" y="651"/>
      <point x="625" y="635"/>
      <point x="664" y="596" type="curve"/>
      <point x="692" y="617"/>
      <point x="733" y="670"/>
      <point x="758" y="707" type="curve"/>
      <point x="729" y="735" type="line"/>
      <point x="355" y="735" type="line"/>
      <point x="355" y="1170" type="line"/>
      <point x="729" y="1170" type="line" smooth="yes"/>
      <point x="780" y="1170"/>
      <point x="807" y="1133"/>
      <point x="811" y="1010" type="curve"/>
      <point x="858" y="1010" type="line"/>
      <point x="874" y="1061"/>
      <point x="895" y="1167"/>
      <point x="897" y="1235" type="curve"/>
      <point x="866" y="1260" type="line"/>
      <point x="50" y="1260" type="line"/>
      <point x="50" y="1217" type="line"/>
      <point x="146" y="1198"/>
      <point x="195" y="1171"/>
      <point x="195" y="1155" type="curve" smooth="yes"/>
      <point x="195" y="104" type="line" smooth="yes"/>
      <point x="195" y="-184"/>
      <point x="97" y="-257"/>
      <point x="29" y="-257" type="curve" smooth="yes"/>
      <point x="-22" y="-257"/>
      <point x="-55" y="-249"/>
      <point x="-129" y="-200" type="curve"/>
      <point x="-166" y="-214"/>
      <point x="-245" y="-278"/>
      <point x="-245" y="-300" type="curve" smooth="yes"/>
      <point x="-245" y="-323"/>
      <point x="-161" y="-380"/>
      <point x="-80" y="-380" type="curve" smooth="yes"/>
      <point x="-28" y="-380"/>
      <point x="84" y="-345"/>
      <point x="156" y="-288" type="curve"/>
      <point x="257" y="-204"/>
    </contour>
  </outline>
</glyph>
<glyph name="LtnSmFHook" format="2">
  <advance width="592"/>
  <unicode hex="0192"/>
  <anchor x="271" y="-600" name="L"/>
  <anchor x="271" y="1690" name="U"/>
  <outline>
    <contour>
      <point x="793" y="1432"/>
      <point x="793" y="1454" type="curve"/>
      <point x="793" y="1477"/>
      <point x="684" y="1550"/>
      <point x="602" y="1550" type="curve" smooth="yes"/>
      <point x="551" y="1550"/>
      <point x="446" y="1516"/>
      <point x="375" y="1458" type="curve" smooth="yes"/>
      <point x="268" y="1372"/>
      <point x="174" y="1276"/>
      <point x="174" y="961" type="curve" smooth="yes"/>
      <point x="174" y="930" type="line"/>
      <point x="98" y="930" type="line"/>
      <point x="20" y="864" type="line"/>
      <point x="41" y="836" type="line"/>
      <point x="174" y="836" type="line"/>
      <point x="174" y="45" type="line" smooth="yes"/>
      <point x="174" y="-285"/>
      <point x="88" y="-365"/>
      <point x="14" y="-365" type="curve" smooth="yes"/>
      <point x="-37" y="-365"/>
      <point x="-70" y="-361"/>
      <point x="-124" y="-320" type="curve"/>
      <point x="-163" y="-338"/>
      <point x="-250" y="-409"/>
      <point x="-250" y="-431" type="curve" smooth="yes"/>
      <point x="-250" y="-450"/>
      <point x="-168" y="-500"/>
      <point x="-88" y="-500" type="curve" smooth="yes"/>
      <point x="-37" y="-500"/>
      <point x="53" y="-464"/>
      <point x="127" y="-407" type="curve" smooth="yes"/>
      <point x="235" y="-324"/>
      <point x="326" y="-215"/>
      <point x="326" y="98" type="curve" smooth="yes"/>
      <point x="326" y="836" type="line"/>
      <point x="430" y="836"/>
      <point x="481" y="817"/>
      <point x="512" y="801" type="curve"/>
      <point x="539" y="813"/>
      <point x="588" y="864"/>
      <point x="612" y="901" type="curve"/>
      <point x="584" y="930" type="line"/>
      <point x="326" y="930" type="line"/>
      <point x="326" y="1016" type="line" smooth="yes"/>
      <point x="326" y="1346"/>
      <point x="426" y="1427"/>
      <point x="496" y="1427" type="curve" smooth="yes"/>
      <point x="528" y="1427"/>
      <point x="600" y="1399"/>
      <point x="666" y="1343" type="curve"/>
      <point x="705" y="1362"/>
    </contour>
  </outline>
</glyph>
<glyph name="LtnSmHv" format="2">
  <advance width="1635"/>
  <unicode hex="0195"/>
  <anchor x="805" y="-100" name="L"/>
  <anchor x="805" y="1690" name="U"/>
  <outline>
    <contour>
      <point x="810" y="454" type="line"/>
      <point x="960" y="454" type="line"/>
      <point x="960" y="741" type="line" smooth="yes"/>
      <point x="960" y="891"/>
      <point x="854" y="960"/>
      <point x="739" y="960" type="curve" smooth="yes"/>
      <point x="635" y="960"/>
      <point x="460" y="854"/>
      <point x="345" y="684" type="curve"/>
      <point x="345" y="1516" type="line"/>
      <point x="308" y="1550" type="line"/>
      <point x="232" y="1511"/>
      <point x="168" y="1491"/>
      <point x="55" y="1470" type="curve"/>
      <point x="55" y="1430" type="line"/>
      <point x="184" y="1415"/>
      <point x="195" y="1409"/>
      <point x="195" y="1298" type="curve" smooth="yes"/>
      <point x="195" y="104" type="line" smooth="yes"/>
      <point x="195" y="82"/>
      <point x="143" y="66"/>
      <point x="55" y="43" type="curve"/>
      <point x="55" y="0" type="line"/>
      <point x="485" y="0" type="line"/>
      <point x="485" y="43" type="line"/>
      <point x="399" y="61"/>
      <point x="345" y="84"/>
      <point x="345" y="104" type="curve" smooth="yes"/>
      <point x="345" y="549" type="line"/>
      <point x="460" y="735"/>
      <point x="590" y="830"/>
      <point x="682" y="830" type="curve" smooth="yes"/>
      <point x="770" y="830"/>
      <point x="810" y="795"/>
      <point x="810" y="633" type="curve" smooth="yes"/>
    </contour>
    <contour>
      <point x="1555" y="225"/>
      <point x="1555" y="504" type="curve"/>
      <point x="1555" y="770"/>
      <point x="1445" y="922"/>
      <point x="1330" y="960" type="curve"/>
      <point x="1285" y="946"/>
      <point x="1179" y="917"/>
      <point x="1136" y="897" type="curve"/>
      <point x="1152" y="856" type="line"/>
      <point x="1330" y="850"/>
      <point x="1405" y="657"/>
      <point x="1405" y="451" type="curve" smooth="yes"/>
      <point x="1405" y="279"/>
      <point x="1338" y="90"/>
      <point x="1144" y="90" type="curve" smooth="yes"/>
      <point x="1046" y="90"/>
      <point x="960" y="158"/>
      <point x="960" y="342" type="curve" smooth="yes"/>
      <point x="960" y="691" type="line"/>
      <point x="850" y="599"/>
      <point x="810" y="648"/>
      <point x="810" y="521" type="curve" smooth="yes"/>
      <point x="810" y="289" type="line" smooth="yes"/>
      <point x="810" y="39"/>
      <point x="945" y="-30"/>
      <point x="1097" y="-30" type="curve" smooth="yes"/>
      <point x="1330" y="-30"/>
    </contour>
  </outline>
</glyph>
<glyph name="LtnSmLambdaStrk" format="2">
  <advance width="1093"/>
  <unicode hex="019B"/>
  <anchor x="546" y="-100" name="L"/>
  <anchor x="730" y="1370" name="U"/>
  <outline>
    <contour>
      <point x="171" y="131" type="line" smooth="yes"/>
      <point x="155" y="95"/>
      <point x="109" y="54"/>
      <point x="20" y="43" type="curve"/>
      <point x="20" y="0" type="line"/>
      <point x="403" y="0" type="line"/>
      <point x="403" y="43" type="line"/>
      <point x="348" y="51"/>
      <point x="257" y="67"/>
      <point x="285" y="131" type="curve" smooth="yes"/>
      <point x="591" y="819" type="line"/>
      <point x="579" y="855"/>
      <point x="563" y="898"/>
      <point x="539" y="938" type="curve"/>
    </contour>
    <contour>
      <point x="857" y="-30" type="curve" smooth="yes"/>
      <point x="902" y="-30"/>
      <point x="983" y="6"/>
      <point x="1083" y="82" type="curve"/>
      <point x="1073" y="127" type="line"/>
      <point x="1007" y="102"/>
      <point x="980" y="100"/>
      <point x="948" y="100" type="curve" smooth="yes"/>
      <point x="876" y="100"/>
      <point x="812" y="363"/>
      <point x="714" y="758" type="curve" smooth="yes"/>
      <point x="551" y="1413"/>
      <point x="520" y="1450"/>
      <point x="421" y="1450" type="curve" smooth="yes"/>
      <point x="376" y="1450"/>
      <point x="297" y="1426"/>
      <point x="123" y="1300" type="curve"/>
      <point x="147" y="1249" type="line"/>
      <point x="227" y="1291"/>
      <point x="297" y="1310"/>
      <point x="334" y="1310" type="curve" smooth="yes"/>
      <point x="386" y="1310"/>
      <point x="438" y="1267"/>
      <point x="571" y="723" type="curve" smooth="yes"/>
      <point x="729" y="75"/>
      <point x="759" y="-30"/>
    </contour>
    <contour>
      <point x="893" y="1208" type="line"/>
      <point x="915" y="1251"/>
      <point x="913" y="1249"/>
      <point x="925" y="1293" type="curve"/>
      <point x="900" y="1320" type="line"/>
      <point x="202" y="938" type="line"/>
      <point x="175" y="883"/>
      <point x="180" y="885"/>
      <point x="171" y="852" type="curve"/>
      <point x="198" y="823" type="line"/>
    </contour>
  </outline>
</glyph>
<glyph name="LtnCapNLftHook" format="2">
  <advance width="1329"/>
  <unicode hex="019D"/>
  <anchor x="665" y="-600" name="L"/>
  <anchor x="665" y="1370" name="U"/>
  <outline>
    <contour>
      <point x="1184" y="1204"/>
      <point x="1280" y="1217" type="curve"/>
      <point x="1280" y="1260" type="line"/>
      <point x="870" y="1260" type="line"/>
      <point x="870" y="1217" type="line"/>
      <point x="977" y="1202"/>
      <point x="1015" y="1171"/>
      <point x="1015" y="1155" type="curve" smooth="yes"/>
      <point x="1015" y="71" type="line"/>
      <point x="1135" y="32" type="line"/>
      <point x="1135" y="1155" type="line" smooth="yes"/>
      <point x="1135" y="1174"/>
    </contour>
    <contour>
      <point x="1069" y="-22"/>
      <point x="1135" y="-30" type="curve"/>
      <point x="1135" y="120" type="line"/>
      <point x="1135" y="120"/>
      <point x="1045" y="234"/>
      <point x="1017" y="273" type="curve" smooth="yes"/>
      <point x="358" y="1182" type="line" smooth="yes"/>
      <point x="307" y="1251"/>
      <point x="301" y="1260"/>
      <point x="262" y="1260" type="curve" smooth="yes"/>
      <point x="50" y="1260" type="line"/>
      <point x="50" y="1217" type="line"/>
      <point x="120" y="1206"/>
      <point x="182" y="1176"/>
      <point x="238" y="1100" type="curve" smooth="yes"/>
      <point x="1016" y="21" type="line" smooth="yes"/>
      <point x="1032" y="-1"/>
    </contour>
    <contour>
      <point x="315" y="1155" type="line"/>
      <point x="195" y="1155" type="line"/>
      <point x="195" y="133" type="line" smooth="yes"/>
      <point x="195" y="-180"/>
      <point x="99" y="-257"/>
      <point x="29" y="-257" type="curve" smooth="yes"/>
      <point x="-22" y="-257"/>
      <point x="-55" y="-249"/>
      <point x="-129" y="-200" type="curve"/>
      <point x="-166" y="-214"/>
      <point x="-245" y="-278"/>
      <point x="-245" y="-300" type="curve" smooth="yes"/>
      <point x="-245" y="-323"/>
      <point x="-161" y="-380"/>
      <point x="-80" y="-380" type="curve" smooth="yes"/>
      <point x="-28" y="-380"/>
      <point x="84" y="-345"/>
      <point x="156" y="-288" type="curve" smooth="yes"/>
      <point x="260" y="-202"/>
      <point x="315" y="-111"/>
      <point x="315" y="205" type="curve" smooth="yes"/>
    </contour>
  </outline>
</glyph>
<glyph name="LtnCapOi" format="2">
  <advance width="1644"/>
  <unicode hex="01A2"/>
  <anchor x="776" y="-100" name="L"/>
  <anchor x="927" y="1370" name="U"/>
  <outline>
    <contour>
      <point x="990" y="1079" type="line"/>
      <point x="1064" y="1100"/>
      <point x="1134" y="1112"/>
      <point x="1174" y="1112" type="curve" smooth="yes"/>
      <point x="1268" y="1112"/>
      <point x="1270" y="1094"/>
      <point x="1270" y="940" type="curve" smooth="yes"/>
      <point x="1270" y="-246" type="line" smooth="yes"/>
      <point x="1270" y="-264"/>
      <point x="1185" y="-292"/>
      <point x="1095" y="-307" type="curve"/>
      <point x="1095" y="-350" type="line"/>
      <point x="1575" y="-350" type="line"/>
      <point x="1575" y="-307" type="line"/>
      <point x="1479" y="-289"/>
      <point x="1430" y="-262"/>
      <point x="1430" y="-246" type="curve" smooth="yes"/>
      <point x="1430" y="1255" type="line"/>
      <point x="1390" y="1290" type="line"/>
      <point x="1250" y="1231"/>
      <point x="1082" y="1179"/>
      <point x="969" y="1150" type="curve"/>
    </contour>
    <contour>
      <point x="614" y="1165" type="curve" smooth="yes"/>
      <point x="713" y="1165"/>
      <point x="806" y="1127"/>
      <point x="878" y="1054" type="curve"/>
      <point x="878" y="270" type="line"/>
      <point x="840" y="212"/>
      <point x="705" y="100"/>
      <point x="594" y="100" type="curve" smooth="yes"/>
      <point x="409" y="100"/>
      <point x="225" y="342"/>
      <point x="225" y="641" type="curve" smooth="yes"/>
      <point x="225" y="967"/>
      <point x="377" y="1165"/>
    </contour>
    <contour>
      <point x="1038" y="1117" type="line"/>
      <point x="908" y="1230"/>
      <point x="794" y="1290"/>
      <point x="643" y="1290" type="curve" smooth="yes"/>
      <point x="329" y="1290"/>
      <point x="70" y="965"/>
      <point x="70" y="592" type="curve" smooth="yes"/>
      <point x="70" y="266"/>
      <point x="274" y="-30"/>
      <point x="565" y="-30" type="curve" smooth="yes"/>
      <point x="729" y="-30"/>
      <point x="840" y="40"/>
      <point x="1038" y="248" type="curve"/>
    </contour>
  </outline>
</glyph>
<glyph name="LtnSmOi" format="2">
  <advance width="1350"/>
  <unicode hex="01A3"/>
  <anchor x="566" y="-100" name="L"/>
  <anchor x="750" y="1050" name="U"/>
  <outline>
    <contour>
      <point x="426" y="-30" type="curve" smooth="yes"/>
      <point x="574" y="-30"/>
      <point x="711" y="69"/>
      <point x="846" y="226" type="curve"/>
      <point x="846" y="800" type="line"/>
      <point x="757" y="899"/>
      <point x="651" y="960"/>
      <point x="551" y="960" type="curve" smooth="yes"/>
      <point x="500" y="960"/>
      <point x="419" y="936"/>
      <point x="344" y="895" type="curve" smooth="yes"/>
      <point x="249" y="843"/>
      <point x="80" y="678"/>
      <point x="80" y="444" type="curve" smooth="yes"/>
      <point x="80" y="147"/>
      <point x="278" y="-30"/>
    </contour>
    <contour>
      <point x="520" y="850" type="curve" smooth="yes"/>
      <point x="607" y="850"/>
      <point x="668" y="816"/>
      <point x="706" y="770" type="curve"/>
      <point x="706" y="234" type="line"/>
      <point x="663" y="172"/>
      <point x="552" y="100"/>
      <point x="487" y="100" type="curve" smooth="yes"/>
      <point x="377" y="100"/>
      <point x="230" y="248"/>
      <point x="230" y="475" type="curve" smooth="yes"/>
      <point x="230" y="725"/>
      <point x="371" y="850"/>
    </contour>
    <contour>
      <point x="870" y="-480" type="line"/>
      <point x="1329" y="-480" type="line"/>
      <point x="1329" y="-437" type="line"/>
      <point x="1226" y="-418"/>
      <point x="1190" y="-395"/>
      <point x="1190" y="-375" type="curve" smooth="yes"/>
      <point x="1190" y="925" type="line"/>
      <point x="1153" y="960" type="line"/>
      <point x="1065" y="913"/>
      <point x="871" y="830"/>
      <point x="730" y="810" type="curve"/>
      <point x="741" y="725" type="line"/>
      <point x="814" y="744"/>
      <point x="910" y="767"/>
      <point x="955" y="767" type="curve" smooth="yes"/>
      <point x="1026" y="767"/>
      <point x="1040" y="721"/>
      <point x="1040" y="573" type="curve" smooth="yes"/>
      <point x="1040" y="-375" type="line" smooth="yes"/>
      <point x="1040" y="-398"/>
      <point x="995" y="-418"/>
      <point x="870" y="-437" type="curve"/>
    </contour>
  </outline>
</glyph>
<glyph name="LtnSmPHook" format="2">
  <advance width="1030"/>
  <unicode hex="01A5"/>
  <anchor x="679" y="-100" name="L"/>
  <anchor x="496" y="1440" name="U"/>
  <outline>
    <contour>
      <point x="950" y="492" type="curve" smooth="yes"/>
      <point x="950" y="784"/>
      <point x="817" y="960"/>
      <point x="635" y="960" type="curve" smooth="yes"/>
      <point x="559" y="960"/>
      <point x="423" y="894"/>
      <point x="290" y="734" type="curve"/>
      <point x="290" y="936" type="line"/>
      <point x="290" y="1117"/>
      <point x="356" y="1225"/>
      <point x="442" y="1225" type="curve" smooth="yes"/>
      <point x="520" y="1225"/>
      <point x="582" y="1190"/>
      <point x="637" y="1121" type="curve"/>
      <point x="676" y="1139"/>
      <point x="764" y="1209"/>
      <point x="764" y="1231" type="curve" smooth="yes"/>
      <point x="764" y="1256"/>
      <point x="667" y="1350"/>
      <point x="548" y="1350" type="curve" smooth="yes"/>
      <point x="497" y="1350"/>
      <point x="381" y="1316"/>
      <point x="309" y="1258" type="curve" smooth="yes"/>
      <point x="168" y="1145"/>
      <point x="140" y="1008"/>
      <point x="140" y="898" type="curve" smooth="yes"/>
      <point x="140" y="-375" type="line" smooth="yes"/>
      <point x="140" y="-398"/>
      <point x="88" y="-416"/>
      <point x="0" y="-437" type="curve"/>
      <point x="0" y="-480" type="line"/>
      <point x="459" y="-480" type="line"/>
      <point x="459" y="-437" type="line"/>
      <point x="334" y="-418"/>
      <point x="290" y="-396"/>
      <point x="290" y="-375" type="curve" smooth="yes"/>
      <point x="290" y="98" type="line"/>
      <point x="384" y="16"/>
      <point x="490" y="-30"/>
      <point x="568" y="-30" type="curve" smooth="yes"/>
      <point x="763" y="-30"/>
      <point x="950" y="260"/>
    </contour>
    <contour>
      <point x="815" y="426" type="curve"/>
      <point x="815" y="213"/>
      <point x="709" y="100"/>
      <point x="566" y="100" type="curve" smooth="yes"/>
      <point x="494" y="100"/>
      <point x="409" y="123"/>
      <point x="290" y="213" type="curve"/>
      <point x="290" y="610" type="line"/>
      <point x="407" y="782"/>
      <point x="520" y="835"/>
      <point x="568" y="835" type="curve" smooth="yes"/>
      <point x="697" y="835"/>
      <point x="815" y="659"/>
    </contour>
  </outline>
</glyph>
<glyph name="LtnYr" format="2">
  <advance width="1123"/>
  <unicode hex="01A6"/>
  <anchor x="492" y="-100" name="L"/>
  <anchor x="552" y="1370" name="U"/>
  <outline>
    <contour>
      <point x="259" y="1005" type="curve"/>
      <point x="255" y="926" type="line"/>
      <point x="317" y="932"/>
      <point x="375" y="936"/>
      <point x="432" y="936" type="curve" smooth="yes"/>
      <point x="710" y="936"/>
      <point x="790" y="827"/>
      <point x="792" y="726" type="curve" smooth="yes"/>
      <point x="795" y="590"/>
      <point x="684" y="504"/>
      <point x="444" y="504" type="curve" smooth="yes"/>
      <point x="410" y="504"/>
      <point x="384" y="506"/>
      <point x="337" y="514" type="curve"/>
      <point x="343" y="432" type="line"/>
      <point x="384" y="422"/>
      <point x="424" y="418"/>
      <point x="461" y="418" type="curve" smooth="yes"/>
      <point x="749" y="418"/>
      <point x="946" y="541"/>
      <point x="946" y="757" type="curve" smooth="yes"/>
      <point x="946" y="889"/>
      <point x="818" y="1020"/>
      <point x="469" y="1020" type="curve" smooth="yes"/>
      <point x="390" y="1020"/>
      <point x="322" y="1014"/>
    </contour>
    <contour>
      <point x="1085" y="-225"/>
      <point x="1173" y="-196" type="curve"/>
      <point x="1162" y="-153" type="line"/>
      <point x="1072" y="-161"/>
      <point x="1023" y="-151"/>
      <point x="982" y="-94" type="curve"/>
      <point x="573" y="508" type="line"/>
      <point x="469" y="442" type="line"/>
      <point x="851" y="-192" type="line"/>
      <point x="870" y="-221"/>
      <point x="911" y="-247"/>
      <point x="949" y="-247" type="curve" smooth="yes"/>
      <point x="1001" y="-247"/>
    </contour>
    <contour>
      <point x="50" y="0" type="line"/>
      <point x="500" y="0" type="line"/>
      <point x="500" y="43" type="line"/>
      <point x="404" y="61"/>
      <point x="355" y="88"/>
      <point x="355" y="104" type="curve" smooth="yes"/>
      <point x="355" y="1155" type="line" smooth="yes"/>
      <point x="355" y="1174"/>
      <point x="410" y="1198"/>
      <point x="500" y="1217" type="curve"/>
      <point x="500" y="1260" type="line"/>
      <point x="50" y="1260" type="line"/>
      <point x="50" y="1217" type="line"/>
      <point x="146" y="1198"/>
      <point x="195" y="1171"/>
      <point x="195" y="1155" type="curve" smooth="yes"/>
      <point x="195" y="104" type="line" smooth="yes"/>
      <point x="195" y="86"/>
      <point x="140" y="61"/>
      <point x="50" y="43" type="curve"/>
    </contour>
  </outline>
</glyph>
<glyph name="LtnRevEshLoop" format="2">
  <advance width="706"/>
  <unicode hex="01AA"/>
  <anchor x="504" y="-600" name="L"/>
  <anchor x="504" y="1690" name="U"/>
  <outline>
    <contour>
      <point x="30" y="1399"/>
      <point x="30" y="1282" type="curve" smooth="yes"/>
      <point x="30" y="1175"/>
      <point x="98" y="1092"/>
      <point x="213" y="1092" type="curve"/>
      <point x="306" y="1093"/>
      <point x="400" y="1144"/>
      <point x="471" y="1273" type="curve"/>
      <point x="427" y="1335" type="line"/>
      <point x="419" y="1327"/>
      <point x="369" y="1213"/>
      <point x="269" y="1213" type="curve" smooth="yes"/>
      <point x="211" y="1213"/>
      <point x="155" y="1262"/>
      <point x="155" y="1334" type="curve" smooth="yes"/>
      <point x="155" y="1396"/>
      <point x="205" y="1455"/>
      <point x="263" y="1455" type="curve" smooth="yes"/>
      <point x="359" y="1455"/>
      <point x="410" y="1349"/>
      <point x="410" y="1146" type="curve" smooth="yes"/>
      <point x="410" y="793"/>
      <point x="365" y="356"/>
      <point x="365" y="-40" type="curve" smooth="yes"/>
      <point x="365" y="-324"/>
      <point x="451" y="-500"/>
      <point x="633" y="-500" type="curve" smooth="yes"/>
      <point x="818" y="-500"/>
      <point x="986" y="-336"/>
      <point x="978" y="-235" type="curve"/>
      <point x="959" y="-196" type="line"/>
      <point x="918" y="-190"/>
      <point x="785" y="-252"/>
      <point x="793" y="-264" type="curve" smooth="yes"/>
      <point x="828" y="-321"/>
      <point x="775" y="-405"/>
      <point x="697" y="-405" type="curve" smooth="yes"/>
      <point x="591" y="-405"/>
      <point x="525" y="-299"/>
      <point x="525" y="21" type="curve" smooth="yes"/>
      <point x="525" y="355"/>
      <point x="570" y="802"/>
      <point x="570" y="1207" type="curve" smooth="yes"/>
      <point x="570" y="1381"/>
      <point x="499" y="1550"/>
      <point x="337" y="1550" type="curve" smooth="yes"/>
      <point x="162" y="1550"/>
    </contour>
  </outline>
</glyph>
<glyph name="LtnSmTHook" format="2">
  <advance width="705"/>
  <unicode hex="01AD"/>
  <anchor x="396" y="-100" name="L"/>
  <anchor x="416" y="1490" name="U"/>
  <outline>
    <contour>
      <point x="344" y="-30" type="curve" smooth="yes"/>
      <point x="414" y="-30"/>
      <point x="545" y="20"/>
      <point x="676" y="117" type="curve"/>
      <point x="647" y="168" type="line"/>
      <point x="543" y="115"/>
      <point x="475" y="100"/>
      <point x="428" y="100" type="curve" smooth="yes"/>
      <point x="348" y="100"/>
      <point x="320" y="147"/>
      <point x="320" y="307" type="curve" smooth="yes"/>
      <point x="320" y="834" type="line"/>
      <point x="372" y="834" type="line" smooth="yes"/>
      <point x="480" y="834"/>
      <point x="543" y="815"/>
      <point x="575" y="799" type="curve"/>
      <point x="602" y="811"/>
      <point x="651" y="864"/>
      <point x="676" y="901" type="curve"/>
      <point x="647" y="930" type="line"/>
      <point x="320" y="930" type="line"/>
      <point x="320" y="1012" type="line" smooth="yes"/>
      <point x="320" y="1174"/>
      <point x="332" y="1231"/>
      <point x="396" y="1231" type="curve" smooth="yes"/>
      <point x="433" y="1231"/>
      <point x="461" y="1221"/>
      <point x="530" y="1151" type="curve"/>
      <point x="569" y="1169"/>
      <point x="657" y="1231"/>
      <point x="657" y="1253" type="curve" smooth="yes"/>
      <point x="657" y="1278"/>
      <point x="558" y="1356"/>
      <point x="479" y="1356" type="curve" smooth="yes"/>
      <point x="427" y="1356"/>
      <point x="351" y="1339"/>
      <point x="273" y="1259" type="curve" smooth="yes"/>
      <point x="184" y="1167"/>
      <point x="170" y="1098"/>
      <point x="170" y="976" type="curve" smooth="yes"/>
      <point x="170" y="930" type="line"/>
      <point x="98" y="930" type="line"/>
      <point x="20" y="862" type="line"/>
      <point x="41" y="834" type="line"/>
      <point x="170" y="834" type="line"/>
      <point x="170" y="221" type="line" smooth="yes"/>
      <point x="170" y="35"/>
      <point x="252" y="-30"/>
    </contour>
  </outline>
</glyph>
<glyph name="LtnCapYHook.RtHook" format="2">
  <advance width="1407"/>
  <unicode hex="01B3"/>
  <anchor x="604" y="-100" name="L"/>
  <anchor x="650" y="0" name="O"/>
  <anchor x="636" y="1370" name="U"/>
  <outline>
    <contour>
      <point x="360" y="0" type="line"/>
      <point x="850" y="0" type="line"/>
      <point x="850" y="43" type="line"/>
      <point x="725" y="68"/>
      <point x="684" y="98"/>
      <point x="684" y="115" type="curve" smooth="yes"/>
      <point x="684" y="541" type="line"/>
      <point x="1009" y="1175" type="line" smooth="yes"/>
      <point x="1043" y="1242"/>
      <point x="1082" y="1281"/>
      <point x="1133" y="1281" type="curve" smooth="yes"/>
      <point x="1199" y="1281"/>
      <point x="1232" y="1223"/>
      <point x="1232" y="1157" type="curve" smooth="yes"/>
      <point x="1232" y="1109"/>
      <point x="1217" y="1081"/>
      <point x="1198" y="1045" type="curve"/>
      <point x="1216" y="1016" type="line"/>
      <point x="1256" y="1027"/>
      <point x="1381" y="1069"/>
      <point x="1395" y="1103" type="curve" smooth="yes"/>
      <point x="1401" y="1119"/>
      <point x="1407" y="1155"/>
      <point x="1407" y="1181" type="curve" smooth="yes"/>
      <point x="1407" y="1298"/>
      <point x="1331" y="1400"/>
      <point x="1186" y="1400" type="curve" smooth="yes"/>
      <point x="1037" y="1400"/>
      <point x="939" y="1296"/>
      <point x="870" y="1162" type="curve" smooth="yes"/>
      <point x="623" y="680" type="line"/>
      <point x="530" y="872"/>
      <point x="397" y="1102"/>
      <point x="297" y="1231" type="curve" smooth="yes"/>
      <point x="276" y="1257"/>
      <point x="248" y="1270"/>
      <point x="219" y="1270" type="curve" smooth="yes"/>
      <point x="164" y="1270"/>
      <point x="78" y="1260"/>
      <point x="0" y="1249" type="curve"/>
      <point x="4" y="1206" type="line"/>
      <point x="115" y="1206"/>
      <point x="143" y="1180"/>
      <point x="168" y="1151" type="curve"/>
      <point x="261" y="1023"/>
      <point x="426" y="753"/>
      <point x="524" y="537" type="curve"/>
      <point x="524" y="115" type="line" smooth="yes"/>
      <point x="524" y="96"/>
      <point x="481" y="68"/>
      <point x="360" y="43" type="curve"/>
    </contour>
  </outline>
</glyph>
<glyph name="LtnSmYHook.RtHook" format="2">
  <advance width="1218"/>
  <unicode hex="01B4"/>
  <anchor x="770" y="-100" name="L"/>
  <anchor x="260" y="-400" name="O"/>
  <anchor x="552" y="1050" name="U"/>
  <outline>
    <contour>
      <point x="406" y="887" type="curve"/>
      <point x="406" y="930" type="line"/>
      <point x="20" y="930" type="line"/>
      <point x="20" y="887" type="line"/>
      <point x="86" y="872"/>
      <point x="119" y="856"/>
      <point x="131" y="819" type="curve"/>
      <point x="460" y="-29" type="line"/>
      <point x="437" y="-91" type="line" smooth="yes"/>
      <point x="377" y="-250"/>
      <point x="276" y="-345"/>
      <point x="194" y="-345" type="curve" smooth="yes"/>
      <point x="165" y="-345"/>
      <point x="122" y="-346"/>
      <point x="70" y="-313" type="curve"/>
      <point x="18" y="-346"/>
      <point x="-47" y="-429"/>
      <point x="-47" y="-448" type="curve" smooth="yes"/>
      <point x="-47" y="-472"/>
      <point x="34" y="-500"/>
      <point x="115" y="-500" type="curve" smooth="yes"/>
      <point x="245" y="-500"/>
      <point x="424" y="-411"/>
      <point x="541" y="-93" type="curve"/>
      <point x="877" y="832" type="line" smooth="yes"/>
      <point x="935" y="991"/>
      <point x="1008" y="1093"/>
      <point x="1087" y="1093" type="curve" smooth="yes"/>
      <point x="1122" y="1093"/>
      <point x="1171" y="1076"/>
      <point x="1201" y="1043" type="curve"/>
      <point x="1253" y="1076"/>
      <point x="1318" y="1159"/>
      <point x="1318" y="1178" type="curve" smooth="yes"/>
      <point x="1318" y="1190"/>
      <point x="1249" y="1250"/>
      <point x="1156" y="1250" type="curve" smooth="yes"/>
      <point x="1026" y="1250"/>
      <point x="879" y="1153"/>
      <point x="767" y="834" type="curve" smooth="yes"/>
      <point x="538" y="183" type="line"/>
      <point x="293" y="819" type="line" smooth="yes"/>
      <point x="276" y="862"/>
      <point x="303" y="874"/>
    </contour>
  </outline>
</glyph>
<glyph name="LtnCapEzhRev" format="2">
  <advance width="1092"/>
  <unicode hex="01B8"/>
  <anchor x="520" y="-100" name="L"/>
  <anchor x="540" y="1370" name="U"/>
  <outline>
    <contour>
      <point x="141" y="1217" type="line"/>
      <point x="538" y="726" type="line"/>
      <point x="667" y="703" type="line"/>
      <point x="708" y="753" type="line"/>
      <point x="372" y="1160" type="line"/>
      <point x="754" y="1160" type="line" smooth="yes"/>
      <point x="797" y="1160"/>
      <point x="857" y="1086"/>
      <point x="884" y="963" type="curve"/>
      <point x="941" y="975" type="line"/>
      <point x="911" y="1276" type="line"/>
      <point x="854" y="1260"/>
      <point x="821" y="1260"/>
      <point x="735" y="1260" type="curve" smooth="yes"/>
      <point x="166" y="1260" type="line"/>
    </contour>
    <contour>
      <point x="91" y="622"/>
      <point x="90" y="354" type="curve"/>
      <point x="90" y="92"/>
      <point x="324" y="-30"/>
      <point x="518" y="-30" type="curve" smooth="yes"/>
      <point x="768" y="-30"/>
      <point x="992" y="199"/>
      <point x="990" y="330" type="curve"/>
      <point x="981" y="340"/>
      <point x="972" y="350"/>
      <point x="963" y="360" type="curve"/>
      <point x="916" y="357"/>
      <point x="832" y="333"/>
      <point x="786" y="312" type="curve"/>
      <point x="812" y="166"/>
      <point x="698" y="90"/>
      <point x="559" y="90" type="curve" smooth="yes"/>
      <point x="440" y="90"/>
      <point x="240" y="170"/>
      <point x="240" y="403" type="curve" smooth="yes"/>
      <point x="240" y="583"/>
      <point x="382" y="687"/>
      <point x="532" y="687" type="curve" smooth="yes"/>
      <point x="563" y="687"/>
      <point x="615" y="683"/>
      <point x="650" y="664" type="curve"/>
      <point x="676" y="693"/>
      <point x="697" y="725"/>
      <point x="708" y="752" type="curve"/>
      <point x="655" y="768"/>
      <point x="601" y="783"/>
      <point x="548" y="799" type="curve"/>
      <point x="285" y="763"/>
    </contour>
  </outline>
</glyph>
<glyph name="LtnSmEzhRev" format="2">
  <advance width="920"/>
  <unicode hex="01B9"/>
  <anchor x="460" y="-600" name="L"/>
  <anchor x="460" y="1050" name="U"/>
  <outline>
    <contour>
      <point x="41" y="142"/>
      <point x="40" y="-96" type="curve"/>
      <point x="40" y="-358"/>
      <point x="234" y="-500"/>
      <point x="458" y="-500" type="curve" smooth="yes"/>
      <point x="668" y="-500"/>
      <point x="895" y="-311"/>
      <point x="880" y="-170" type="curve"/>
      <point x="853" y="-140" type="line"/>
      <point x="806" y="-143"/>
      <point x="742" y="-167"/>
      <point x="696" y="-188" type="curve"/>
      <point x="738" y="-319"/>
      <point x="608" y="-395"/>
      <point x="489" y="-395" type="curve" smooth="yes"/>
      <point x="350" y="-395"/>
      <point x="190" y="-280"/>
      <point x="190" y="-47" type="curve" smooth="yes"/>
      <point x="190" y="133"/>
      <point x="312" y="283"/>
      <point x="482" y="283" type="curve" smooth="yes"/>
      <point x="513" y="283"/>
      <point x="546" y="275"/>
      <point x="567" y="265" type="curve"/>
      <point x="601" y="283"/>
      <point x="649" y="335"/>
      <point x="666" y="368" type="curve"/>
      <point x="308" y="840" type="line"/>
      <point x="628" y="840" type="line" smooth="yes"/>
      <point x="671" y="840"/>
      <point x="718" y="813"/>
      <point x="745" y="690" type="curve"/>
      <point x="794" y="702" type="line"/>
      <point x="775" y="946" type="line"/>
      <point x="718" y="930"/>
      <point x="685" y="930"/>
      <point x="599" y="930" type="curve" smooth="yes"/>
      <point x="110" y="930" type="line"/>
      <point x="85" y="887" type="line"/>
      <point x="468" y="389" type="line"/>
      <point x="185" y="343"/>
    </contour>
  </outline>
</glyph>
<glyph name="LtnSmTnFive" format="2">
  <advance width="915"/>
  <unicode hex="01BD"/>
  <anchor x="476" y="-100" name="L"/>
  <anchor x="476" y="1050" name="U"/>
  <outline>
    <contour>
      <point x="835" y="117"/>
      <point x="835" y="293" type="curve" smooth="yes"/>
      <point x="835" y="479"/>
      <point x="672" y="570"/>
      <point x="504" y="570" type="curve" smooth="yes"/>
      <point x="443" y="570"/>
      <point x="402" y="562"/>
      <point x="345" y="545" type="curve"/>
      <point x="345" y="840" type="line"/>
      <point x="656" y="840" type="line" smooth="yes"/>
      <point x="704" y="840"/>
      <point x="713" y="788"/>
      <point x="721" y="662" type="curve"/>
      <point x="766" y="662" type="line"/>
      <point x="784" y="718"/>
      <point x="810" y="861"/>
      <point x="813" y="912" type="curve"/>
      <point x="784" y="930" type="line"/>
      <point x="55" y="930" type="line"/>
      <point x="55" y="887" type="line"/>
      <point x="145" y="873"/>
      <point x="195" y="853"/>
      <point x="195" y="841" type="curve" smooth="yes"/>
      <point x="195" y="461" type="line"/>
      <point x="202" y="453"/>
      <point x="221" y="434"/>
      <point x="229" y="428" type="curve"/>
      <point x="310" y="467"/>
      <point x="371" y="483"/>
      <point x="445" y="483" type="curve" smooth="yes"/>
      <point x="584" y="483"/>
      <point x="686" y="401"/>
      <point x="686" y="255" type="curve" smooth="yes"/>
      <point x="686" y="157"/>
      <point x="635" y="59"/>
      <point x="487" y="59" type="curve" smooth="yes"/>
      <point x="383" y="59"/>
      <point x="307" y="138"/>
      <point x="261" y="219" type="curve"/>
      <point x="209" y="213"/>
      <point x="131" y="127"/>
      <point x="131" y="116" type="curve" smooth="yes"/>
      <point x="131" y="82"/>
      <point x="235" y="-30"/>
      <point x="450" y="-30" type="curve" smooth="yes"/>
      <point x="678" y="-30"/>
    </contour>
  </outline>
</glyph>
<glyph name="LtnInvGlottalStopStrk" format="2">
  <advance width="857"/>
  <unicode hex="01BE"/>
  <anchor x="400" y="-100" name="L"/>
  <anchor x="400" y="1320" name="U"/>
  <outline>
    <contour>
      <point x="766" y="0"/>
      <point x="766" y="283" type="curve"/>
      <point x="766" y="432"/>
      <point x="637" y="500"/>
      <point x="521" y="559" type="curve"/>
      <point x="410" y="618"/>
      <point x="320" y="664"/>
      <point x="320" y="750" type="curve" smooth="yes"/>
      <point x="320" y="809"/>
      <point x="170" y="788"/>
      <point x="170" y="700" type="curve" smooth="yes"/>
      <point x="170" y="573"/>
      <point x="277" y="506"/>
      <point x="388" y="449" type="curve" smooth="yes"/>
      <point x="510" y="385"/>
      <point x="636" y="334"/>
      <point x="636" y="227" type="curve" smooth="yes"/>
      <point x="636" y="133"/>
      <point x="568" y="70"/>
      <point x="472" y="70" type="curve" smooth="yes"/>
      <point x="334" y="70"/>
      <point x="228" y="160"/>
      <point x="222" y="272" type="curve"/>
      <point x="179" y="283" type="line"/>
      <point x="160" y="223"/>
      <point x="154" y="51"/>
      <point x="172" y="43" type="curve"/>
      <point x="261" y="-6"/>
      <point x="359" y="-30"/>
      <point x="422" y="-30" type="curve" smooth="yes"/>
      <point x="500" y="-30"/>
    </contour>
    <contour>
      <point x="170" y="701" type="line"/>
      <point x="320" y="737" type="line"/>
      <point x="320" y="835" type="line"/>
      <point x="372" y="835" type="line" smooth="yes"/>
      <point x="480" y="835"/>
      <point x="543" y="816"/>
      <point x="575" y="800" type="curve"/>
      <point x="602" y="812"/>
      <point x="651" y="864"/>
      <point x="676" y="901" type="curve"/>
      <point x="647" y="930" type="line"/>
      <point x="320" y="930" type="line"/>
      <point x="320" y="1255" type="line"/>
      <point x="289" y="1280" type="line"/>
      <point x="170" y="1176" type="line"/>
      <point x="170" y="930" type="line"/>
      <point x="98" y="930" type="line"/>
      <point x="20" y="863" type="line"/>
      <point x="41" y="835" type="line"/>
      <point x="170" y="835" type="line"/>
    </contour>
  </outline>
</glyph>
<glyph name="LtnWynn" format="2">
  <advance width="1025"/>
  <unicode hex="01BF"/>
  <anchor x="528" y="-600" name="L"/>
  <anchor x="528" y="1050" name="U"/>
  <outline>
    <contour>
      <point x="945" y="390"/>
      <point x="945" y="662" type="curve" smooth="yes"/>
      <point x="945" y="874"/>
      <point x="852" y="960"/>
      <point x="710" y="960" type="curve" smooth="yes"/>
      <point x="614" y="960"/>
      <point x="472" y="887"/>
      <point x="339" y="727" type="curve"/>
      <point x="330" y="925" type="line"/>
      <point x="295" y="960" type="line"/>
      <point x="217" y="923"/>
      <point x="147" y="900"/>
      <point x="55" y="880" type="curve"/>
      <point x="55" y="840" type="line"/>
      <point x="182" y="834"/>
      <point x="195" y="811"/>
      <point x="195" y="711" type="curve" smooth="yes"/>
      <point x="195" y="-375" type="line" smooth="yes"/>
      <point x="195" y="-398"/>
      <point x="143" y="-416"/>
      <point x="55" y="-437" type="curve"/>
      <point x="55" y="-480" type="line"/>
      <point x="514" y="-480" type="line"/>
      <point x="514" y="-437" type="line"/>
      <point x="389" y="-418"/>
      <point x="345" y="-396"/>
      <point x="345" y="-375" type="curve" smooth="yes"/>
      <point x="345" y="-122" type="line"/>
      <point x="787" y="157"/>
    </contour>
    <contour>
      <point x="800" y="749"/>
      <point x="800" y="596" type="curve" smooth="yes"/>
      <point x="800" y="395"/>
      <point x="674" y="204"/>
      <point x="345" y="-17" type="curve"/>
      <point x="345" y="610" type="line"/>
      <point x="462" y="782"/>
      <point x="575" y="835"/>
      <point x="643" y="835" type="curve" smooth="yes"/>
      <point x="732" y="835"/>
    </contour>
  </outline>
</glyph>
<glyph name="LtnAlveolarClick" format="2">
  <advance width="730"/>
  <unicode hex="01C2"/>
  <anchor x="335" y="-600" name="L"/>
  <anchor x="335" y="1690" name="U"/>
  <outline>
    <contour>
      <point x="330" y="-500" type="line"/>
      <point x="363" y="-489"/>
      <point x="411" y="-469"/>
      <point x="435" y="-448" type="curve"/>
      <point x="435" y="1528" type="line"/>
      <point x="399" y="1550" type="line"/>
      <point x="360" y="1540"/>
      <point x="332" y="1524"/>
      <point x="295" y="1501" type="curve"/>
      <point x="295" y="-477" type="line"/>
    </contour>
    <contour>
      <point x="40" y="390" type="line"/>
      <point x="690" y="390" type="line"/>
      <point x="698" y="412"/>
      <point x="706" y="433"/>
      <point x="712" y="455" type="curve"/>
      <point x="690" y="480" type="line"/>
      <point x="40" y="480" type="line"/>
      <point x="30" y="459"/>
      <point x="23" y="433"/>
      <point x="18" y="412" type="curve"/>
    </contour>
    <contour>
      <point x="40" y="630" type="line"/>
      <point x="690" y="630" type="line"/>
      <point x="698" y="652"/>
      <point x="706" y="673"/>
      <point x="712" y="695" type="curve"/>
      <point x="690" y="720" type="line"/>
      <point x="40" y="720" type="line"/>
      <point x="30" y="699"/>
      <point x="23" y="673"/>
      <point x="18" y="652" type="curve"/>
    </contour>
  </outline>
</glyph>
<glyph name="LtnSmLCurl" format="2">
  <advance width="731"/>
  <unicode hex="0234"/>
  <anchor x="388" y="-100" name="L"/>
  <anchor x="316" y="1690" name="U"/>
  <outline>
    <contour>
      <point x="360" y="314" type="curve" smooth="yes"/>
      <point x="360" y="1516" type="line"/>
      <point x="324" y="1550" type="line"/>
      <point x="242" y="1507"/>
      <point x="166" y="1489"/>
      <point x="70" y="1470" type="curve"/>
      <point x="70" y="1430" type="line"/>
      <point x="182" y="1417"/>
      <point x="210" y="1417"/>
      <point x="210" y="1296" type="curve" smooth="yes"/>
      <point x="210" y="240" type="line" smooth="yes"/>
      <point x="210" y="34"/>
      <point x="337" y="-30"/>
      <point x="444" y="-30" type="curve" smooth="yes"/>
      <point x="570" y="-30"/>
      <point x="705" y="61"/>
      <point x="705" y="194" type="curve" smooth="yes"/>
      <point x="705" y="308"/>
      <point x="632" y="387"/>
      <point x="497" y="387" type="curve" smooth="yes"/>
      <point x="403" y="387"/>
      <point x="129" y="317"/>
      <point x="-43" y="-152" type="curve"/>
      <point x="18" y="-180" type="line"/>
      <point x="162" y="161"/>
      <point x="334" y="277"/>
      <point x="458" y="277" type="curve" smooth="yes"/>
      <point x="548" y="277"/>
      <point x="590" y="203"/>
      <point x="590" y="150" type="curve" smooth="yes"/>
      <point x="590" y="99"/>
      <point x="547" y="60"/>
      <point x="494" y="60" type="curve" smooth="yes"/>
      <point x="376" y="60"/>
      <point x="360" y="163"/>
    </contour>
  </outline>
</glyph>
<glyph name="LtnCapSmQHookTail" format="2">
  <advance width="1229"/>
  <unicode hex="024A"/>
  <anchor x="537" y="-100" name="L"/>
  <anchor x="604" y="1370" name="U"/>
  <outline>
    <contour>
      <point x="312" y="-30"/>
      <point x="489" y="-30" type="curve" smooth="yes"/>
      <point x="691" y="-30"/>
      <point x="821" y="113"/>
      <point x="983" y="349" type="curve"/>
      <point x="977" y="363"/>
      <point x="969" y="378"/>
      <point x="948" y="389" type="curve"/>
      <point x="836" y="268"/>
      <point x="670" y="105"/>
      <point x="544" y="105" type="curve" smooth="yes"/>
      <point x="383" y="105"/>
      <point x="216" y="333"/>
      <point x="216" y="638" type="curve" smooth="yes"/>
      <point x="216" y="974"/>
      <point x="455" y="1155"/>
      <point x="634" y="1155" type="curve" smooth="yes"/>
      <point x="755" y="1155"/>
      <point x="853" y="1087"/>
      <point x="902" y="974" type="curve"/>
      <point x="954" y="1009"/>
      <point x="973" y="1021"/>
      <point x="973" y="1129" type="curve"/>
      <point x="848" y="1269"/>
      <point x="767" y="1290"/>
      <point x="671" y="1290" type="curve" smooth="yes"/>
      <point x="610" y="1290"/>
      <point x="504" y="1259"/>
      <point x="413" y="1203" type="curve" smooth="yes"/>
      <point x="299" y="1133"/>
      <point x="66" y="911"/>
      <point x="66" y="597" type="curve" smooth="yes"/>
      <point x="66" y="198"/>
    </contour>
    <contour>
      <point x="894" y="1155" type="curve"/>
      <point x="894" y="-168" type="line"/>
      <point x="894" y="-374"/>
      <point x="925" y="-500"/>
      <point x="1097" y="-500" type="curve" smooth="yes"/>
      <point x="1265" y="-500"/>
      <point x="1452" y="-364"/>
      <point x="1452" y="-235" type="curve"/>
      <point x="1433" y="-196" type="line"/>
      <point x="1378" y="-196"/>
      <point x="1267" y="-243"/>
      <point x="1267" y="-264" type="curve"/>
      <point x="1274" y="-278"/>
      <point x="1278" y="-292"/>
      <point x="1278" y="-306" type="curve" smooth="yes"/>
      <point x="1278" y="-358"/>
      <point x="1229" y="-405"/>
      <point x="1171" y="-405" type="curve" smooth="yes"/>
      <point x="1063" y="-405"/>
      <point x="1054" y="-312"/>
      <point x="1054" y="-106" type="curve" smooth="yes"/>
      <point x="1054" y="964" type="line" smooth="yes"/>
      <point x="1054" y="1126"/>
      <point x="1091" y="1250"/>
      <point x="1091" y="1250" type="curve"/>
      <point x="1049" y="1288" type="line"/>
      <point x="1009" y="1244"/>
      <point x="946" y="1174"/>
    </contour>
  </outline>
</glyph>
<glyph name="LtnSmQHookTail" format="2">
  <advance width="1054"/>
  <unicode hex="024B"/>
  <anchor x="407" y="-100" name="L"/>
  <anchor x="557" y="1050" name="U"/>
  <outline>
    <contour>
      <point x="684" y="84"/>
      <point x="819" y="260" type="curve"/>
      <point x="813" y="270"/>
      <point x="799" y="289"/>
      <point x="782" y="297" type="curve"/>
      <point x="688" y="207"/>
      <point x="592" y="100"/>
      <point x="487" y="100" type="curve" smooth="yes"/>
      <point x="377" y="100"/>
      <point x="230" y="248"/>
      <point x="230" y="475" type="curve" smooth="yes"/>
      <point x="230" y="725"/>
      <point x="371" y="850"/>
      <point x="520" y="850" type="curve" smooth="yes"/>
      <point x="621" y="850"/>
      <point x="711" y="801"/>
      <point x="752" y="717" type="curve"/>
      <point x="795" y="743"/>
      <point x="811" y="760"/>
      <point x="811" y="840" type="curve"/>
      <point x="707" y="944"/>
      <point x="631" y="960"/>
      <point x="551" y="960" type="curve" smooth="yes"/>
      <point x="500" y="960"/>
      <point x="420" y="937"/>
      <point x="344" y="895" type="curve" smooth="yes"/>
      <point x="250" y="843"/>
      <point x="80" y="678"/>
      <point x="80" y="444" type="curve" smooth="yes"/>
      <point x="80" y="147"/>
      <point x="268" y="-30"/>
      <point x="416" y="-30" type="curve" smooth="yes"/>
      <point x="584" y="-30"/>
    </contour>
    <contour>
      <point x="745" y="848" type="curve"/>
      <point x="745" y="-227" type="line"/>
      <point x="745" y="-371"/>
      <point x="786" y="-500"/>
      <point x="948" y="-500" type="curve" smooth="yes"/>
      <point x="1140" y="-500"/>
      <point x="1304" y="-346"/>
      <point x="1304" y="-237" type="curve"/>
      <point x="1284" y="-196" type="line"/>
      <point x="1246" y="-193"/>
      <point x="1140" y="-234"/>
      <point x="1117" y="-262" type="curve"/>
      <point x="1125" y="-274"/>
      <point x="1129" y="-289"/>
      <point x="1129" y="-303" type="curve" smooth="yes"/>
      <point x="1129" y="-353"/>
      <point x="1083" y="-405"/>
      <point x="1022" y="-405" type="curve" smooth="yes"/>
      <point x="926" y="-405"/>
      <point x="895" y="-319"/>
      <point x="895" y="-166" type="curve"/>
      <point x="895" y="717" type="line" smooth="yes"/>
      <point x="895" y="838"/>
      <point x="926" y="930"/>
      <point x="926" y="930" type="curve"/>
      <point x="895" y="960" type="line"/>
      <point x="862" y="927"/>
      <point x="788" y="862"/>
    </contour>
  </outline>
</glyph>
<glyph name="LtnSmGHook" format="2">
  <advance width="1054"/>
  <unicode hex="0260"/>
  <anchor x="540" y="-600" name="L"/>
  <anchor x="676" y="1690" name="U"/>
  <outline>
    <contour>
      <point x="426" y="-500" type="curve" smooth="yes"/>
      <point x="559" y="-500"/>
      <point x="897" y="-376"/>
      <point x="890" y="80" type="curve" smooth="yes"/>
      <point x="875" y="1012" type="line" smooth="yes"/>
      <point x="872" y="1174"/>
      <point x="889" y="1231"/>
      <point x="953" y="1231" type="curve" smooth="yes"/>
      <point x="990" y="1231"/>
      <point x="1018" y="1221"/>
      <point x="1087" y="1151" type="curve"/>
      <point x="1126" y="1169"/>
      <point x="1214" y="1231"/>
      <point x="1214" y="1253" type="curve"/>
      <point x="1214" y="1278"/>
      <point x="1115" y="1356"/>
      <point x="1036" y="1356" type="curve" smooth="yes"/>
      <point x="984" y="1356"/>
      <point x="908" y="1339"/>
      <point x="830" y="1259" type="curve" smooth="yes"/>
      <point x="739" y="1165"/>
      <point x="724" y="1099"/>
      <point x="726" y="967" type="curve" smooth="yes"/>
      <point x="727" y="898" type="line"/>
      <point x="660" y="950"/>
      <point x="613" y="960"/>
      <point x="551" y="960" type="curve" smooth="yes"/>
      <point x="274" y="960"/>
      <point x="80" y="635"/>
      <point x="80" y="406" type="curve" smooth="yes"/>
      <point x="80" y="129"/>
      <point x="268" y="-30"/>
      <point x="416" y="-30" type="curve" smooth="yes"/>
      <point x="534" y="-30"/>
      <point x="616" y="22"/>
      <point x="733" y="170" type="curve"/>
      <point x="735" y="47" type="line" smooth="yes"/>
      <point x="739" y="-280"/>
      <point x="624" y="-390"/>
      <point x="492" y="-390" type="curve" smooth="yes"/>
      <point x="437" y="-390"/>
      <point x="345" y="-372"/>
      <point x="248" y="-261" type="curve"/>
      <point x="205" y="-272"/>
      <point x="100" y="-337"/>
      <point x="100" y="-364" type="curve" smooth="yes"/>
      <point x="100" y="-417"/>
      <point x="256" y="-500"/>
    </contour>
    <contour>
      <point x="487" y="100" type="curve" smooth="yes"/>
      <point x="377" y="100"/>
      <point x="230" y="223"/>
      <point x="230" y="436" type="curve" smooth="yes"/>
      <point x="230" y="684"/>
      <point x="350" y="850"/>
      <point x="520" y="850" type="curve" smooth="yes"/>
      <point x="617" y="850"/>
      <point x="685" y="804"/>
      <point x="727" y="726" type="curve"/>
      <point x="732" y="263" type="line"/>
      <point x="627" y="152"/>
      <point x="553" y="100"/>
    </contour>
  </outline>
</glyph>
<glyph name="LtnSmGamma" format="2">
  <advance width="1010"/>
  <unicode hex="0263"/>
  <anchor x="504" y="-600" name="L"/>
  <anchor x="524" y="1050" name="U"/>
  <outline>
    <contour>
      <point x="909" y="868"/>
      <point x="989" y="887" type="curve"/>
      <point x="989" y="930" type="line"/>
      <point x="655" y="930" type="line"/>
      <point x="655" y="887" type="line"/>
      <point x="754" y="872"/>
      <point x="778" y="858"/>
      <point x="760" y="819" type="curve" smooth="yes"/>
      <point x="364" y="9" type="line" smooth="yes"/>
      <point x="287" y="-149"/>
      <point x="269" y="-217"/>
      <point x="269" y="-284" type="curve" smooth="yes"/>
      <point x="269" y="-414"/>
      <point x="365" y="-500"/>
      <point x="483" y="-500" type="curve" smooth="yes"/>
      <point x="662" y="-500"/>
      <point x="742" y="-333"/>
      <point x="742" y="-235" type="curve" smooth="yes"/>
      <point x="742" y="-126"/>
      <point x="711" y="-54"/>
      <point x="635" y="107" type="curve" smooth="yes"/>
      <point x="301" y="819" type="line" smooth="yes"/>
      <point x="283" y="860"/>
      <point x="303" y="874"/>
      <point x="406" y="887" type="curve"/>
      <point x="406" y="930" type="line"/>
      <point x="20" y="930" type="line"/>
      <point x="20" y="887" type="line"/>
      <point x="86" y="872"/>
      <point x="117" y="854"/>
      <point x="131" y="819" type="curve"/>
      <point x="517" y="-9" type="line"/>
      <point x="587" y="-166"/>
      <point x="602" y="-207"/>
      <point x="602" y="-282" type="curve" smooth="yes"/>
      <point x="602" y="-343"/>
      <point x="547" y="-395"/>
      <point x="496" y="-395" type="curve" smooth="yes"/>
      <point x="444" y="-395"/>
      <point x="379" y="-363"/>
      <point x="379" y="-251" type="curve" smooth="yes"/>
      <point x="379" y="-206"/>
      <point x="405" y="-137"/>
      <point x="501" y="58" type="curve" smooth="yes"/>
      <point x="879" y="819" type="line" smooth="yes"/>
      <point x="897" y="856"/>
    </contour>
  </outline>
</glyph>
<glyph name="LtnSmRamsHorn" format="2">
  <advance width="1104"/>
  <unicode hex="0264"/>
  <anchor x="548" y="-100" name="L"/>
  <anchor x="1264" y="900" name="R"/>
  <anchor x="572" y="1050" name="U"/>
  <outline>
    <contour>
      <point x="546" y="372" type="curve"/>
      <point x="490" y="450" type="line"/>
      <point x="401" y="329" type="line" smooth="yes"/>
      <point x="358" y="271"/>
      <point x="331" y="221"/>
      <point x="331" y="154" type="curve" smooth="yes"/>
      <point x="331" y="64"/>
      <point x="399" y="-30"/>
      <point x="537" y="-30" type="curve" smooth="yes"/>
      <point x="716" y="-30"/>
      <point x="774" y="107"/>
      <point x="774" y="175" type="curve" smooth="yes"/>
      <point x="774" y="230"/>
      <point x="761" y="273"/>
      <point x="690" y="387" type="curve" smooth="yes"/>
      <point x="503" y="687" type="line" smooth="yes"/>
      <point x="387" y="874"/>
      <point x="306" y="960"/>
      <point x="207" y="960" type="curve" smooth="yes"/>
      <point x="136" y="960"/>
      <point x="70" y="889"/>
      <point x="43" y="820" type="curve"/>
      <point x="32" y="774"/>
      <point x="28" y="681"/>
      <point x="32" y="636" type="curve"/>
      <point x="77" y="636" type="line"/>
      <point x="88" y="687"/>
      <point x="127" y="771"/>
      <point x="197" y="771" type="curve" smooth="yes"/>
      <point x="264" y="771"/>
      <point x="322" y="699"/>
      <point x="412" y="556" type="curve" smooth="yes"/>
      <point x="600" y="256" type="line" smooth="yes"/>
      <point x="628" y="211"/>
      <point x="637" y="179"/>
      <point x="637" y="148" type="curve" smooth="yes"/>
      <point x="637" y="108"/>
      <point x="592" y="72"/>
      <point x="540" y="72" type="curve" smooth="yes"/>
      <point x="487" y="72"/>
      <point x="438" y="105"/>
      <point x="438" y="177" type="curve" smooth="yes"/>
      <point x="438" y="232"/>
      <point x="490" y="295"/>
    </contour>
    <contour>
      <point x="668" y="675" type="curve" smooth="yes"/>
      <point x="559" y="522" type="line"/>
      <point x="619" y="446" type="line"/>
      <point x="695" y="555" type="line" smooth="yes"/>
      <point x="790" y="691"/>
      <point x="866" y="771"/>
      <point x="926" y="771" type="curve" smooth="yes"/>
      <point x="986" y="771"/>
      <point x="1025" y="687"/>
      <point x="1036" y="636" type="curve"/>
      <point x="1081" y="636" type="line"/>
      <point x="1085" y="681"/>
      <point x="1081" y="774"/>
      <point x="1070" y="820" type="curve"/>
      <point x="1043" y="889"/>
      <point x="1008" y="960"/>
      <point x="937" y="960" type="curve" smooth="yes"/>
      <point x="868" y="960"/>
      <point x="797" y="857"/>
    </contour>
  </outline>
</glyph>
<glyph name="LtnSmCapI" format="2">
  <advance width="570"/>
  <unicode hex="026A"/>
  <anchor x="285" y="0" name="H"/>
  <anchor x="285" y="-100" name="L"/>
  <anchor x="335" y="0" name="O"/>
  <anchor x="570" y="900" name="R"/>
  <anchor x="285" y="1050" name="U"/>
  <outline>
    <contour>
      <point x="70" y="0" type="line"/>
      <point x="500" y="0" type="line"/>
      <point x="500" y="43" type="line"/>
      <point x="403" y="61"/>
      <point x="360" y="88"/>
      <point x="360" y="104" type="curve" smooth="yes"/>
      <point x="360" y="826" type="line" smooth="yes"/>
      <point x="360" y="844"/>
      <point x="410" y="869"/>
      <point x="500" y="887" type="curve"/>
      <point x="500" y="930" type="line"/>
      <point x="70" y="930" type="line"/>
      <point x="70" y="887" type="line"/>
      <point x="167" y="869"/>
      <point x="210" y="842"/>
      <point x="210" y="826" type="curve" smooth="yes"/>
      <point x="210" y="104" type="line" smooth="yes"/>
      <point x="210" y="86"/>
      <point x="160" y="61"/>
      <point x="70" y="43" type="curve"/>
    </contour>
  </outline>
</glyph>
<glyph name="LtnSmCapN" format="2">
  <advance width="1175"/>
  <unicode hex="0274"/>
  <anchor x="587" y="-100" name="L"/>
  <anchor x="587" y="1050" name="U"/>
  <outline>
    <contour>
      <point x="1041" y="871"/>
      <point x="1120" y="887" type="curve"/>
      <point x="1120" y="930" type="line"/>
      <point x="728" y="930" type="line"/>
      <point x="728" y="887" type="line"/>
      <point x="816" y="869"/>
      <point x="868" y="837"/>
      <point x="868" y="825" type="curve" smooth="yes"/>
      <point x="868" y="53" type="line"/>
      <point x="980" y="24" type="line"/>
      <point x="980" y="825" type="line" smooth="yes"/>
      <point x="980" y="839"/>
    </contour>
    <contour>
      <point x="927" y="-16"/>
      <point x="980" y="-22" type="curve"/>
      <point x="980" y="99" type="line"/>
      <point x="980" y="99"/>
      <point x="903" y="184"/>
      <point x="880" y="213" type="curve" smooth="yes"/>
      <point x="345" y="872" type="line" smooth="yes"/>
      <point x="303" y="924"/>
      <point x="297" y="930"/>
      <point x="265" y="930" type="curve" smooth="yes"/>
      <point x="55" y="930" type="line"/>
      <point x="55" y="887" type="line"/>
      <point x="113" y="879"/>
      <point x="177" y="847"/>
      <point x="223" y="790" type="curve" smooth="yes"/>
      <point x="857" y="6" type="line" smooth="yes"/>
      <point x="870" y="-11"/>
    </contour>
    <contour>
      <point x="55" y="0" type="line"/>
      <point x="444" y="0" type="line"/>
      <point x="444" y="43" type="line"/>
      <point x="360" y="60"/>
      <point x="305" y="92"/>
      <point x="305" y="104" type="curve" smooth="yes"/>
      <point x="305" y="890" type="line"/>
      <point x="195" y="872" type="line"/>
      <point x="195" y="104" type="line" smooth="yes"/>
      <point x="195" y="91"/>
      <point x="136" y="59"/>
      <point x="55" y="43" type="curve"/>
    </contour>
  </outline>
</glyph>
<glyph name="LtnSmBarredO" format="2">
  <advance width="1030"/>
  <unicode hex="0275"/>
  <anchor x="525" y="-100" name="L"/>
  <anchor x="1044" y="900" name="R"/>
  <anchor x="525" y="1050" name="U"/>
  <outline>
    <contour>
      <point x="950" y="219"/>
      <point x="950" y="485" type="curve" smooth="yes"/>
      <point x="950" y="758"/>
      <point x="786" y="960"/>
      <point x="535" y="960" type="curve" smooth="yes"/>
      <point x="285" y="960"/>
      <point x="80" y="709"/>
      <point x="80" y="444" type="curve" smooth="yes"/>
      <point x="80" y="172"/>
      <point x="244" y="-30"/>
      <point x="496" y="-30" type="curve" smooth="yes"/>
      <point x="739" y="-30"/>
    </contour>
    <contour>
      <point x="771" y="694"/>
      <point x="793" y="505" type="curve"/>
      <point x="235" y="505" type="line"/>
      <point x="242" y="702"/>
      <point x="313" y="850"/>
      <point x="506" y="850" type="curve" smooth="yes"/>
      <point x="632" y="850"/>
    </contour>
    <contour>
      <point x="239" y="415" type="curve"/>
      <point x="795" y="415" type="line"/>
      <point x="785" y="210"/>
      <point x="701" y="80"/>
      <point x="524" y="80" type="curve" smooth="yes"/>
      <point x="412" y="80"/>
      <point x="266" y="229"/>
    </contour>
  </outline>
</glyph>
<glyph name="LtnSmClosedOmega" format="2">
  <advance width="1315"/>
  <unicode hex="0277"/>
  <anchor x="655" y="-100" name="L"/>
  <anchor x="1336" y="900" name="R"/>
  <anchor x="668" y="1050" name="U"/>
  <outline>
    <contour>
      <point x="1073" y="706"/>
      <point x="1073" y="411" type="curve" smooth="yes"/>
      <point x="1073" y="230"/>
      <point x="1024" y="90"/>
      <point x="905" y="90" type="curve" smooth="yes"/>
      <point x="769" y="90"/>
      <point x="724" y="225"/>
      <point x="724" y="383" type="curve" smooth="yes"/>
      <point x="724" y="490"/>
      <point x="735" y="554"/>
      <point x="751" y="604" type="curve"/>
      <point x="751" y="604"/>
      <point x="733" y="623"/>
      <point x="722" y="636" type="curve"/>
      <point x="680" y="619"/>
      <point x="633" y="600"/>
      <point x="576" y="579" type="curve"/>
      <point x="587" y="544"/>
      <point x="601" y="465"/>
      <point x="601" y="377" type="curve" smooth="yes"/>
      <point x="601" y="216"/>
      <point x="517" y="90"/>
      <point x="431" y="90" type="curve" smooth="yes"/>
      <point x="294" y="90"/>
      <point x="240" y="238"/>
      <point x="240" y="428" type="curve" smooth="yes"/>
      <point x="240" y="678"/>
      <point x="412" y="870"/>
      <point x="659" y="870" type="curve" smooth="yes"/>
      <point x="889" y="870"/>
    </contour>
    <contour>
      <point x="80" y="679"/>
      <point x="80" y="393" type="curve" smooth="yes"/>
      <point x="80" y="116"/>
      <point x="216" y="-31"/>
      <point x="379" y="-31" type="curve" smooth="yes"/>
      <point x="545" y="-31"/>
      <point x="617" y="88"/>
      <point x="659" y="206" type="curve"/>
      <point x="689" y="84"/>
      <point x="757" y="-31"/>
      <point x="897" y="-31" type="curve" smooth="yes"/>
      <point x="1052" y="-31"/>
      <point x="1233" y="129"/>
      <point x="1233" y="439" type="curve" smooth="yes"/>
      <point x="1233" y="763"/>
      <point x="989" y="959"/>
      <point x="659" y="960" type="curve" smooth="yes"/>
      <point x="289" y="961"/>
    </contour>
  </outline>
</glyph>
<glyph name="LtnSmPhi" format="2">
  <advance width="1230"/>
  <unicode hex="0278"/>
  <anchor x="615" y="-600" name="L"/>
  <anchor x="615" y="1690" name="U"/>
  <outline>
    <contour>
      <point x="400" y="-480" type="line"/>
      <point x="830" y="-480" type="line"/>
      <point x="830" y="-437" type="line"/>
      <point x="733" y="-419"/>
      <point x="690" y="-392"/>
      <point x="690" y="-376" type="curve" smooth="yes"/>
      <point x="690" y="1416" type="line"/>
      <point x="540" y="1416" type="line"/>
      <point x="540" y="-376" type="line" smooth="yes"/>
      <point x="540" y="-394"/>
      <point x="490" y="-419"/>
      <point x="400" y="-437" type="curve"/>
    </contour>
    <contour>
      <point x="1160" y="219"/>
      <point x="1160" y="485" type="curve"/>
      <point x="1160" y="758"/>
      <point x="976" y="960"/>
      <point x="635" y="960" type="curve" smooth="yes"/>
      <point x="305" y="960"/>
      <point x="70" y="709"/>
      <point x="70" y="444" type="curve" smooth="yes"/>
      <point x="70" y="172"/>
      <point x="254" y="-30"/>
      <point x="596" y="-30" type="curve" smooth="yes"/>
      <point x="929" y="-30"/>
    </contour>
    <contour>
      <point x="1005" y="666"/>
      <point x="1005" y="455" type="curve"/>
      <point x="1005" y="227"/>
      <point x="903" y="80"/>
      <point x="624" y="80" type="curve" smooth="yes"/>
      <point x="411" y="80"/>
      <point x="225" y="262"/>
      <point x="225" y="473" type="curve" smooth="yes"/>
      <point x="225" y="686"/>
      <point x="323" y="850"/>
      <point x="606" y="850" type="curve" smooth="yes"/>
      <point x="833" y="850"/>
    </contour>
    <contour>
      <point x="540" y="194" type="line"/>
      <point x="690" y="194" type="line"/>
      <point x="690" y="1516" type="line"/>
      <point x="654" y="1550" type="line"/>
      <point x="572" y="1507"/>
      <point x="496" y="1489"/>
      <point x="400" y="1470" type="curve"/>
      <point x="400" y="1430" type="line"/>
      <point x="512" y="1420"/>
      <point x="540" y="1417"/>
      <point x="540" y="1296" type="curve" smooth="yes"/>
    </contour>
  </outline>
</glyph>
<glyph name="LtnSmRHookTail" format="2">
  <advance width="811"/>
  <unicode hex="027D"/>
  <anchor x="448" y="-600" name="L"/>
  <anchor x="448" y="1050" name="U"/>
  <outline>
    <contour>
      <point x="788" y="-336"/>
      <point x="780" y="-235" type="curve"/>
      <point x="761" y="-196" type="line"/>
      <point x="720" y="-190"/>
      <point x="587" y="-252"/>
      <point x="595" y="-264" type="curve" smooth="yes"/>
      <point x="630" y="-321"/>
      <point x="567" y="-405"/>
      <point x="489" y="-405" type="curve" smooth="yes"/>
      <point x="371" y="-405"/>
      <point x="345" y="-319"/>
      <point x="345" y="-166" type="curve" smooth="yes"/>
      <point x="345" y="496" type="line"/>
      <point x="409" y="723"/>
      <point x="514" y="820"/>
      <point x="573" y="820" type="curve" smooth="yes"/>
      <point x="623" y="820"/>
      <point x="668" y="784"/>
      <point x="684" y="676" type="curve"/>
      <point x="727" y="676" type="line"/>
      <point x="760" y="748"/>
      <point x="795" y="908"/>
      <point x="770" y="923" type="curve" smooth="yes"/>
      <point x="721" y="951"/>
      <point x="670" y="960"/>
      <point x="627" y="960" type="curve" smooth="yes"/>
      <point x="512" y="960"/>
      <point x="415" y="846"/>
      <point x="343" y="698" type="curve"/>
      <point x="330" y="925" type="line"/>
      <point x="295" y="960" type="line"/>
      <point x="229" y="923"/>
      <point x="141" y="902"/>
      <point x="55" y="880" type="curve"/>
      <point x="55" y="840" type="line"/>
      <point x="129" y="836"/>
      <point x="154" y="831"/>
      <point x="172" y="813" type="curve" smooth="yes"/>
      <point x="184" y="801"/>
      <point x="195" y="774"/>
      <point x="195" y="686" type="curve" smooth="yes"/>
      <point x="195" y="-227" type="line" smooth="yes"/>
      <point x="195" y="-371"/>
      <point x="234" y="-500"/>
      <point x="415" y="-500" type="curve" smooth="yes"/>
      <point x="610" y="-500"/>
    </contour>
  </outline>
</glyph>
<glyph name="LtnSmRevRFishhook" format="2">
  <advance width="680"/>
  <unicode hex="027F"/>
  <anchor x="500" y="-600" name="L"/>
  <anchor x="364" y="1050" name="U"/>
  <outline>
    <contour>
      <point x="149" y="904"/>
      <point x="65" y="803" type="curve"/>
      <point x="40" y="788"/>
      <point x="75" y="678"/>
      <point x="108" y="606" type="curve"/>
      <point x="151" y="606" type="line"/>
      <point x="164" y="701"/>
      <point x="206" y="840"/>
      <point x="306" y="840" type="curve" smooth="yes"/>
      <point x="375" y="840"/>
      <point x="440" y="802"/>
      <point x="440" y="666" type="curve" smooth="yes"/>
      <point x="440" y="-376" type="line" smooth="yes"/>
      <point x="440" y="-396"/>
      <point x="396" y="-419"/>
      <point x="271" y="-437" type="curve"/>
      <point x="271" y="-480" type="line"/>
      <point x="730" y="-480" type="line"/>
      <point x="730" y="-437" type="line"/>
      <point x="642" y="-417"/>
      <point x="590" y="-398"/>
      <point x="590" y="-376" type="curve" smooth="yes"/>
      <point x="590" y="726" type="line" smooth="yes"/>
      <point x="590" y="945"/>
      <point x="450" y="960"/>
      <point x="378" y="960" type="curve" smooth="yes"/>
      <point x="285" y="960"/>
    </contour>
  </outline>
</glyph>
<glyph name="LtnSmSquatRevEsh" format="2">
  <advance width="718"/>
  <unicode hex="0285"/>
  <anchor x="628" y="-600" name="L"/>
  <anchor x="364" y="1050" name="U"/>
  <outline>
    <contour>
      <point x="590" y="-106" type="curve" smooth="yes"/>
      <point x="590" y="726" type="line" smooth="yes"/>
      <point x="591" y="945"/>
      <point x="450" y="960"/>
      <point x="378" y="960" type="curve" smooth="yes"/>
      <point x="285" y="960"/>
      <point x="149" y="904"/>
      <point x="65" y="803" type="curve"/>
      <point x="40" y="788"/>
      <point x="75" y="678"/>
      <point x="108" y="606" type="curve"/>
      <point x="151" y="606" type="line"/>
      <point x="164" y="701"/>
      <point x="206" y="840"/>
      <point x="306" y="840" type="curve" smooth="yes"/>
      <point x="375" y="840"/>
      <point x="440" y="802"/>
      <point x="440" y="666" type="curve" smooth="yes"/>
      <point x="440" y="-168" type="line" smooth="yes"/>
      <point x="440" y="-368"/>
      <point x="462" y="-500"/>
      <point x="638" y="-500" type="curve" smooth="yes"/>
      <point x="808" y="-500"/>
      <point x="993" y="-364"/>
      <point x="993" y="-235" type="curve"/>
      <point x="974" y="-196" type="line"/>
      <point x="920" y="-196"/>
      <point x="808" y="-243"/>
      <point x="808" y="-264" type="curve"/>
      <point x="815" y="-278"/>
      <point x="819" y="-292"/>
      <point x="819" y="-306" type="curve" smooth="yes"/>
      <point x="819" y="-348"/>
      <point x="780" y="-405"/>
      <point x="711" y="-405" type="curve" smooth="yes"/>
      <point x="598" y="-405"/>
      <point x="590" y="-290"/>
    </contour>
  </outline>
</glyph>
<glyph name="LtnSmTurnedT" format="2">
  <advance width="705"/>
  <unicode hex="0287"/>
  <anchor x="332" y="-600" name="L"/>
  <anchor x="332" y="1050" name="U"/>
  <outline>
    <contour>
      <point x="151" y="910"/>
      <point x="20" y="813" type="curve"/>
      <point x="49" y="762" type="line"/>
      <point x="153" y="815"/>
      <point x="221" y="830"/>
      <point x="268" y="830" type="curve" smooth="yes"/>
      <point x="348" y="830"/>
      <point x="376" y="783"/>
      <point x="376" y="623" type="curve" smooth="yes"/>
      <point x="376" y="95" type="line"/>
      <point x="324" y="95" type="line" smooth="yes"/>
      <point x="216" y="95"/>
      <point x="153" y="114"/>
      <point x="121" y="130" type="curve"/>
      <point x="94" y="118"/>
      <point x="45" y="66"/>
      <point x="20" y="29" type="curve"/>
      <point x="49" y="0" type="line"/>
      <point x="376" y="0" type="line"/>
      <point x="376" y="-325" type="line"/>
      <point x="407" y="-350" type="line"/>
      <point x="526" y="-246" type="line"/>
      <point x="526" y="0" type="line"/>
      <point x="598" y="0" type="line"/>
      <point x="676" y="67" type="line"/>
      <point x="655" y="95" type="line"/>
      <point x="526" y="95" type="line"/>
      <point x="526" y="709" type="line" smooth="yes"/>
      <point x="526" y="895"/>
      <point x="444" y="960"/>
      <point x="352" y="960" type="curve" smooth="yes"/>
      <point x="282" y="960"/>
    </contour>
  </outline>
</glyph>
<glyph name="LtnSmUpsilon" format="2">
  <advance width="971"/>
  <unicode hex="028A"/>
  <anchor x="484" y="0" name="H"/>
  <anchor x="484" y="-100" name="L"/>
  <anchor x="520" y="0" name="O"/>
  <anchor x="971" y="900" name="R"/>
  <anchor x="484" y="1050" name="U"/>
  <outline>
    <contour>
      <point x="910" y="887"/>
      <point x="910" y="887" type="curve"/>
      <point x="910" y="930" type="line"/>
      <point x="565" y="930" type="line"/>
      <point x="545" y="838" type="line"/>
      <point x="672" y="762"/>
      <point x="748" y="584"/>
      <point x="748" y="383" type="curve" smooth="yes"/>
      <point x="748" y="248"/>
      <point x="670" y="80"/>
      <point x="514" y="80" type="curve" smooth="yes"/>
      <point x="360" y="80"/>
      <point x="225" y="250"/>
      <point x="225" y="428" type="curve" smooth="yes"/>
      <point x="225" y="627"/>
      <point x="297" y="741"/>
      <point x="424" y="838" type="curve"/>
      <point x="406" y="930" type="line"/>
      <point x="60" y="930" type="line"/>
      <point x="60" y="887" type="line"/>
      <point x="60" y="887"/>
      <point x="287" y="836"/>
      <point x="240" y="793" type="curve" smooth="yes"/>
      <point x="117" y="682"/>
      <point x="75" y="549"/>
      <point x="75" y="399" type="curve" smooth="yes"/>
      <point x="75" y="174"/>
      <point x="190" y="-30"/>
      <point x="465" y="-30" type="curve" smooth="yes"/>
      <point x="739" y="-30"/>
      <point x="883" y="246"/>
      <point x="883" y="434" type="curve" smooth="yes"/>
      <point x="883" y="569"/>
      <point x="844" y="690"/>
      <point x="727" y="793" type="curve" smooth="yes"/>
      <point x="682" y="834"/>
    </contour>
  </outline>
</glyph>
<glyph name="LtnSmVHook" format="2">
  <advance width="995"/>
  <unicode hex="028B"/>
  <anchor x="476" y="0" name="H"/>
  <anchor x="478" y="-100" name="L"/>
  <anchor x="536" y="0" name="O"/>
  <anchor x="478" y="1050" name="U"/>
  <outline>
    <contour>
      <point x="915" y="225"/>
      <point x="915" y="504" type="curve" smooth="yes"/>
      <point x="915" y="770"/>
      <point x="805" y="922"/>
      <point x="690" y="960" type="curve"/>
      <point x="645" y="946"/>
      <point x="539" y="917"/>
      <point x="496" y="897" type="curve"/>
      <point x="512" y="856" type="line"/>
      <point x="690" y="850"/>
      <point x="765" y="657"/>
      <point x="765" y="451" type="curve" smooth="yes"/>
      <point x="765" y="279"/>
      <point x="698" y="90"/>
      <point x="504" y="90" type="curve" smooth="yes"/>
      <point x="406" y="90"/>
      <point x="320" y="158"/>
      <point x="320" y="342" type="curve" smooth="yes"/>
      <point x="320" y="921" type="line"/>
      <point x="292" y="960" type="line"/>
      <point x="204" y="925"/>
      <point x="137" y="906"/>
      <point x="41" y="894" type="curve"/>
      <point x="41" y="854" type="line"/>
      <point x="164" y="842"/>
      <point x="170" y="838"/>
      <point x="170" y="711" type="curve" smooth="yes"/>
      <point x="170" y="289" type="line" smooth="yes"/>
      <point x="170" y="39"/>
      <point x="305" y="-30"/>
      <point x="457" y="-30" type="curve" smooth="yes"/>
      <point x="690" y="-30"/>
    </contour>
  </outline>
</glyph>
<glyph name="LtnSmTurnedV" format="2">
  <advance width="1010"/>
  <unicode hex="028C"/>
  <anchor x="800" y="0" name="H"/>
  <anchor x="504" y="-100" name="L"/>
  <anchor x="720" y="0" name="O"/>
  <anchor x="824" y="900" name="R"/>
  <anchor x="504" y="1050" name="U"/>
  <outline>
    <contour>
      <point x="100" y="62"/>
      <point x="20" y="43" type="curve"/>
      <point x="20" y="0" type="line"/>
      <point x="343" y="0" type="line"/>
      <point x="343" y="43" type="line"/>
      <point x="245" y="58"/>
      <point x="225" y="70"/>
      <point x="239" y="111" type="curve" smooth="yes"/>
      <point x="470" y="752" type="line"/>
      <point x="716" y="111" type="line" smooth="yes"/>
      <point x="733" y="68"/>
      <point x="706" y="56"/>
      <point x="603" y="43" type="curve"/>
      <point x="603" y="0" type="line"/>
      <point x="989" y="0" type="line"/>
      <point x="989" y="43" type="line"/>
      <point x="923" y="58"/>
      <point x="890" y="74"/>
      <point x="878" y="111" type="curve"/>
      <point x="548" y="960" type="line"/>
      <point x="513" y="952"/>
      <point x="436" y="930"/>
      <point x="413" y="871" type="curve" smooth="yes"/>
      <point x="130" y="111" type="line" smooth="yes"/>
      <point x="116" y="72"/>
    </contour>
  </outline>
</glyph>
<glyph name="LtnSmTurnedW" format="2">
  <advance width="1446"/>
  <unicode hex="028D"/>
  <anchor x="722" y="-100" name="L"/>
  <anchor x="722" y="1050" name="U"/>
  <outline>
    <contour>
      <point x="102" y="62"/>
      <point x="20" y="43" type="curve"/>
      <point x="20" y="0" type="line"/>
      <point x="345" y="0" type="line"/>
      <point x="345" y="43" type="line"/>
      <point x="253" y="58"/>
      <point x="220" y="74"/>
      <point x="228" y="105" type="curve" smooth="yes"/>
      <point x="401" y="740" type="line"/>
      <point x="661" y="0" type="line"/>
      <point x="677" y="0"/>
      <point x="724" y="0"/>
      <point x="724" y="0" type="curve"/>
      <point x="732" y="234" type="line"/>
      <point x="478" y="960" type="line"/>
      <point x="444" y="952"/>
      <point x="358" y="930"/>
      <point x="341" y="871" type="curve" smooth="yes"/>
      <point x="120" y="105" type="line" smooth="yes"/>
      <point x="112" y="74"/>
    </contour>
    <contour>
      <point x="921" y="871" type="curve" smooth="yes"/>
      <point x="654" y="105" type="line"/>
      <point x="675" y="0" type="line"/>
      <point x="675" y="0"/>
      <point x="712" y="0"/>
      <point x="730" y="0" type="curve"/>
      <point x="976" y="740" type="line"/>
      <point x="1164" y="105" type="line" smooth="yes"/>
      <point x="1173" y="80"/>
      <point x="1169" y="56"/>
      <point x="1039" y="43" type="curve"/>
      <point x="1039" y="0" type="line"/>
      <point x="1425" y="0" type="line"/>
      <point x="1425" y="43" type="line"/>
      <point x="1359" y="58"/>
      <point x="1322" y="80"/>
      <point x="1316" y="105" type="curve"/>
      <point x="1054" y="960" type="line"/>
      <point x="1019" y="952"/>
      <point x="941" y="932"/>
    </contour>
  </outline>
</glyph>
<glyph name="LtnSmEzhCurl" format="2">
  <advance width="920"/>
  <unicode hex="0293"/>
  <anchor x="428" y="-600" name="L"/>
  <anchor x="460" y="1050" name="U"/>
  <outline>
    <contour>
      <point x="389" y="346" type="line"/>
      <point x="805" y="887" type="line"/>
      <point x="780" y="930" type="line"/>
      <point x="291" y="930" type="line" smooth="yes"/>
      <point x="205" y="930"/>
      <point x="172" y="930"/>
      <point x="115" y="946" type="curve"/>
      <point x="96" y="702" type="line"/>
      <point x="145" y="690" type="line"/>
      <point x="172" y="813"/>
      <point x="219" y="840"/>
      <point x="262" y="840" type="curve" smooth="yes"/>
      <point x="602" y="840" type="line"/>
      <point x="174" y="290" type="line"/>
      <point x="209" y="246" type="line"/>
    </contour>
    <contour>
      <point x="850" y="-308"/>
      <point x="850" y="-26" type="curve"/>
      <point x="850" y="228"/>
      <point x="686" y="371"/>
      <point x="473" y="375" type="curve"/>
      <point x="379" y="375"/>
      <point x="272" y="349"/>
      <point x="174" y="290" type="curve"/>
      <point x="180" y="279"/>
      <point x="200" y="253"/>
      <point x="209" y="246" type="curve"/>
      <point x="262" y="264"/>
      <point x="315" y="274"/>
      <point x="369" y="274" type="curve" smooth="yes"/>
      <point x="580" y="279"/>
      <point x="700" y="103"/>
      <point x="700" y="-77" type="curve" smooth="yes"/>
      <point x="700" y="-280"/>
      <point x="587" y="-395"/>
      <point x="428" y="-395" type="curve" smooth="yes"/>
      <point x="271" y="-395"/>
      <point x="167" y="-295"/>
      <point x="167" y="-200" type="curve" smooth="yes"/>
      <point x="167" y="-128"/>
      <point x="232" y="-86"/>
      <point x="307" y="-86" type="curve" smooth="yes"/>
      <point x="460" y="-86"/>
      <point x="569" y="-128"/>
      <point x="811" y="-510" type="curve"/>
      <point x="869" y="-479" type="line"/>
      <point x="657" y="-104"/>
      <point x="555" y="18"/>
      <point x="363" y="18" type="curve" smooth="yes"/>
      <point x="184" y="18"/>
      <point x="36" y="-113"/>
      <point x="36" y="-236" type="curve" smooth="yes"/>
      <point x="36" y="-405"/>
      <point x="193" y="-500"/>
      <point x="389" y="-500" type="curve" smooth="yes"/>
      <point x="613" y="-500"/>
    </contour>
  </outline>
</glyph>
<glyph name="LtnInvGlottalStop" format="2">
  <advance width="930"/>
  <unicode hex="0296"/>
  <anchor x="455" y="-100" name="L"/>
  <anchor x="455" y="1690" name="U"/>
  <outline>
    <contour>
      <point x="212" y="-30"/>
      <point x="432" y="-30" type="curve" smooth="yes"/>
      <point x="638" y="-30"/>
      <point x="850" y="118"/>
      <point x="850" y="365" type="curve" smooth="yes"/>
      <point x="850" y="642"/>
      <point x="520" y="782"/>
      <point x="520" y="1057" type="curve" smooth="yes"/>
      <point x="520" y="1416" type="line" smooth="yes"/>
      <point x="520" y="1436"/>
      <point x="581" y="1459"/>
      <point x="690" y="1477" type="curve"/>
      <point x="690" y="1520" type="line"/>
      <point x="200" y="1520" type="line"/>
      <point x="200" y="1477" type="line"/>
      <point x="315" y="1457"/>
      <point x="370" y="1438"/>
      <point x="370" y="1416" type="curve" smooth="yes"/>
      <point x="370" y="1024" type="line" smooth="yes"/>
      <point x="370" y="715"/>
      <point x="700" y="570"/>
      <point x="700" y="340" type="curve" smooth="yes"/>
      <point x="700" y="176"/>
      <point x="604" y="65"/>
      <point x="485" y="65" type="curve" smooth="yes"/>
      <point x="322" y="65"/>
      <point x="222" y="183"/>
      <point x="217" y="353" type="curve"/>
      <point x="152" y="355"/>
      <point x="67" y="312"/>
      <point x="60" y="290" type="curve"/>
      <point x="78" y="97"/>
    </contour>
  </outline>
</glyph>
<glyph name="LtnBilabialClick" format="2">
  <advance width="1269"/>
  <unicode hex="0298"/>
  <anchor x="616" y="-100" name="L"/>
  <anchor x="616" y="1370" name="U"/>
  <outline>
    <contour>
      <point x="595" y="-30" type="curve" smooth="yes"/>
      <point x="914" y="-30"/>
      <point x="1178" y="285"/>
      <point x="1178" y="647" type="curve"/>
      <point x="1178" y="973"/>
      <point x="998" y="1290"/>
      <point x="653" y="1290" type="curve" smooth="yes"/>
      <point x="324" y="1290"/>
      <point x="70" y="975"/>
      <point x="70" y="612" type="curve" smooth="yes"/>
      <point x="70" y="276"/>
      <point x="259" y="-30"/>
    </contour>
    <contour>
      <point x="606" y="487" type="curve" smooth="yes"/>
      <point x="684" y="487"/>
      <point x="743" y="559"/>
      <point x="743" y="649" type="curve"/>
      <point x="743" y="723"/>
      <point x="712" y="762"/>
      <point x="645" y="762" type="curve" smooth="yes"/>
      <point x="569" y="762"/>
      <point x="506" y="688"/>
      <point x="506" y="598" type="curve" smooth="yes"/>
      <point x="506" y="526"/>
      <point x="536" y="487"/>
    </contour>
    <contour>
      <point x="624" y="90" type="curve" smooth="yes"/>
      <point x="404" y="90"/>
      <point x="225" y="342"/>
      <point x="225" y="641" type="curve" smooth="yes"/>
      <point x="225" y="967"/>
      <point x="372" y="1175"/>
      <point x="624" y="1175" type="curve" smooth="yes"/>
      <point x="866" y="1175"/>
      <point x="1023" y="905"/>
      <point x="1023" y="629" type="curve"/>
      <point x="1023" y="276"/>
      <point x="860" y="90"/>
    </contour>
  </outline>
</glyph>
<glyph name="LtnSmCapB" format="2">
  <advance width="984"/>
  <unicode hex="0299"/>
  <anchor x="477" y="-100" name="L"/>
  <anchor x="477" y="1050" name="U"/>
  <outline>
    <contour>
      <point x="905" y="96"/>
      <point x="905" y="265" type="curve"/>
      <point x="905" y="403"/>
      <point x="798" y="512"/>
      <point x="648" y="537" type="curve"/>
      <point x="765" y="586"/>
      <point x="815" y="658"/>
      <point x="815" y="759" type="curve" smooth="yes"/>
      <point x="815" y="884"/>
      <point x="673" y="960"/>
      <point x="431" y="960" type="curve" smooth="yes"/>
      <point x="296" y="960"/>
      <point x="148" y="937"/>
      <point x="50" y="915" type="curve"/>
      <point x="59" y="859" type="line"/>
      <point x="165" y="872"/>
      <point x="281" y="880"/>
      <point x="379" y="880" type="curve" smooth="yes"/>
      <point x="611" y="880"/>
      <point x="665" y="806"/>
      <point x="665" y="722" type="curve" smooth="yes"/>
      <point x="665" y="647"/>
      <point x="630" y="548"/>
      <point x="376" y="548" type="curve" smooth="yes"/>
      <point x="305" y="548" type="line"/>
      <point x="314" y="456" type="line"/>
      <point x="354" y="465"/>
      <point x="397" y="473"/>
      <point x="479" y="473" type="curve" smooth="yes"/>
      <point x="687" y="473"/>
      <point x="750" y="344"/>
      <point x="750" y="245" type="curve" smooth="yes"/>
      <point x="750" y="148"/>
      <point x="665" y="74"/>
      <point x="495" y="74" type="curve" smooth="yes"/>
      <point x="419" y="74"/>
      <point x="374" y="85"/>
      <point x="335" y="101" type="curve"/>
      <point x="127" y="0" type="line"/>
      <point x="227" y="-6"/>
      <point x="416" y="-10"/>
      <point x="516" y="-10" type="curve"/>
      <point x="759" y="-10"/>
    </contour>
    <contour>
      <point x="55" y="0" type="line"/>
      <point x="460" y="0" type="line"/>
      <point x="460" y="32" type="line"/>
      <point x="370" y="45"/>
      <point x="345" y="93"/>
      <point x="345" y="105" type="curve" smooth="yes"/>
      <point x="345" y="916" type="line"/>
      <point x="195" y="900" type="line"/>
      <point x="195" y="103" type="line" smooth="yes"/>
      <point x="195" y="90"/>
      <point x="139" y="60"/>
      <point x="55" y="43" type="curve"/>
    </contour>
  </outline>
</glyph>
<glyph name="LtnSmQHook" format="2">
  <advance width="1072"/>
  <unicode hex="02A0"/>
  <anchor x="431" y="0" name="L"/>
  <anchor x="557" y="1180" name="U"/>
  <outline>
    <contour>
      <point x="416" y="-30" type="curve" smooth="yes"/>
      <point x="584" y="-30"/>
      <point x="684" y="84"/>
      <point x="819" y="260" type="curve"/>
      <point x="813" y="270"/>
      <point x="799" y="289"/>
      <point x="782" y="297" type="curve"/>
      <point x="688" y="207"/>
      <point x="592" y="100"/>
      <point x="487" y="100" type="curve" smooth="yes"/>
      <point x="377" y="100"/>
      <point x="230" y="248"/>
      <point x="230" y="475" type="curve" smooth="yes"/>
      <point x="230" y="725"/>
      <point x="371" y="850"/>
      <point x="520" y="850" type="curve" smooth="yes"/>
      <point x="621" y="850"/>
      <point x="711" y="801"/>
      <point x="752" y="717" type="curve"/>
      <point x="795" y="743"/>
      <point x="811" y="760"/>
      <point x="811" y="840" type="curve"/>
      <point x="707" y="944"/>
      <point x="631" y="960"/>
      <point x="551" y="960" type="curve" smooth="yes"/>
      <point x="500" y="960"/>
      <point x="420" y="936"/>
      <point x="344" y="895" type="curve" smooth="yes"/>
      <point x="250" y="842"/>
      <point x="80" y="678"/>
      <point x="80" y="444" type="curve" smooth="yes"/>
      <point x="80" y="147"/>
      <point x="268" y="-30"/>
    </contour>
    <contour>
      <point x="575" y="-480" type="line"/>
      <point x="1034" y="-480" type="line"/>
      <point x="1034" y="-437" type="line"/>
      <point x="932" y="-418"/>
      <point x="895" y="-396"/>
      <point x="895" y="-375" type="curve" smooth="yes"/>
      <point x="895" y="627" type="line"/>
      <point x="832" y="658"/>
      <point x="793" y="661"/>
      <point x="745" y="658" type="curve"/>
      <point x="745" y="-375" type="line" smooth="yes"/>
      <point x="745" y="-398"/>
      <point x="700" y="-418"/>
      <point x="575" y="-437" type="curve"/>
    </contour>
    <contour>
      <point x="895" y="550" type="curve"/>
      <point x="895" y="1012" type="line" smooth="yes"/>
      <point x="895" y="1174"/>
      <point x="907" y="1231"/>
      <point x="971" y="1231" type="curve" smooth="yes"/>
      <point x="1008" y="1231"/>
      <point x="1036" y="1221"/>
      <point x="1105" y="1151" type="curve"/>
      <point x="1144" y="1169"/>
      <point x="1232" y="1231"/>
      <point x="1232" y="1253" type="curve"/>
      <point x="1232" y="1278"/>
      <point x="1133" y="1356"/>
      <point x="1054" y="1356" type="curve" smooth="yes"/>
      <point x="1002" y="1356"/>
      <point x="926" y="1339"/>
      <point x="848" y="1259" type="curve" smooth="yes"/>
      <point x="757" y="1165"/>
      <point x="745" y="1094"/>
      <point x="745" y="967" type="curve" smooth="yes"/>
      <point x="745" y="568" type="line"/>
      <point x="783" y="553"/>
      <point x="845" y="544"/>
    </contour>
  </outline>
</glyph>
<glyph name="LtnSmTcDigraphCurl" format="2">
  <advance width="1395"/>
  <unicode hex="02A8"/>
  <anchor x="678" y="-100" name="L"/>
  <anchor x="678" y="1320" name="U"/>
  <outline>
    <contour>
      <point x="600" y="45"/>
      <point x="721" y="143" type="curve" smooth="yes"/>
      <point x="906" y="292"/>
      <point x="980" y="330"/>
      <point x="1082" y="330" type="curve" smooth="yes"/>
      <point x="1184" y="330"/>
      <point x="1225" y="261"/>
      <point x="1225" y="208" type="curve" smooth="yes"/>
      <point x="1225" y="157"/>
      <point x="1183" y="100"/>
      <point x="1057" y="100" type="curve" smooth="yes"/>
      <point x="858" y="100"/>
      <point x="730" y="248"/>
      <point x="730" y="475" type="curve" smooth="yes"/>
      <point x="730" y="725"/>
      <point x="860" y="850"/>
      <point x="1000" y="850" type="curve" smooth="yes"/>
      <point x="1137" y="850"/>
      <point x="1209" y="774"/>
      <point x="1231" y="727" type="curve"/>
      <point x="1268" y="717" type="line"/>
      <point x="1293" y="754"/>
      <point x="1331" y="848"/>
      <point x="1325" y="881" type="curve"/>
      <point x="1280" y="928"/>
      <point x="1178" y="960"/>
      <point x="1090" y="960" type="curve" smooth="yes"/>
      <point x="803" y="960"/>
      <point x="580" y="731"/>
      <point x="580" y="444" type="curve" smooth="yes"/>
      <point x="580" y="147"/>
      <point x="760" y="-30"/>
      <point x="985" y="-30" type="curve" smooth="yes"/>
      <point x="1160" y="-30"/>
      <point x="1333" y="97"/>
      <point x="1335" y="249" type="curve" smooth="yes"/>
      <point x="1337" y="377"/>
      <point x="1240" y="445"/>
      <point x="1137" y="445" type="curve" smooth="yes"/>
      <point x="1019" y="445"/>
      <point x="917" y="399"/>
      <point x="698" y="219" type="curve" smooth="yes"/>
      <point x="600" y="139"/>
      <point x="515" y="100"/>
      <point x="428" y="100" type="curve" smooth="yes"/>
      <point x="348" y="100"/>
      <point x="320" y="147"/>
      <point x="320" y="307" type="curve" smooth="yes"/>
      <point x="320" y="835" type="line"/>
      <point x="372" y="835" type="line" smooth="yes"/>
      <point x="480" y="835"/>
      <point x="543" y="816"/>
      <point x="575" y="800" type="curve"/>
      <point x="602" y="812"/>
      <point x="651" y="864"/>
      <point x="676" y="901" type="curve"/>
      <point x="647" y="930" type="line"/>
      <point x="320" y="930" type="line"/>
      <point x="320" y="1255" type="line"/>
      <point x="289" y="1280" type="line"/>
      <point x="170" y="1176" type="line"/>
      <point x="170" y="930" type="line"/>
      <point x="98" y="930" type="line"/>
      <point x="20" y="863" type="line"/>
      <point x="41" y="835" type="line"/>
      <point x="170" y="835" type="line"/>
      <point x="170" y="221" type="line" smooth="yes"/>
      <point x="170" y="35"/>
      <point x="252" y="-30"/>
      <point x="344" y="-30" type="curve" smooth="yes"/>
      <point x="473" y="-30"/>
    </contour>
  </outline>
</glyph>
<glyph name="ModSmH" format="2">
  <advance width="791"/>
  <unicode hex="02B0"/>
  <anchor x="411" y="540" name="L"/>
  <anchor x="438" y="1620" name="U"/>
  <outline>
    <contour>
      <point x="39" y="620" type="line"/>
      <point x="340" y="620" type="line"/>
      <point x="340" y="656" type="line"/>
      <point x="279" y="667"/>
      <point x="252" y="680"/>
      <point x="252" y="692" type="curve" smooth="yes"/>
      <point x="252" y="950" type="line"/>
      <point x="332" y="1062"/>
      <point x="413" y="1108"/>
      <point x="467" y="1108" type="curve" smooth="yes"/>
      <point x="529" y="1108"/>
      <point x="557" y="1087"/>
      <point x="557" y="990" type="curve" smooth="yes"/>
      <point x="557" y="692" type="line" smooth="yes"/>
      <point x="557" y="682"/>
      <point x="536" y="671"/>
      <point x="469" y="656" type="curve"/>
      <point x="469" y="620" type="line"/>
      <point x="770" y="620" type="line"/>
      <point x="770" y="656" type="line"/>
      <point x="697" y="672"/>
      <point x="682" y="682"/>
      <point x="682" y="692" type="curve" smooth="yes"/>
      <point x="682" y="1055" type="line" smooth="yes"/>
      <point x="682" y="1145"/>
      <point x="618" y="1196"/>
      <point x="517" y="1196" type="curve" smooth="yes"/>
      <point x="445" y="1196"/>
      <point x="331" y="1140"/>
      <point x="252" y="1042" type="curve"/>
      <point x="252" y="1530" type="line"/>
      <point x="226" y="1550" type="line"/>
      <point x="172" y="1527"/>
      <point x="118" y="1515"/>
      <point x="39" y="1502" type="curve"/>
      <point x="39" y="1468" type="line"/>
      <point x="123" y="1459"/>
      <point x="126" y="1457"/>
      <point x="126" y="1389" type="curve" smooth="yes"/>
      <point x="126" y="692" type="line" smooth="yes"/>
      <point x="126" y="679"/>
      <point x="100" y="670"/>
      <point x="39" y="656" type="curve"/>
    </contour>
  </outline>
</glyph>
<glyph name="ModSmJ" format="2">
  <advance width="371"/>
  <unicode hex="02B2"/>
  <anchor x="114" y="258" name="L"/>
  <anchor x="183" y="1286" name="U"/>
  <outline>
    <contour>
      <point x="-52" y="320" type="curve" smooth="yes"/>
      <point x="-6" y="320"/>
      <point x="61" y="346"/>
      <point x="111" y="380" type="curve" smooth="yes"/>
      <point x="185" y="432"/>
      <point x="245" y="495"/>
      <point x="245" y="679" type="curve" smooth="yes"/>
      <point x="245" y="1196" type="line"/>
      <point x="219" y="1196" type="line"/>
      <point x="160" y="1175"/>
      <point x="108" y="1160"/>
      <point x="31" y="1148" type="curve"/>
      <point x="31" y="1114" type="line"/>
      <point x="118" y="1107"/>
      <point x="119" y="1098"/>
      <point x="119" y="1012" type="curve" smooth="yes"/>
      <point x="119" y="646" type="line" smooth="yes"/>
      <point x="119" y="462"/>
      <point x="71" y="411"/>
      <point x="17" y="411" type="curve" smooth="yes"/>
      <point x="-18" y="411"/>
      <point x="-49" y="416"/>
      <point x="-79" y="438" type="curve"/>
      <point x="-106" y="427"/>
      <point x="-168" y="375"/>
      <point x="-168" y="361" type="curve" smooth="yes"/>
      <point x="-168" y="348"/>
      <point x="-109" y="320"/>
    </contour>
    <contour>
      <point x="175" y="1280" type="curve" smooth="yes"/>
      <point x="226" y="1280"/>
      <point x="266" y="1323"/>
      <point x="266" y="1373" type="curve" smooth="yes"/>
      <point x="266" y="1415"/>
      <point x="242" y="1440"/>
      <point x="197" y="1440" type="curve" smooth="yes"/>
      <point x="147" y="1440"/>
      <point x="106" y="1399"/>
      <point x="106" y="1348" type="curve" smooth="yes"/>
      <point x="106" y="1306"/>
      <point x="128" y="1280"/>
    </contour>
  </outline>
</glyph>
<glyph name="ModSmTrndR" format="2">
  <advance width="568"/>
  <unicode hex="02B4"/>
  <anchor x="292" y="540" name="L"/>
  <anchor x="300" y="1286" name="U"/>
  <outline>
    <contour>
      <point x="146" y="602" type="curve" smooth="yes"/>
      <point x="226" y="602"/>
      <point x="284" y="657"/>
      <point x="334" y="746" type="curve"/>
      <point x="344" y="623" type="line"/>
      <point x="368" y="602" type="line"/>
      <point x="414" y="624"/>
      <point x="486" y="637"/>
      <point x="546" y="650" type="curve"/>
      <point x="546" y="684" type="line"/>
      <point x="494" y="686"/>
      <point x="487" y="689"/>
      <point x="474" y="700" type="curve" smooth="yes"/>
      <point x="466" y="707"/>
      <point x="458" y="724"/>
      <point x="458" y="776" type="curve" smooth="yes"/>
      <point x="458" y="1178" type="line"/>
      <point x="436" y="1196" type="line"/>
      <point x="368" y="1177"/>
      <point x="287" y="1165"/>
      <point x="221" y="1157" type="curve"/>
      <point x="221" y="1124" type="line"/>
      <point x="316" y="1119"/>
      <point x="333" y="1106"/>
      <point x="333" y="1034" type="curve" smooth="yes"/>
      <point x="333" y="878" type="line"/>
      <point x="288" y="742"/>
      <point x="225" y="696"/>
      <point x="183" y="696" type="curve" smooth="yes"/>
      <point x="148" y="696"/>
      <point x="117" y="718"/>
      <point x="106" y="782" type="curve"/>
      <point x="76" y="782" type="line"/>
      <point x="53" y="739"/>
      <point x="28" y="633"/>
      <point x="46" y="624" type="curve"/>
      <point x="80" y="607"/>
      <point x="116" y="602"/>
    </contour>
  </outline>
</glyph>
<glyph name="ModApos" format="2">
  <advance width="363"/>
  <unicode hex="02BC"/>
  <outline>
    <contour>
      <point x="101" y="1060" type="line"/>
      <point x="230" y="1141"/>
      <point x="285" y="1236"/>
      <point x="292" y="1328" type="curve"/>
      <point x="297" y="1396"/>
      <point x="276" y="1466"/>
      <point x="203" y="1497" type="curve"/>
      <point x="161" y="1502"/>
      <point x="21" y="1458"/>
      <point x="0" y="1432" type="curve"/>
      <point x="11" y="1390" type="line"/>
      <point x="116" y="1389"/>
      <point x="156" y="1328"/>
      <point x="151" y="1257" type="curve" smooth="yes"/>
      <point x="147" y="1196"/>
      <point x="118" y="1144"/>
      <point x="62" y="1093" type="curve"/>
    </contour>
  </outline>
</glyph>
<glyph name="ModGlottalStop" format="2">
  <advance width="623"/>
  <unicode hex="02C0"/>
  <anchor x="318" y="750" name="L"/>
  <anchor x="318" y="1620" name="U"/>
  <outline>
    <contour>
      <point x="349" y="797"/>
      <point x="374" y="810" type="curve"/>
      <point x="374" y="953" type="line" smooth="yes"/>
      <point x="374" y="1118"/>
      <point x="605" y="1171"/>
      <point x="605" y="1349" type="curve" smooth="yes"/>
      <point x="605" y="1461"/>
      <point x="513" y="1550"/>
      <point x="358" y="1550" type="curve" smooth="yes"/>
      <point x="185" y="1550"/>
      <point x="32" y="1455"/>
      <point x="32" y="1342" type="curve" smooth="yes"/>
      <point x="32" y="1336"/>
      <point x="32" y="1328"/>
      <point x="33" y="1322" type="curve"/>
      <point x="52" y="1304" type="line"/>
      <point x="94" y="1308"/>
      <point x="145" y="1314"/>
      <point x="175" y="1327" type="curve"/>
      <point x="171" y="1338"/>
      <point x="167" y="1350"/>
      <point x="167" y="1362" type="curve" smooth="yes"/>
      <point x="167" y="1424"/>
      <point x="240" y="1482"/>
      <point x="304" y="1482" type="curve" smooth="yes"/>
      <point x="398" y="1482"/>
      <point x="480" y="1420"/>
      <point x="480" y="1322" type="curve" smooth="yes"/>
      <point x="480" y="1184"/>
      <point x="249" y="1103"/>
      <point x="249" y="918" type="curve" smooth="yes"/>
      <point x="249" y="801" type="line"/>
      <point x="272" y="779" type="line"/>
      <point x="298" y="785"/>
    </contour>
  </outline>
</glyph>
<glyph name="ModVertLine" format="2">
  <advance width="420"/>
  <unicode hex="02C8"/>
  <outline>
    <contour>
      <point x="243" y="1028"/>
      <point x="270" y="1041" type="curve"/>
      <point x="270" y="1626" type="line"/>
      <point x="243" y="1650" type="line"/>
      <point x="217" y="1644"/>
      <point x="173" y="1630"/>
      <point x="150" y="1620" type="curve"/>
      <point x="150" y="1032" type="line"/>
      <point x="175" y="1010" type="line"/>
      <point x="201" y="1016"/>
    </contour>
  </outline>
</glyph>
<glyph name="ModLowGraveAccent" format="2">
  <advance width="514"/>
  <unicode hex="02CE"/>
  <anchor x="257" y="-600" name="L"/>
  <outline>
    <contour>
      <point x="495" y="-393"/>
      <point x="514" y="-368" type="curve"/>
      <point x="127" y="-51" type="line"/>
      <point x="98" y="-67"/>
      <point x="28" y="-104"/>
      <point x="8" y="-125" type="curve"/>
      <point x="0" y="-170" type="line"/>
      <point x="469" y="-413" type="line"/>
      <point x="491" y="-403"/>
    </contour>
  </outline>
</glyph>
<glyph name="ModCntrdRtHalfRing" format="2">
  <advance width="540"/>
  <unicode hex="02D2"/>
  <outline>
    <contour>
      <point x="333" y="683"/>
      <point x="132" y="683" type="curve" smooth="yes"/>
      <point x="120" y="683"/>
      <point x="108" y="682"/>
      <point x="96" y="681" type="curve"/>
      <point x="90" y="577" type="line"/>
      <point x="101" y="578"/>
      <point x="112" y="579"/>
      <point x="122" y="579" type="curve" smooth="yes"/>
      <point x="266" y="579"/>
      <point x="357" y="477"/>
      <point x="357" y="341" type="curve" smooth="yes"/>
      <point x="357" y="208"/>
      <point x="266" y="103"/>
      <point x="125" y="103" type="curve" smooth="yes"/>
      <point x="116" y="103"/>
      <point x="106" y="104"/>
      <point x="96" y="105" type="curve"/>
      <point x="90" y="0" type="line"/>
      <point x="102" y="-1"/>
      <point x="114" y="-2"/>
      <point x="126" y="-2" type="curve" smooth="yes"/>
      <point x="336" y="-2"/>
      <point x="460" y="162"/>
      <point x="460" y="341" type="curve" smooth="yes"/>
      <point x="460" y="524"/>
    </contour>
  </outline>
</glyph>
<glyph name="ModUpTack" format="2">
  <advance width="760"/>
  <unicode hex="02D4"/>
  <outline>
    <contour>
      <point x="87" y="258"/>
      <point x="80" y="232" type="curve"/>
      <point x="105" y="205" type="line"/>
      <point x="651" y="205" type="line"/>
      <point x="665" y="232"/>
      <point x="672" y="244"/>
      <point x="680" y="271" type="curve"/>
      <point x="657" y="295" type="line"/>
      <point x="107" y="295" type="line"/>
      <point x="95" y="273"/>
    </contour>
    <contour>
      <point x="362" y="710"/>
      <point x="335" y="694" type="curve"/>
      <point x="335" y="239" type="line"/>
      <point x="362" y="215" type="line"/>
      <point x="388" y="223"/>
      <point x="402" y="232"/>
      <point x="425" y="245" type="curve"/>
      <point x="425" y="703" type="line"/>
      <point x="400" y="725" type="line"/>
      <point x="374" y="717"/>
    </contour>
  </outline>
</glyph>
<glyph name="ModDwnTack" format="2">
  <advance width="760"/>
  <unicode hex="02D5"/>
  <outline>
    <contour>
      <point x="673" y="657"/>
      <point x="680" y="683" type="curve"/>
      <point x="655" y="710" type="line"/>
      <point x="109" y="710" type="line"/>
      <point x="95" y="683"/>
      <point x="88" y="671"/>
      <point x="80" y="644" type="curve"/>
      <point x="103" y="620" type="line"/>
      <point x="653" y="620" type="line"/>
      <point x="665" y="642"/>
    </contour>
    <contour>
      <point x="398" y="205"/>
      <point x="425" y="221" type="curve"/>
      <point x="425" y="676" type="line"/>
      <point x="398" y="700" type="line"/>
      <point x="372" y="692"/>
      <point x="358" y="683"/>
      <point x="335" y="670" type="curve"/>
      <point x="335" y="212" type="line"/>
      <point x="360" y="190" type="line"/>
      <point x="386" y="198"/>
    </contour>
  </outline>
</glyph>
<glyph name="DotAbv" format="2">
  <advance width="400"/>
  <unicode hex="02D9"/>
  <outline>
    <contour>
      <point x="300" y="1186"/>
      <point x="300" y="1261" type="curve"/>
      <point x="300" y="1323"/>
      <point x="272" y="1356"/>
      <point x="215" y="1356" type="curve" smooth="yes"/>
      <point x="152" y="1356"/>
      <point x="100" y="1296"/>
      <point x="100" y="1220" type="curve" smooth="yes"/>
      <point x="100" y="1159"/>
      <point x="125" y="1124"/>
      <point x="184" y="1124" type="curve" smooth="yes"/>
      <point x="250" y="1124"/>
    </contour>
  </outline>
</glyph>
<glyph name="Ogonek" format="2">
  <advance width="530"/>
  <unicode hex="02DB"/>
  <anchor x="289" y="-600" name="L"/>
  <outline>
    <contour>
      <point x="422" y="-371"/>
      <point x="479" y="-299" type="curve"/>
      <point x="455" y="-262" type="line"/>
      <point x="399" y="-313"/>
      <point x="348" y="-336"/>
      <point x="315" y="-336" type="curve" smooth="yes"/>
      <point x="264" y="-336"/>
      <point x="229" y="-313"/>
      <point x="229" y="-264" type="curve" smooth="yes"/>
      <point x="229" y="-201"/>
      <point x="261" y="-94"/>
      <point x="453" y="24" type="curve"/>
      <point x="408" y="43" type="line"/>
      <point x="208" y="-65"/>
      <point x="100" y="-180"/>
      <point x="100" y="-299" type="curve" smooth="yes"/>
      <point x="100" y="-418"/>
      <point x="178" y="-444"/>
      <point x="256" y="-444" type="curve" smooth="yes"/>
      <point x="322" y="-444"/>
    </contour>
  </outline>
</glyph>
<glyph name="SmTilde" format="2">
  <advance width="822"/>
  <unicode hex="02DC"/>
  <outline>
    <contour>
      <point x="705" y="1238"/>
      <point x="752" y="1346" type="curve"/>
      <point x="698" y="1369" type="line"/>
      <point x="653" y="1291"/>
      <point x="604" y="1246"/>
      <point x="553" y="1246" type="curve" smooth="yes"/>
      <point x="489" y="1246"/>
      <point x="410" y="1359"/>
      <point x="309" y="1359" type="curve" smooth="yes"/>
      <point x="205" y="1359"/>
      <point x="117" y="1242"/>
      <point x="70" y="1133" type="curve"/>
      <point x="123" y="1113" type="line"/>
      <point x="172" y="1187"/>
      <point x="213" y="1234"/>
      <point x="266" y="1234" type="curve" smooth="yes"/>
      <point x="344" y="1234"/>
      <point x="420" y="1121"/>
      <point x="512" y="1121" type="curve" smooth="yes"/>
      <point x="616" y="1121"/>
    </contour>
  </outline>
</glyph>
<glyph name="ModVoicing" format="2">
  <advance width="633"/>
  <unicode hex="02EC"/>
  <anchor x="320" y="-600" name="L"/>
  <outline>
    <contour>
      <point x="371" y="-480" type="line"/>
      <point x="633" y="-173" type="line"/>
      <point x="617" y="-146"/>
      <point x="613" y="-138"/>
      <point x="590" y="-126" type="curve"/>
      <point x="320" y="-337" type="line"/>
      <point x="45" y="-126" type="line"/>
      <point x="23" y="-138"/>
      <point x="19" y="-146"/>
      <point x="0" y="-173" type="curve"/>
      <point x="264" y="-480" type="line"/>
    </contour>
  </outline>
</glyph>
<glyph name="ModLowUpArrwhd" format="2">
  <advance width="466"/>
  <unicode hex="02F0"/>
  <outline>
    <contour>
      <point x="416" y="-515" type="curve"/>
      <point x="255" y="-186" type="line"/>
      <point x="241" y="-192"/>
      <point x="219" y="-206"/>
      <point x="207" y="-217" type="curve"/>
      <point x="60" y="-529" type="line"/>
      <point x="68" y="-538" type="line"/>
      <point x="78" y="-534"/>
      <point x="107" y="-523"/>
      <point x="117" y="-514" type="curve"/>
      <point x="228" y="-274" type="line"/>
      <point x="358" y="-530" type="line"/>
      <point x="371" y="-539" type="line"/>
      <point x="387" y="-533"/>
      <point x="405" y="-523"/>
    </contour>
  </outline>
</glyph>
<glyph name="CombGrave" format="2">
  <unicode hex="0300"/>
  <anchor x="-433" y="1410" name="U"/>
  <anchor x="-433" y="1050" name="_U"/>
  <outline>
    <contour>
      <point x="-336" y="1062"/>
      <point x="-319" y="1078" type="curve"/>
      <point x="-559" y="1489" type="line"/>
      <point x="-592" y="1487"/>
      <point x="-679" y="1472"/>
      <point x="-705" y="1465" type="curve"/>
      <point x="-727" y="1424" type="line"/>
      <point x="-375" y="1047" type="line"/>
      <point x="-352" y="1054"/>
    </contour>
  </outline>
</glyph>
<glyph name="CombAcute" format="2">
  <unicode hex="0301"/>
  <anchor x="-543" y="1410" name="U"/>
  <anchor x="-543" y="1050" name="_U"/>
  <outline>
    <contour>
      <point x="-586" y="1047" type="curve"/>
      <point x="-241" y="1427" type="line"/>
      <point x="-264" y="1466" type="line"/>
      <point x="-294" y="1475"/>
      <point x="-378" y="1487"/>
      <point x="-409" y="1489" type="curve"/>
      <point x="-643" y="1075" type="line"/>
      <point x="-628" y="1063"/>
      <point x="-610" y="1051"/>
    </contour>
  </outline>
</glyph>
<glyph name="CombHookAbv" format="2">
  <unicode hex="0309"/>
  <anchor x="-518" y="1370" name="U"/>
  <anchor x="-518" y="1050" name="_U"/>
  <outline>
    <contour>
      <point x="-350" y="1224"/>
      <point x="-350" y="1333" type="curve"/>
      <point x="-350" y="1399"/>
      <point x="-397" y="1443"/>
      <point x="-481" y="1443" type="curve" smooth="yes"/>
      <point x="-574" y="1443"/>
      <point x="-685" y="1377"/>
      <point x="-685" y="1314" type="curve" smooth="yes"/>
      <point x="-685" y="1308"/>
      <point x="-685" y="1304"/>
      <point x="-685" y="1301" type="curve"/>
      <point x="-674" y="1290" type="line"/>
      <point x="-647" y="1292"/>
      <point x="-594" y="1304"/>
      <point x="-574" y="1312" type="curve"/>
      <point x="-578" y="1319"/>
      <point x="-582" y="1326"/>
      <point x="-582" y="1333" type="curve" smooth="yes"/>
      <point x="-582" y="1362"/>
      <point x="-553" y="1395"/>
      <point x="-514" y="1395" type="curve" smooth="yes"/>
      <point x="-475" y="1395"/>
      <point x="-447" y="1370"/>
      <point x="-447" y="1319" type="curve" smooth="yes"/>
      <point x="-447" y="1224"/>
      <point x="-747" y="1187"/>
      <point x="-506" y="1070" type="curve"/>
      <point x="-486" y="1072"/>
      <point x="-464" y="1073"/>
      <point x="-445" y="1086" type="curve"/>
      <point x="-613" y="1185"/>
    </contour>
  </outline>
</glyph>
<glyph name="CombTrndCommaAbv" format="2">
  <unicode hex="0312"/>
  <anchor x="-491" y="1370" name="U"/>
  <anchor x="-491" y="1050" name="_U"/>
  <outline>
    <contour>
      <point x="-630" y="1331"/>
      <point x="-637" y="1239" type="curve"/>
      <point x="-642" y="1171"/>
      <point x="-621" y="1101"/>
      <point x="-548" y="1070" type="curve"/>
      <point x="-506" y="1065"/>
      <point x="-366" y="1109"/>
      <point x="-345" y="1135" type="curve"/>
      <point x="-356" y="1177" type="line"/>
      <point x="-461" y="1178"/>
      <point x="-501" y="1239"/>
      <point x="-496" y="1310" type="curve" smooth="yes"/>
      <point x="-492" y="1371"/>
      <point x="-463" y="1423"/>
      <point x="-407" y="1474" type="curve"/>
      <point x="-446" y="1507" type="line"/>
      <point x="-575" y="1426"/>
    </contour>
  </outline>
</glyph>
<glyph name="CombGraveBlw" format="2">
  <unicode hex="0316"/>
  <anchor x="-513" y="-600" name="L"/>
  <anchor x="-513" y="-100" name="_L"/>
  <outline>
    <contour>
      <point x="-275" y="-483"/>
      <point x="-256" y="-458" type="curve"/>
      <point x="-643" y="-141" type="line"/>
      <point x="-672" y="-157"/>
      <point x="-742" y="-194"/>
      <point x="-762" y="-215" type="curve"/>
      <point x="-770" y="-260" type="line"/>
      <point x="-301" y="-503" type="line"/>
      <point x="-279" y="-493"/>
    </contour>
  </outline>
</glyph>
<glyph name="CombHorn" format="2">
  <advance width="75"/>
  <unicode hex="031B"/>
  <anchor x="0" y="900" name="R_"/>
  <outline>
    <contour>
      <point x="75" y="965"/>
      <point x="75" y="1042" type="curve" smooth="yes"/>
      <point x="75" y="1081"/>
      <point x="54" y="1116"/>
      <point x="23" y="1145" type="curve"/>
      <point x="-155" y="1065" type="line"/>
      <point x="-118" y="1034"/>
      <point x="-97" y="999"/>
      <point x="-97" y="961" type="curve" smooth="yes"/>
      <point x="-97" y="913"/>
      <point x="-156" y="836"/>
      <point x="-299" y="780" type="curve"/>
      <point x="-281" y="718" type="line"/>
      <point x="-6" y="822"/>
    </contour>
  </outline>
</glyph>
<glyph name="CombDwnTackBlw" format="2">
  <unicode hex="031E"/>
  <anchor x="-515" y="-600" name="L"/>
  <anchor x="-515" y="-100" name="_L"/>
  <outline>
    <contour>
      <point x="-312" y="-203"/>
      <point x="-305" y="-177" type="curve"/>
      <point x="-330" y="-150" type="line"/>
      <point x="-696" y="-150" type="line"/>
      <point x="-710" y="-177"/>
      <point x="-717" y="-189"/>
      <point x="-725" y="-216" type="curve"/>
      <point x="-702" y="-240" type="line"/>
      <point x="-332" y="-240" type="line"/>
      <point x="-320" y="-218"/>
    </contour>
    <contour>
      <point x="-497" y="-485"/>
      <point x="-470" y="-469" type="curve"/>
      <point x="-470" y="-184" type="line"/>
      <point x="-497" y="-160" type="line"/>
      <point x="-523" y="-168"/>
      <point x="-537" y="-177"/>
      <point x="-560" y="-190" type="curve"/>
      <point x="-560" y="-478" type="line"/>
      <point x="-535" y="-500" type="line"/>
      <point x="-509" y="-492"/>
    </contour>
  </outline>
</glyph>
<glyph name="CombRetrHook" format="2">
  <unicode hex="0322"/>
  <outline>
    <contour>
      <point x="63" y="-500" type="curve" smooth="yes"/>
      <point x="212" y="-500"/>
      <point x="308" y="-348"/>
      <point x="308" y="-247" type="curve" smooth="yes"/>
      <point x="308" y="-243"/>
      <point x="308" y="-239"/>
      <point x="308" y="-235" type="curve"/>
      <point x="289" y="-196" type="line"/>
      <point x="248" y="-190"/>
      <point x="114" y="-253"/>
      <point x="123" y="-264" type="curve" smooth="yes"/>
      <point x="137" y="-280"/>
      <point x="144" y="-302"/>
      <point x="144" y="-324" type="curve" smooth="yes"/>
      <point x="144" y="-365"/>
      <point x="118" y="-405"/>
      <point x="67" y="-405" type="curve" smooth="yes"/>
      <point x="1" y="-405"/>
      <point x="-30" y="-359"/>
      <point x="-30" y="-196" type="curve" smooth="yes"/>
      <point x="-30" y="40" type="line"/>
      <point x="-120" y="40" type="line"/>
      <point x="-120" y="-247" type="line" smooth="yes"/>
      <point x="-120" y="-422"/>
      <point x="-49" y="-500"/>
    </contour>
  </outline>
</glyph>
<glyph name="CombBridgeBlw" format="2">
  <unicode hex="032A"/>
  <anchor x="-522" y="-600" name="L"/>
  <anchor x="-522" y="-100" name="_L"/>
  <outline>
    <contour>
      <point x="-715" y="-421"/>
      <point x="-698" y="-404" type="curve"/>
      <point x="-698" y="-270" type="line"/>
      <point x="-347" y="-270" type="line"/>
      <point x="-347" y="-433" type="line"/>
      <point x="-322" y="-455" type="line"/>
      <point x="-295" y="-447"/>
      <point x="-275" y="-424"/>
      <point x="-257" y="-404" type="curve"/>
      <point x="-257" y="-204" type="line"/>
      <point x="-279" y="-180" type="line"/>
      <point x="-725" y="-180" type="line"/>
      <point x="-751" y="-194"/>
      <point x="-770" y="-212"/>
      <point x="-788" y="-230" type="curve"/>
      <point x="-788" y="-433" type="line"/>
      <point x="-763" y="-455" type="line"/>
      <point x="-738" y="-442"/>
    </contour>
  </outline>
</glyph>
<glyph name="CombInvDblArchBlw" format="2">
  <unicode hex="032B"/>
  <anchor x="-515" y="-600" name="L"/>
  <anchor x="-515" y="-100" name="_L"/>
  <outline>
    <contour>
      <point x="-227" y="-414"/>
      <point x="-227" y="-296" type="curve" smooth="yes"/>
      <point x="-227" y="-246"/>
      <point x="-244" y="-198"/>
      <point x="-287" y="-133" type="curve"/>
      <point x="-296" y="-137"/>
      <point x="-325" y="-151"/>
      <point x="-335" y="-156" type="curve"/>
      <point x="-319" y="-198"/>
      <point x="-312" y="-237"/>
      <point x="-312" y="-270" type="curve" smooth="yes"/>
      <point x="-312" y="-336"/>
      <point x="-341" y="-380"/>
      <point x="-386" y="-380" type="curve" smooth="yes"/>
      <point x="-427" y="-380"/>
      <point x="-476" y="-343"/>
      <point x="-476" y="-271" type="curve" smooth="yes"/>
      <point x="-476" y="-262"/>
      <point x="-475" y="-252"/>
      <point x="-473" y="-241" type="curve"/>
      <point x="-477" y="-235"/>
      <point x="-487" y="-221"/>
      <point x="-492" y="-215" type="curve"/>
      <point x="-510" y="-221"/>
      <point x="-544" y="-234"/>
      <point x="-558" y="-241" type="curve"/>
      <point x="-556" y="-252"/>
      <point x="-555" y="-262"/>
      <point x="-555" y="-272" type="curve" smooth="yes"/>
      <point x="-555" y="-343"/>
      <point x="-604" y="-380"/>
      <point x="-646" y="-380" type="curve" smooth="yes"/>
      <point x="-690" y="-380"/>
      <point x="-718" y="-336"/>
      <point x="-718" y="-269" type="curve" smooth="yes"/>
      <point x="-718" y="-236"/>
      <point x="-711" y="-198"/>
      <point x="-696" y="-156" type="curve"/>
      <point x="-707" y="-150"/>
      <point x="-735" y="-136"/>
      <point x="-743" y="-133" type="curve"/>
      <point x="-787" y="-199"/>
      <point x="-804" y="-247"/>
      <point x="-804" y="-297" type="curve" smooth="yes"/>
      <point x="-804" y="-415"/>
      <point x="-734" y="-480"/>
      <point x="-664" y="-480" type="curve" smooth="yes"/>
      <point x="-609" y="-480"/>
      <point x="-547" y="-427"/>
      <point x="-515" y="-355" type="curve"/>
      <point x="-474" y="-427"/>
      <point x="-418" y="-480"/>
      <point x="-364" y="-480" type="curve" smooth="yes"/>
      <point x="-298" y="-480"/>
    </contour>
  </outline>
</glyph>
<glyph name="CombCaronBlw" format="2">
  <unicode hex="032C"/>
  <anchor x="-514" y="-600" name="L"/>
  <anchor x="-514" y="-100" name="_L"/>
  <outline>
    <contour>
      <point x="-460" y="-480" type="line"/>
      <point x="-198" y="-173" type="line"/>
      <point x="-214" y="-146"/>
      <point x="-218" y="-138"/>
      <point x="-241" y="-126" type="curve"/>
      <point x="-511" y="-337" type="line"/>
      <point x="-786" y="-126" type="line"/>
      <point x="-808" y="-138"/>
      <point x="-812" y="-146"/>
      <point x="-831" y="-173" type="curve"/>
      <point x="-567" y="-480" type="line"/>
    </contour>
  </outline>
</glyph>
<glyph name="CombBreveBlw" format="2">
  <unicode hex="032E"/>
  <anchor x="-515" y="-600" name="L"/>
  <anchor x="-515" y="-100" name="_L"/>
  <outline>
    <contour>
      <point x="-270" y="-405"/>
      <point x="-190" y="-190" type="curve"/>
      <point x="-206" y="-166"/>
      <point x="-220" y="-155"/>
      <point x="-243" y="-145" type="curve"/>
      <point x="-307" y="-297"/>
      <point x="-423" y="-348"/>
      <point x="-517" y="-348" type="curve" smooth="yes"/>
      <point x="-606" y="-348"/>
      <point x="-721" y="-297"/>
      <point x="-787" y="-145" type="curve"/>
      <point x="-809" y="-155"/>
      <point x="-824" y="-166"/>
      <point x="-840" y="-190" type="curve"/>
      <point x="-760" y="-405"/>
      <point x="-644" y="-480"/>
      <point x="-513" y="-480" type="curve" smooth="yes"/>
      <point x="-393" y="-480"/>
    </contour>
  </outline>
</glyph>
<glyph name="CombTildeBlw" format="2">
  <unicode hex="0330"/>
  <anchor x="-515" y="-600" name="L"/>
  <anchor x="-515" y="-100" name="_L"/>
  <outline>
    <contour>
      <point x="-221" y="-302"/>
      <point x="-174" y="-194" type="curve"/>
      <point x="-228" y="-171" type="line"/>
      <point x="-273" y="-249"/>
      <point x="-322" y="-294"/>
      <point x="-373" y="-294" type="curve" smooth="yes"/>
      <point x="-437" y="-294"/>
      <point x="-516" y="-181"/>
      <point x="-617" y="-181" type="curve" smooth="yes"/>
      <point x="-721" y="-181"/>
      <point x="-809" y="-298"/>
      <point x="-856" y="-407" type="curve"/>
      <point x="-803" y="-427" type="line"/>
      <point x="-754" y="-353"/>
      <point x="-713" y="-306"/>
      <point x="-660" y="-306" type="curve" smooth="yes"/>
      <point x="-582" y="-306"/>
      <point x="-506" y="-419"/>
      <point x="-414" y="-419" type="curve" smooth="yes"/>
      <point x="-310" y="-419"/>
    </contour>
  </outline>
</glyph>
<glyph name="CombLowLine" format="2">
  <unicode hex="0332"/>
  <anchor x="-482" y="-600" name="L"/>
  <anchor x="-482" y="-100" name="_L"/>
  <outline>
    <contour>
      <point x="58" y="-263"/>
      <point x="64" y="-234" type="curve"/>
      <point x="42" y="-210" type="line"/>
      <point x="-987" y="-210" type="line"/>
      <point x="-1000" y="-236"/>
      <point x="-1022" y="-286"/>
      <point x="-1028" y="-315" type="curve"/>
      <point x="-1006" y="-340" type="line"/>
      <point x="25" y="-340" type="line"/>
      <point x="35" y="-315"/>
    </contour>
  </outline>
</glyph>
<glyph name="CombShortSolidusOverlay" format="2">
  <unicode hex="0337"/>
  <outline>
    <contour>
      <point x="-149" y="745" type="line"/>
      <point x="-174" y="782" type="line"/>
      <point x="-213" y="779"/>
      <point x="-267" y="750"/>
      <point x="-306" y="733" type="curve"/>
      <point x="-878" y="183" type="line"/>
      <point x="-855" y="146" type="line"/>
      <point x="-820" y="151"/>
      <point x="-748" y="181"/>
      <point x="-720" y="196" type="curve"/>
    </contour>
  </outline>
</glyph>
<glyph name="CombLngSolidusOverlay" format="2">
  <unicode hex="0338"/>
  <outline>
    <contour>
      <point x="-76" y="1249" type="line"/>
      <point x="-113" y="1275" type="line"/>
      <point x="-147" y="1259"/>
      <point x="-188" y="1213"/>
      <point x="-219" y="1184" type="curve"/>
      <point x="-952" y="-320" type="line"/>
      <point x="-917" y="-347" type="line"/>
      <point x="-887" y="-330"/>
      <point x="-829" y="-277"/>
      <point x="-808" y="-254" type="curve"/>
    </contour>
  </outline>
</glyph>
<glyph name="CombGrPeris" format="2">
  <unicode hex="0342"/>
  <anchor x="-500" y="1050" name="_U"/>
  <outline>
    <contour>
      <point x="-210" y="1205"/>
      <point x="-163" y="1313" type="curve"/>
      <point x="-217" y="1336" type="line"/>
      <point x="-262" y="1258"/>
      <point x="-311" y="1233"/>
      <point x="-362" y="1233" type="curve" smooth="yes"/>
      <point x="-426" y="1233"/>
      <point x="-505" y="1326"/>
      <point x="-606" y="1326" type="curve" smooth="yes"/>
      <point x="-710" y="1326"/>
      <point x="-798" y="1229"/>
      <point x="-845" y="1120" type="curve"/>
      <point x="-792" y="1100" type="line"/>
      <point x="-743" y="1174"/>
      <point x="-702" y="1201"/>
      <point x="-649" y="1201" type="curve" smooth="yes"/>
      <point x="-571" y="1201"/>
      <point x="-495" y="1108"/>
      <point x="-403" y="1108" type="curve" smooth="yes"/>
      <point x="-299" y="1108"/>
    </contour>
  </outline>
</glyph>
<glyph name="CombEqSgnBlw" format="2">
  <unicode hex="0347"/>
  <anchor x="-515" y="-600" name="L"/>
  <anchor x="-515" y="-100" name="_L"/>
  <outline>
    <contour>
      <point x="-292" y="-208"/>
      <point x="-285" y="-182" type="curve"/>
      <point x="-310" y="-155" type="line"/>
      <point x="-716" y="-155" type="line"/>
      <point x="-730" y="-182"/>
      <point x="-737" y="-194"/>
      <point x="-745" y="-221" type="curve"/>
      <point x="-722" y="-245" type="line"/>
      <point x="-312" y="-245" type="line"/>
      <point x="-300" y="-223"/>
    </contour>
    <contour>
      <point x="-292" y="-408"/>
      <point x="-285" y="-382" type="curve"/>
      <point x="-310" y="-355" type="line"/>
      <point x="-716" y="-355" type="line"/>
      <point x="-730" y="-382"/>
      <point x="-737" y="-394"/>
      <point x="-745" y="-421" type="curve"/>
      <point x="-722" y="-445" type="line"/>
      <point x="-312" y="-445" type="line"/>
      <point x="-300" y="-423"/>
    </contour>
  </outline>
</glyph>
<glyph name="CombLftAngBlw" format="2">
  <unicode hex="0349"/>
  <anchor x="-532" y="-600" name="L"/>
  <anchor x="-532" y="-100" name="_L"/>
  <outline>
    <contour>
      <point x="-369" y="-223"/>
      <point x="-362" y="-197" type="curve"/>
      <point x="-387" y="-170" type="line"/>
      <point x="-676" y="-170" type="line"/>
      <point x="-690" y="-197"/>
      <point x="-697" y="-209"/>
      <point x="-705" y="-236" type="curve"/>
      <point x="-682" y="-260" type="line"/>
      <point x="-389" y="-260" type="line"/>
      <point x="-377" y="-238"/>
    </contour>
    <contour>
      <point x="-387" y="-475"/>
      <point x="-360" y="-459" type="curve"/>
      <point x="-360" y="-194" type="line"/>
      <point x="-387" y="-170" type="line"/>
      <point x="-413" y="-178"/>
      <point x="-427" y="-187"/>
      <point x="-450" y="-200" type="curve"/>
      <point x="-450" y="-468" type="line"/>
      <point x="-425" y="-490" type="line"/>
      <point x="-399" y="-482"/>
    </contour>
  </outline>
</glyph>
<glyph name="CombNotTildeAbv" format="2">
  <unicode hex="034A"/>
  <anchor x="-515" y="1370" name="U"/>
  <anchor x="-515" y="1050" name="_U"/>
  <outline>
    <contour>
      <point x="-221" y="1238"/>
      <point x="-174" y="1346" type="curve"/>
      <point x="-228" y="1369" type="line"/>
      <point x="-273" y="1291"/>
      <point x="-322" y="1246"/>
      <point x="-373" y="1246" type="curve" smooth="yes"/>
      <point x="-437" y="1246"/>
      <point x="-516" y="1359"/>
      <point x="-617" y="1359" type="curve" smooth="yes"/>
      <point x="-721" y="1359"/>
      <point x="-809" y="1242"/>
      <point x="-856" y="1133" type="curve"/>
      <point x="-803" y="1113" type="line"/>
      <point x="-754" y="1187"/>
      <point x="-713" y="1234"/>
      <point x="-660" y="1234" type="curve" smooth="yes"/>
      <point x="-582" y="1234"/>
      <point x="-506" y="1121"/>
      <point x="-414" y="1121" type="curve" smooth="yes"/>
      <point x="-310" y="1121"/>
    </contour>
    <contour>
      <point x="-566" y="1114" type="curve"/>
      <point x="-365" y="1386" type="line"/>
      <point x="-381" y="1410" type="line"/>
      <point x="-416" y="1399"/>
      <point x="-403" y="1402"/>
      <point x="-460" y="1373" type="curve"/>
      <point x="-660" y="1099" type="line"/>
      <point x="-640" y="1075" type="line"/>
      <point x="-595" y="1090"/>
      <point x="-610" y="1089"/>
    </contour>
  </outline>
</glyph>
<glyph name="CombRtDotAbv" format="2">
  <advance width="200"/>
  <unicode hex="0358"/>
  <anchor x="0" y="900" name="R_"/>
  <anchor x="102" y="1370" name="U"/>
  <outline>
    <contour>
      <point x="200" y="1186"/>
      <point x="200" y="1261" type="curve" smooth="yes"/>
      <point x="200" y="1323"/>
      <point x="172" y="1356"/>
      <point x="115" y="1356" type="curve" smooth="yes"/>
      <point x="52" y="1356"/>
      <point x="0" y="1296"/>
      <point x="0" y="1220" type="curve" smooth="yes"/>
      <point x="0" y="1159"/>
      <point x="25" y="1124"/>
      <point x="84" y="1124" type="curve" smooth="yes"/>
      <point x="150" y="1124"/>
    </contour>
  </outline>
</glyph>
<glyph name="CombDblBreveBlw" format="2">
  <unicode hex="035C"/>
  <anchor x="0" y="-940" name="L"/>
  <anchor x="0" y="1560" name="U"/>
  <outline>
    <contour>
      <point x="641" y="-860"/>
      <point x="818" y="-645" type="curve"/>
      <point x="791" y="-621"/>
      <point x="776" y="-610"/>
      <point x="737" y="-600" type="curve"/>
      <point x="587" y="-752"/>
      <point x="288" y="-806"/>
      <point x="-4" y="-803" type="curve" smooth="yes"/>
      <point x="-286" y="-800"/>
      <point x="-584" y="-752"/>
      <point x="-737" y="-600" type="curve"/>
      <point x="-775" y="-610"/>
      <point x="-791" y="-621"/>
      <point x="-818" y="-645" type="curve"/>
      <point x="-641" y="-860"/>
      <point x="-332" y="-945"/>
      <point x="3" y="-945" type="curve" smooth="yes"/>
      <point x="319" y="-945"/>
    </contour>
  </outline>
</glyph>
<glyph name="CombDblBreve" format="2">
  <unicode hex="035D"/>
  <anchor x="0" y="-490" name="L"/>
  <anchor x="0" y="1930" name="U"/>
  <outline>
    <contour>
      <point x="641" y="1652"/>
      <point x="818" y="1867" type="curve"/>
      <point x="791" y="1891"/>
      <point x="776" y="1902"/>
      <point x="737" y="1912" type="curve"/>
      <point x="587" y="1760"/>
      <point x="288" y="1706"/>
      <point x="-4" y="1709" type="curve" smooth="yes"/>
      <point x="-286" y="1712"/>
      <point x="-584" y="1760"/>
      <point x="-737" y="1912" type="curve"/>
      <point x="-775" y="1902"/>
      <point x="-791" y="1891"/>
      <point x="-818" y="1867" type="curve"/>
      <point x="-641" y="1652"/>
      <point x="-332" y="1567"/>
      <point x="3" y="1567" type="curve" smooth="yes"/>
      <point x="319" y="1567"/>
    </contour>
  </outline>
</glyph>
<glyph name="CombDblMacron" format="2">
  <unicode hex="035E"/>
  <anchor x="0" y="-490" name="L"/>
  <anchor x="0" y="2000" name="U"/>
  <outline>
    <contour>
      <point x="747" y="1792"/>
      <point x="753" y="1821" type="curve"/>
      <point x="731" y="1845" type="line"/>
      <point x="-712" y="1845" type="line"/>
      <point x="-725" y="1819"/>
      <point x="-747" y="1769"/>
      <point x="-753" y="1740" type="curve"/>
      <point x="-731" y="1715" type="line"/>
      <point x="714" y="1715" type="line"/>
      <point x="724" y="1740"/>
    </contour>
  </outline>
</glyph>
<glyph name="CombDblMacronBlw" format="2">
  <unicode hex="035F"/>
  <anchor x="0" y="-960" name="L"/>
  <anchor x="0" y="1560" name="U"/>
  <outline>
    <contour>
      <point x="747" y="-723"/>
      <point x="753" y="-694" type="curve"/>
      <point x="731" y="-670" type="line"/>
      <point x="-712" y="-670" type="line"/>
      <point x="-725" y="-696"/>
      <point x="-747" y="-746"/>
      <point x="-753" y="-775" type="curve"/>
      <point x="-731" y="-800" type="line"/>
      <point x="714" y="-800" type="line"/>
      <point x="724" y="-775"/>
    </contour>
  </outline>
</glyph>
<glyph name="CombDblInvBreve" format="2">
  <unicode hex="0361"/>
  <anchor x="0" y="-490" name="L"/>
  <anchor x="0" y="2030" name="U"/>
  <outline>
    <contour>
      <point x="-641" y="1877"/>
      <point x="-818" y="1662" type="curve"/>
      <point x="-791" y="1638"/>
      <point x="-776" y="1627"/>
      <point x="-737" y="1617" type="curve"/>
      <point x="-587" y="1769"/>
      <point x="-288" y="1823"/>
      <point x="4" y="1820" type="curve" smooth="yes"/>
      <point x="286" y="1817"/>
      <point x="584" y="1769"/>
      <point x="737" y="1617" type="curve"/>
      <point x="775" y="1627"/>
      <point x="791" y="1638"/>
      <point x="818" y="1662" type="curve"/>
      <point x="641" y="1877"/>
      <point x="332" y="1962"/>
      <point x="-3" y="1962" type="curve" smooth="yes"/>
      <point x="-319" y="1962"/>
    </contour>
  </outline>
</glyph>
<glyph name="CombDblRtArrwBlw" format="2">
  <unicode hex="0362"/>
  <anchor x="0" y="-860" name="L"/>
  <anchor x="0" y="1560" name="U"/>
  <outline>
    <contour>
      <point x="-727" y="-744"/>
      <point x="-735" y="-771" type="curve"/>
      <point x="-712" y="-795" type="line"/>
      <point x="703" y="-795" type="line"/>
      <point x="624" y="-925" type="line"/>
      <point x="680" y="-950" type="line"/>
      <point x="833" y="-750" type="line"/>
      <point x="680" y="-550" type="line"/>
      <point x="624" y="-575" type="line"/>
      <point x="703" y="-705" type="line"/>
      <point x="-706" y="-705" type="line"/>
      <point x="-720" y="-732"/>
    </contour>
  </outline>
</glyph>
<glyph name="GrSmArchaicSampi" format="2">
  <advance width="954"/>
  <unicode hex="0373"/>
  <anchor x="477" y="-100" name="L"/>
  <anchor x="477" y="1050" name="U"/>
  <outline>
    <contour>
      <point x="225" y="0" type="line"/>
      <point x="715" y="0" type="line"/>
      <point x="715" y="43" type="line"/>
      <point x="618" y="61"/>
      <point x="545" y="88"/>
      <point x="545" y="114" type="curve" smooth="yes"/>
      <point x="545" y="840" type="line"/>
      <point x="767" y="840" type="line" smooth="yes"/>
      <point x="809" y="840"/>
      <point x="822" y="568"/>
      <point x="829" y="442" type="curve"/>
      <point x="876" y="442" type="line"/>
      <point x="905" y="592"/>
      <point x="931" y="825"/>
      <point x="934" y="912" type="curve"/>
      <point x="907" y="930" type="line"/>
      <point x="63" y="930" type="line"/>
      <point x="49" y="878"/>
      <point x="26" y="592"/>
      <point x="26" y="452" type="curve"/>
      <point x="73" y="452" type="line"/>
      <point x="106" y="597"/>
      <point x="167" y="840"/>
      <point x="209" y="840" type="curve" smooth="yes"/>
      <point x="395" y="840" type="line"/>
      <point x="395" y="114" type="line" smooth="yes"/>
      <point x="395" y="86"/>
      <point x="315" y="61"/>
      <point x="225" y="43" type="curve"/>
    </contour>
  </outline>
</glyph>
<glyph name="GrCapLamda" format="2">
  <advance width="1219"/>
  <unicode hex="039B"/>
  <outline>
    <contour>
      <point x="0" y="43" type="curve"/>
      <point x="0" y="0" type="line"/>
      <point x="416" y="0" type="line"/>
      <point x="416" y="43" type="line"/>
      <point x="307" y="55"/>
      <point x="258" y="70"/>
      <point x="270" y="111" type="curve" smooth="yes"/>
      <point x="582" y="1049" type="line"/>
      <point x="903" y="111" type="line"/>
      <point x="920" y="68"/>
      <point x="879" y="49"/>
      <point x="776" y="43" type="curve"/>
      <point x="776" y="0" type="line"/>
      <point x="1198" y="0" type="line"/>
      <point x="1198" y="43" type="line"/>
      <point x="1112" y="53"/>
      <point x="1079" y="74"/>
      <point x="1067" y="111" type="curve" smooth="yes"/>
      <point x="647" y="1317" type="line"/>
      <point x="612" y="1298"/>
      <point x="561" y="1270"/>
      <point x="530" y="1237" type="curve"/>
      <point x="158" y="111" type="line"/>
      <point x="143" y="72"/>
      <point x="90" y="59"/>
    </contour>
  </outline>
</glyph>
<glyph name="GrCapOmega" format="2">
  <advance width="1296"/>
  <unicode hex="03A9"/>
  <anchor x="65" y="1260" name="G"/>
  <anchor x="638" y="-100" name="L"/>
  <outline>
    <contour>
      <point x="1170" y="502"/>
      <point x="1170" y="762" type="curve" smooth="yes"/>
      <point x="1170" y="1087"/>
      <point x="964" y="1290"/>
      <point x="671" y="1290" type="curve" smooth="yes"/>
      <point x="311" y="1290"/>
      <point x="110" y="1001"/>
      <point x="110" y="739" type="curve" smooth="yes"/>
      <point x="110" y="502"/>
      <point x="203" y="298"/>
      <point x="565" y="40" type="curve"/>
      <point x="576" y="110" type="line"/>
      <point x="309" y="413"/>
      <point x="270" y="512"/>
      <point x="270" y="750" type="curve" smooth="yes"/>
      <point x="270" y="899"/>
      <point x="365" y="1200"/>
      <point x="638" y="1200" type="curve" smooth="yes"/>
      <point x="883" y="1200"/>
      <point x="1010" y="981"/>
      <point x="1010" y="739" type="curve" smooth="yes"/>
      <point x="1010" y="512"/>
      <point x="934" y="413"/>
      <point x="701" y="110" type="curve"/>
      <point x="711" y="40" type="line"/>
      <point x="1016" y="310"/>
    </contour>
    <contour>
      <point x="1170" y="187"/>
      <point x="1176" y="265" type="curve"/>
      <point x="1131" y="284" type="line"/>
      <point x="1084" y="157"/>
      <point x="1073" y="110"/>
      <point x="1018" y="110" type="curve" smooth="yes"/>
      <point x="701" y="110" type="line"/>
      <point x="701" y="0" type="line"/>
      <point x="1143" y="0" type="line"/>
      <point x="1157" y="70"/>
    </contour>
    <contour>
      <point x="111" y="0" type="line"/>
      <point x="576" y="0" type="line"/>
      <point x="576" y="110" type="line"/>
      <point x="252" y="110" type="line" smooth="yes"/>
      <point x="195" y="110"/>
      <point x="178" y="167"/>
      <point x="156" y="280" type="curve"/>
      <point x="111" y="280" type="line"/>
      <point x="92" y="196"/>
      <point x="82" y="92"/>
      <point x="80" y="27" type="curve"/>
    </contour>
  </outline>
</glyph>
<glyph name="GrSmDelta" format="2">
  <advance width="982"/>
  <unicode hex="03B4"/>
  <anchor x="504" y="-100" name="L"/>
  <anchor x="504" y="1620" name="U"/>
  <outline>
    <contour>
      <point x="805" y="1393"/>
      <point x="902" y="1487" type="curve"/>
      <point x="889" y="1506"/>
      <point x="885" y="1517"/>
      <point x="876" y="1523" type="curve"/>
      <point x="859" y="1515"/>
      <point x="841" y="1512"/>
      <point x="822" y="1512" type="curve" smooth="yes"/>
      <point x="706" y="1512"/>
      <point x="579" y="1551"/>
      <point x="398" y="1551" type="curve" smooth="yes"/>
      <point x="288" y="1551"/>
      <point x="203" y="1467"/>
      <point x="203" y="1364" type="curve" smooth="yes"/>
      <point x="203" y="1044"/>
      <point x="740" y="862"/>
      <point x="740" y="377" type="curve" smooth="yes"/>
      <point x="740" y="214"/>
      <point x="645" y="95"/>
      <point x="548" y="95" type="curve" smooth="yes"/>
      <point x="391" y="95"/>
      <point x="255" y="287"/>
      <point x="255" y="477" type="curve" smooth="yes"/>
      <point x="255" y="656"/>
      <point x="330" y="809"/>
      <point x="513" y="884" type="curve"/>
      <point x="514" y="888"/>
      <point x="515" y="894"/>
      <point x="515" y="900" type="curve" smooth="yes"/>
      <point x="515" y="919"/>
      <point x="509" y="949"/>
      <point x="498" y="966" type="curve"/>
      <point x="258" y="881"/>
      <point x="100" y="683"/>
      <point x="100" y="422" type="curve" smooth="yes"/>
      <point x="100" y="194"/>
      <point x="243" y="-30"/>
      <point x="494" y="-30" type="curve" smooth="yes"/>
      <point x="691" y="-30"/>
      <point x="900" y="210"/>
      <point x="900" y="446" type="curve" smooth="yes"/>
      <point x="900" y="935"/>
      <point x="323" y="1161"/>
      <point x="323" y="1402" type="curve" smooth="yes"/>
      <point x="323" y="1446"/>
      <point x="343" y="1461"/>
      <point x="372" y="1461" type="curve" smooth="yes"/>
      <point x="491" y="1461"/>
      <point x="683" y="1342"/>
      <point x="731" y="1342" type="curve" smooth="yes"/>
      <point x="757" y="1342"/>
    </contour>
  </outline>
</glyph>
<glyph name="GrSmOmicron" format="2">
  <advance width="1020"/>
  <unicode hex="03BF"/>
  <anchor x="536" y="1050" name="U"/>
  <outline>
    <contour>
      <point x="935" y="219"/>
      <point x="935" y="485" type="curve"/>
      <point x="935" y="758"/>
      <point x="774" y="960"/>
      <point x="530" y="960" type="curve" smooth="yes"/>
      <point x="287" y="960"/>
      <point x="85" y="709"/>
      <point x="85" y="444" type="curve" smooth="yes"/>
      <point x="85" y="172"/>
      <point x="250" y="-30"/>
      <point x="491" y="-30" type="curve" smooth="yes"/>
      <point x="727" y="-30"/>
    </contour>
    <contour>
      <point x="780" y="666"/>
      <point x="780" y="455" type="curve"/>
      <point x="780" y="227"/>
      <point x="698" y="80"/>
      <point x="529" y="80" type="curve" smooth="yes"/>
      <point x="390" y="80"/>
      <point x="240" y="262"/>
      <point x="240" y="473" type="curve" smooth="yes"/>
      <point x="240" y="686"/>
      <point x="317" y="850"/>
      <point x="501" y="850" type="curve" smooth="yes"/>
      <point x="638" y="850"/>
    </contour>
  </outline>
</glyph>
<glyph name="GrSmPi" format="2">
  <advance width="1078"/>
  <unicode hex="03C0"/>
  <anchor x="577" y="-100" name="L"/>
  <anchor x="577" y="1050" name="U"/>
  <outline>
    <contour>
      <point x="853" y="782" type="curve" smooth="yes"/>
      <point x="916" y="782"/>
      <point x="989" y="836"/>
      <point x="1058" y="931" type="curve"/>
      <point x="1030" y="960" type="line"/>
      <point x="989" y="931"/>
      <point x="941" y="930"/>
      <point x="885" y="930" type="curve" smooth="yes"/>
      <point x="705" y="930"/>
      <point x="556" y="930"/>
      <point x="252" y="930" type="curve" smooth="yes"/>
      <point x="168" y="930"/>
      <point x="97" y="859"/>
      <point x="20" y="766" type="curve"/>
      <point x="43" y="730" type="line"/>
      <point x="118" y="783"/>
      <point x="163" y="793"/>
      <point x="247" y="793" type="curve" smooth="yes"/>
      <point x="510" y="793"/>
      <point x="630" y="782"/>
    </contour>
    <contour>
      <point x="791" y="-31" type="curve" smooth="yes"/>
      <point x="850" y="-31"/>
      <point x="909" y="-4"/>
      <point x="1046" y="110" type="curve"/>
      <point x="1024" y="154" type="line"/>
      <point x="933" y="119"/>
      <point x="902" y="113"/>
      <point x="862" y="113" type="curve" smooth="yes"/>
      <point x="800" y="113"/>
      <point x="774" y="214"/>
      <point x="774" y="457" type="curve" smooth="yes"/>
      <point x="774" y="587"/>
      <point x="779" y="733"/>
      <point x="798" y="861" type="curve"/>
      <point x="692" y="850" type="line"/>
      <point x="663" y="527"/>
      <point x="652" y="360"/>
      <point x="652" y="267" type="curve" smooth="yes"/>
      <point x="652" y="84"/>
      <point x="698" y="-31"/>
    </contour>
    <contour>
      <point x="377" y="300" type="curve" smooth="yes"/>
      <point x="377" y="516"/>
      <point x="388" y="735"/>
      <point x="407" y="909" type="curve"/>
      <point x="407" y="909"/>
      <point x="335" y="897"/>
      <point x="305" y="885" type="curve"/>
      <point x="255" y="231"/>
      <point x="244" y="165"/>
      <point x="130" y="4" type="curve"/>
      <point x="130" y="4"/>
      <point x="152" y="-23"/>
      <point x="159" y="-32" type="curve"/>
      <point x="219" y="-15"/>
      <point x="351" y="26"/>
      <point x="387" y="50" type="curve"/>
      <point x="380" y="123"/>
      <point x="377" y="205"/>
    </contour>
  </outline>
</glyph>
<glyph name="GrSmSigma" format="2">
  <advance width="980"/>
  <unicode hex="03C3"/>
  <anchor x="480" y="-100" name="L"/>
  <anchor x="480" y="1050" name="U"/>
  <outline>
    <contour>
      <point x="806" y="789" type="curve" smooth="yes"/>
      <point x="875" y="789"/>
      <point x="899" y="803"/>
      <point x="980" y="931" type="curve"/>
      <point x="955" y="960" type="line"/>
      <point x="914" y="930"/>
      <point x="908" y="930"/>
      <point x="828" y="930" type="curve" smooth="yes"/>
      <point x="717" y="930"/>
      <point x="635" y="930"/>
      <point x="522" y="930" type="curve" smooth="yes"/>
      <point x="270" y="930"/>
      <point x="80" y="673"/>
      <point x="80" y="429" type="curve" smooth="yes"/>
      <point x="80" y="187"/>
      <point x="242" y="-30"/>
      <point x="460" y="-30" type="curve" smooth="yes"/>
      <point x="719" y="-30"/>
      <point x="865" y="265"/>
      <point x="865" y="424" type="curve" smooth="yes"/>
      <point x="865" y="571"/>
      <point x="803" y="678"/>
      <point x="655" y="785" type="curve"/>
      <point x="629" y="800"/>
      <point x="550" y="809"/>
      <point x="547" y="809" type="curve"/>
      <point x="548" y="809" type="line"/>
      <point x="620" y="741"/>
      <point x="719" y="581"/>
      <point x="719" y="380" type="curve" smooth="yes"/>
      <point x="719" y="244"/>
      <point x="675" y="85"/>
      <point x="505" y="85" type="curve" smooth="yes"/>
      <point x="336" y="85"/>
      <point x="220" y="316"/>
      <point x="220" y="512" type="curve" smooth="yes"/>
      <point x="220" y="658"/>
      <point x="290" y="795"/>
      <point x="442" y="795" type="curve" smooth="yes"/>
      <point x="500" y="795"/>
      <point x="709" y="789"/>
    </contour>
  </outline>
</glyph>
<glyph name="GrSmUpsilon" format="2">
  <advance width="1040"/>
  <unicode hex="03C5"/>
  <anchor x="555" y="1050" name="U"/>
  <outline>
    <contour>
      <point x="467" y="-31" type="curve" smooth="yes"/>
      <point x="756" y="-31"/>
      <point x="957" y="328"/>
      <point x="959" y="607" type="curve"/>
      <point x="960" y="806"/>
      <point x="903" y="933"/>
      <point x="818" y="960" type="curve"/>
      <point x="767" y="948"/>
      <point x="678" y="921"/>
      <point x="628" y="899" type="curve"/>
      <point x="646" y="861" type="line"/>
      <point x="764" y="835"/>
      <point x="820" y="715"/>
      <point x="818" y="553" type="curve" smooth="yes"/>
      <point x="818" y="381"/>
      <point x="710" y="91"/>
      <point x="530" y="91" type="curve" smooth="yes"/>
      <point x="427" y="91"/>
      <point x="332" y="191"/>
      <point x="332" y="428" type="curve" smooth="yes"/>
      <point x="332" y="647"/>
      <point x="361" y="853"/>
      <point x="345" y="921" type="curve"/>
      <point x="345" y="921"/>
      <point x="316" y="960"/>
      <point x="316" y="960" type="curve"/>
      <point x="225" y="922"/>
      <point x="147" y="902"/>
      <point x="55" y="894" type="curve"/>
      <point x="55" y="854" type="line"/>
      <point x="182" y="850"/>
      <point x="195" y="823"/>
      <point x="195" y="752" type="curve" smooth="yes"/>
      <point x="195" y="605"/>
      <point x="182" y="510"/>
      <point x="182" y="369" type="curve" smooth="yes"/>
      <point x="182" y="68"/>
      <point x="338" y="-31"/>
    </contour>
  </outline>
</glyph>
<glyph name="GrKaiSym" format="2">
  <advance width="1091"/>
  <unicode hex="03D7"/>
  <outline>
    <contour>
      <point x="751" y="-222"/>
      <point x="380" y="-535" type="curve"/>
      <point x="393" y="-552"/>
      <point x="410" y="-562"/>
      <point x="427" y="-568" type="curve"/>
      <point x="940" y="-247"/>
      <point x="1006" y="36"/>
      <point x="1002" y="230" type="curve" smooth="yes"/>
      <point x="1000" y="360"/>
      <point x="917" y="515"/>
      <point x="726" y="515" type="curve" smooth="yes"/>
      <point x="621" y="515"/>
      <point x="463" y="504"/>
      <point x="237" y="187" type="curve"/>
      <point x="253" y="163"/>
      <point x="343" y="158"/>
      <point x="343" y="158" type="curve"/>
      <point x="352" y="291"/>
      <point x="491" y="391"/>
      <point x="613" y="391" type="curve" smooth="yes"/>
      <point x="761" y="391"/>
      <point x="840" y="280"/>
      <point x="841" y="131" type="curve" smooth="yes"/>
      <point x="841" y="-50"/>
    </contour>
    <contour>
      <point x="980" y="960"/>
      <point x="980" y="960" type="curve"/>
      <point x="834" y="978"/>
      <point x="654" y="909"/>
      <point x="352" y="416" type="curve"/>
      <point x="352" y="489"/>
      <point x="352" y="926"/>
      <point x="352" y="926" type="curve"/>
      <point x="352" y="926"/>
      <point x="324" y="960"/>
      <point x="324" y="960" type="curve"/>
      <point x="258" y="933"/>
      <point x="154" y="895"/>
      <point x="55" y="880" type="curve"/>
      <point x="55" y="840" type="line"/>
      <point x="202" y="826"/>
      <point x="202" y="819"/>
      <point x="202" y="673" type="curve" smooth="yes"/>
      <point x="202" y="557"/>
      <point x="202" y="385"/>
      <point x="202" y="252" type="curve" smooth="yes"/>
      <point x="202" y="145"/>
      <point x="198" y="43"/>
      <point x="189" y="0" type="curve"/>
      <point x="227" y="-31" type="line"/>
      <point x="266" y="-14"/>
      <point x="334" y="11"/>
      <point x="368" y="25" type="curve"/>
      <point x="360" y="78"/>
      <point x="352" y="214"/>
      <point x="352" y="291" type="curve"/>
      <point x="643" y="720"/>
      <point x="776" y="781"/>
      <point x="910" y="770" type="curve"/>
      <point x="940" y="802"/>
      <point x="973" y="865"/>
      <point x="1000" y="931" type="curve"/>
      <point x="1002" y="928"/>
    </contour>
    <contour>
      <point x="1053" y="1084" type="curve"/>
      <point x="1381" y="1506" type="line"/>
      <point x="1350" y="1541" type="line"/>
      <point x="1299" y="1529"/>
      <point x="1219" y="1508"/>
      <point x="1176" y="1492" type="curve"/>
      <point x="1000" y="1117" type="line"/>
      <point x="1023" y="1097"/>
      <point x="1031" y="1089"/>
    </contour>
  </outline>
</glyph>
